<svg width="70" height="70" viewBox="0 0 70 70" fill="none" xmlns="http://www.w3.org/2000/svg">
<g id="paperwork-01">
<path id="Vector" d="M15.4981 62.16L15.4421 62.132C15.2881 62.048 15.1341 61.978 14.9661 61.894C14.5461 61.684 14.0981 61.474 13.7201 61.18C13.0621 60.634 12.6981 59.822 12.6701 58.828V58.24C12.6701 54.726 12.6701 51.212 12.6701 47.698C12.6701 37.338 12.6841 26.614 12.6421 16.072C12.6421 13.748 14.1261 12.124 16.2541 12.124C16.3801 12.124 16.5061 12.124 16.6461 12.138C16.6881 12.138 16.7301 12.138 16.7721 12.138C16.8001 12.138 16.8281 12.138 16.8701 12.138V11.354C16.8981 9.44999 18.3961 7.95199 20.2861 7.95199C23.7301 7.95199 27.1881 7.93799 30.6321 7.93799C35.8401 7.93799 40.6281 7.95199 45.2761 7.96599C45.6821 7.96599 46.1861 8.17599 46.4801 8.46999C49.8961 11.844 53.3401 15.288 56.7001 18.69C57.0081 19.012 57.2181 19.544 57.2181 19.992C57.2181 25.704 57.2321 31.416 57.2321 37.114C57.2321 42.882 57.2321 48.65 57.2461 54.418C57.2461 56.49 55.7901 57.96 53.7041 57.974H53.0461V58.618C53.0321 60.326 52.0661 61.586 50.4141 62.062C50.3861 62.062 50.3581 62.09 50.3301 62.104L50.2881 62.132L50.2321 62.16H15.4981V62.16ZM16.3521 14.798C15.7361 14.798 15.3021 14.91 15.3021 16.282C15.3161 26.782 15.3161 37.464 15.3161 47.796C15.3161 51.296 15.3161 54.796 15.3161 58.296C15.3161 59.332 15.4981 59.514 16.5061 59.514H49.1961C49.2381 59.514 49.2801 59.514 49.3221 59.514C49.3641 59.514 49.4061 59.514 49.4481 59.514C49.5321 59.514 49.6021 59.514 49.6581 59.5C50.0641 59.444 50.2881 59.234 50.3301 58.87C50.3721 58.632 50.3581 58.366 50.3441 58.086C50.3441 58.044 50.3441 58.016 50.3441 57.974H20.6221C18.2561 57.974 16.8421 56.56 16.8421 54.18V29.624C16.8421 28.126 17.6681 27.888 18.1581 27.874H18.1861C18.6761 27.874 19.5021 28.098 19.5021 29.638V54.152C19.5021 55.118 19.6981 55.314 20.6361 55.314H53.4381C54.3761 55.314 54.5721 55.118 54.5721 54.194V21.672L54.5581 21.392V21.098H47.7121C45.5421 21.098 44.0861 19.642 44.0861 17.472V10.626H20.3561C19.7961 10.626 19.5161 10.92 19.5021 11.494C19.4881 12.138 19.5021 12.81 19.5021 13.454C19.5021 13.776 19.5021 14.112 19.5021 14.434C19.5021 15.022 19.5021 15.596 19.5021 16.184C19.5021 17.332 19.5021 18.508 19.5021 19.67C19.5021 20.482 18.9421 21.098 18.2141 21.098C18.0321 21.098 17.8641 21.056 17.6821 20.986C17.1361 20.748 16.8561 20.286 16.8561 19.642V14.84C16.6601 14.812 16.4921 14.798 16.3521 14.798ZM46.7601 13.804C46.7601 15.078 46.7601 16.268 46.7601 17.486C46.7601 18.158 47.0401 18.424 47.7121 18.424H52.6121L46.7601 12.572C46.7601 12.992 46.7601 13.398 46.7601 13.804ZM24.6681 51.674C23.7581 51.674 23.1421 51.142 23.1421 50.358C23.1421 49.56 23.7441 49.028 24.6541 49.028H37.7861C38.3041 49.028 38.7241 49.168 38.9901 49.448C39.2141 49.686 39.3401 49.994 39.3261 50.358C39.3121 51.184 38.7381 51.674 37.8001 51.674H24.6681ZM37.9961 46.578C37.8281 46.578 37.6741 46.578 37.5061 46.578C37.3521 46.578 37.1841 46.578 37.0301 46.578H31.6961C30.9121 46.578 30.1421 46.578 29.3581 46.578C28.5741 46.578 27.8041 46.578 27.0201 46.578C26.2361 46.578 25.4661 46.578 24.6821 46.578C24.2201 46.578 23.5761 46.494 23.2681 45.794C23.1141 45.444 23.1141 45.052 23.2681 44.702C23.4221 44.352 23.7301 44.1 24.0941 44.002C24.3461 43.918 24.6121 43.918 24.8501 43.918H38.5561C38.7381 43.918 38.9341 43.918 39.1161 43.946C39.8021 44.072 40.2641 44.618 40.2501 45.29C40.2361 45.99 39.6901 46.522 38.9761 46.55C38.6961 46.578 38.3881 46.578 37.9961 46.578ZM24.6121 41.482C23.7301 41.482 23.3941 41.062 23.2821 40.698C23.1561 40.32 23.1561 39.76 23.3941 39.438C23.6461 39.116 24.1501 38.878 24.5701 38.864C25.1581 38.836 25.7881 38.822 26.6281 38.822C26.9641 38.822 27.3141 38.822 27.6501 38.822C27.9861 38.822 28.3361 38.822 28.6721 38.822H32.6481C33.5721 38.822 34.1601 39.34 34.1601 40.138C34.1601 40.936 33.5441 41.468 32.6341 41.468H24.6121V41.482ZM24.6961 36.372C24.1781 36.372 23.7721 36.218 23.4921 35.938C23.2541 35.7 23.1421 35.378 23.1421 35.028C23.1561 34.244 23.7581 33.726 24.6821 33.726H32.6341C33.5581 33.726 34.1881 34.272 34.1881 35.07C34.1741 35.868 33.5721 36.372 32.6481 36.372H24.6961V36.372ZM27.4821 31.262C26.5861 31.262 25.6901 31.262 24.7941 31.262C24.4721 31.262 24.0381 31.262 23.7721 31.024C23.4781 30.758 23.2401 30.31 23.1981 29.904C23.1421 29.372 23.5061 28.896 24.0801 28.714C24.3741 28.63 24.6681 28.616 24.8921 28.616H41.1881H41.2021C42.0281 28.672 42.6021 29.218 42.5881 29.96C42.5881 30.716 42.0001 31.262 41.1601 31.262H32.8861C31.9901 31.262 31.0941 31.262 30.1981 31.262C29.2741 31.262 28.3781 31.262 27.4821 31.262ZM18.1861 25.788C17.8361 25.788 17.4861 25.634 17.2341 25.382C16.9821 25.13 16.8421 24.794 16.8561 24.444C16.8701 23.73 17.4581 23.142 18.1721 23.142C18.8861 23.142 19.4881 23.716 19.5021 24.416C19.5161 24.752 19.3901 25.102 19.1381 25.368C18.8861 25.634 18.5361 25.788 18.1861 25.788ZM24.5701 21.084C24.5141 21.084 24.4581 21.084 24.4021 21.07C23.6881 21 23.1701 20.468 23.1561 19.782C23.1421 19.432 23.2681 19.096 23.5061 18.844C23.7441 18.592 24.0801 18.438 24.4301 18.438C24.7521 18.424 25.1161 18.424 25.5781 18.424C25.7741 18.424 25.9561 18.424 26.1521 18.424C26.3481 18.424 26.5301 18.424 26.7261 18.424H41.0621C41.8461 18.424 42.4061 18.844 42.5461 19.53C42.6021 19.88 42.5181 20.23 42.3081 20.524C42.0981 20.818 41.7621 21.014 41.4121 21.07C41.3281 21.084 41.2301 21.084 41.1181 21.084C41.0761 21.084 41.0201 21.084 40.9781 21.084C40.9361 21.084 40.8941 21.084 40.8521 21.084H24.8501C24.8081 21.084 24.7661 21.084 24.7241 21.084C24.6681 21.084 24.6261 21.084 24.5701 21.084ZM24.6541 15.974C23.7301 15.96 23.1421 15.442 23.1421 14.644C23.1561 13.86 23.7721 13.328 24.6261 13.328C25.9561 13.328 27.3141 13.314 28.6581 13.314C30.0021 13.314 31.3601 13.314 32.6901 13.328C33.5581 13.328 34.1601 13.86 34.1741 14.644C34.1741 15.442 33.5721 15.974 32.6621 15.974H24.6541Z" fill="#387EFA"/>
</g>
</svg>
