<svg width="70" height="70" viewBox="0 0 70 70" fill="none" xmlns="http://www.w3.org/2000/svg">
<g id="satisfaction-03">
<path id="Vector" d="M30.9681 62.2301L30.8981 62.2161C29.9181 61.9501 29.1761 61.3481 28.7141 60.9141C27.6781 59.9901 26.3761 59.3601 24.6401 58.9681C24.4161 59.9621 23.5761 60.6621 22.5961 60.6621C20.9021 60.6761 19.4181 60.6761 17.9901 60.6761C16.4501 60.6761 15.0081 60.6761 13.6361 60.6621C12.4461 60.6481 11.5781 59.7101 11.5501 58.4501V41.2581C11.5501 39.6341 12.4041 38.7801 14.0281 38.7801H21.9801C23.4221 38.7801 24.0661 39.1021 24.5141 40.2221C24.8221 39.9281 25.1301 39.6341 25.4661 39.3681C25.9981 38.9481 26.5441 38.5281 27.0761 38.1361C27.7341 37.6601 28.3641 37.1841 28.9521 36.7081C30.5901 35.4061 31.5701 33.7261 31.8641 31.7241C31.9621 31.0381 32.0881 30.0161 32.0601 29.0501C31.9761 27.2861 33.6561 26.0261 34.9021 25.8021C35.1261 25.7601 35.3501 25.7321 35.6161 25.7321C37.1981 25.7321 38.5281 26.6701 39.0881 28.1821C40.3481 31.5981 40.3761 35.0841 39.1441 38.5421C39.1441 38.5561 39.1441 38.5701 39.1301 38.5701H48.7061C50.9321 38.5701 52.4301 39.6481 52.8221 41.5381C53.2421 43.3161 52.4581 45.0521 50.8761 45.8921C52.1221 48.4821 50.4981 50.2601 49.5881 50.9881C50.1341 51.9401 50.2881 52.8361 50.0641 53.7881C49.8401 54.7401 49.3221 55.5381 48.4821 56.1821C48.5101 56.2521 48.5381 56.3081 48.5661 56.3781C48.7481 56.7421 48.9161 57.1341 49.0001 57.5541C49.4341 59.5981 48.2721 61.5021 46.2141 62.1041L46.0881 62.1601L45.9901 62.2581H30.9681V62.2301ZM24.7521 56.3641C24.7661 56.3781 24.8081 56.3781 24.8641 56.3921C27.3141 56.8961 29.2881 57.8761 30.8981 59.3741C31.1081 59.5701 31.5141 59.6821 31.8081 59.6821C32.8161 59.6961 33.7681 59.7101 35.0281 59.7101H42.3921C42.9941 59.7101 43.5261 59.7101 44.0301 59.6961C44.4641 59.6961 44.8701 59.6961 45.2621 59.6961C46.0461 59.6961 46.6201 59.1501 46.6761 58.3661C46.7321 57.6521 46.2281 57.0781 45.4581 56.9381C45.4161 56.9381 45.3881 56.9241 45.3601 56.9241C45.2341 56.9241 45.1221 56.8961 45.0521 56.8821H45.0381C44.3941 56.7281 43.9741 56.1681 44.0441 55.5521C44.1141 54.9081 44.5481 54.4741 45.2201 54.4321H45.2341H45.3461C45.4861 54.4321 45.6121 54.4461 45.7381 54.4601C45.7801 54.4601 45.8361 54.4741 45.8781 54.4741H45.9061L46.0041 54.4881C46.0181 54.4881 46.0881 54.4881 46.1161 54.4881C46.8721 54.4881 47.6421 53.8021 47.7121 53.0881C47.7961 52.3601 47.2081 51.7301 46.3681 51.6321H46.2981L46.2561 51.6181C46.2421 51.6181 46.2281 51.6181 46.2001 51.6181C46.1301 51.6041 46.0321 51.5901 45.9061 51.5481C45.3041 51.3241 44.9961 50.8341 45.0661 50.2321C45.1221 49.6021 45.5561 49.1681 46.2001 49.1261H46.2281H46.3401C46.4661 49.1261 46.5781 49.1401 46.6761 49.1541C46.7181 49.1541 46.7601 49.1681 46.8161 49.1681L47.1241 49.2101C47.1661 49.2101 47.1941 49.2241 47.2221 49.2241H47.2361C47.2921 49.2241 47.3481 49.2241 47.4041 49.2381C47.4461 49.2381 47.4741 49.2381 47.5161 49.2381C47.5581 49.2381 47.6141 49.2381 47.6281 49.2381C48.3001 49.0981 48.9441 48.2721 48.8741 47.6141C48.7901 46.8581 48.2021 46.3541 47.3761 46.3401H46.6481C46.4241 46.3401 46.2281 46.3261 46.0461 46.2841C45.6961 46.2281 45.2481 45.9621 45.0661 45.5701C44.8981 45.2061 44.9681 44.6321 45.2061 44.3241C45.4721 44.0021 45.9621 43.8341 46.3261 43.8201C46.6341 43.8061 46.9421 43.8061 47.3761 43.8061H48.4121C48.5521 43.8061 48.6781 43.8061 48.8041 43.7921C48.9161 43.7921 49.0141 43.7921 49.1121 43.7921C49.5041 43.7641 49.8541 43.6241 50.0921 43.3581C50.3301 43.0921 50.4701 42.7281 50.5121 42.2381C50.4701 41.4821 49.8821 40.9781 49.0561 40.9781H37.5201C36.9041 40.9781 36.4281 40.7681 36.1901 40.3761C36.0221 40.1101 35.8821 39.6481 36.2321 38.9621C36.9881 37.4361 37.4221 35.8121 37.5481 34.1601C37.6741 32.3541 37.3941 30.5761 36.7361 28.8541C36.5681 28.4341 36.1761 28.1821 35.6861 28.1821C35.6161 28.1821 35.5321 28.1961 35.4341 28.2101C34.9021 28.3081 34.6781 28.5881 34.6361 29.1901L34.5941 29.8201C34.5661 30.1421 34.5381 30.4781 34.5241 30.8001C34.3981 33.9081 33.0961 36.5121 30.6601 38.5421L30.6321 38.5561C30.3941 38.7381 30.1421 38.8781 29.8481 39.0601L29.8201 39.0741C29.5821 39.2141 29.3301 39.3541 29.1341 39.5221C27.7621 40.7121 26.4321 41.9301 25.1441 43.1201L24.8221 43.4141C24.7941 43.4421 24.7381 43.5821 24.7381 43.7081C24.7241 45.9341 24.7241 48.1881 24.7241 50.3721V56.2241C24.7381 56.3081 24.7381 56.3501 24.7521 56.3641ZM22.1341 58.1421V41.3421H14.0981V58.1421H22.1341ZM18.9281 45.0101C18.2141 45.0101 17.6681 44.4641 17.6681 43.7361C17.6541 43.3721 17.7801 43.0501 18.0181 42.7981C18.2561 42.5601 18.5641 42.4201 18.9141 42.4201C19.6421 42.4201 20.1741 42.9661 20.1741 43.7081C20.1741 44.4501 19.6561 45.0101 18.9281 45.0101ZM21.8821 29.5961C21.5181 29.5961 21.1681 29.4001 20.9441 29.2601L19.6141 28.4621C19.4181 28.3501 19.2221 28.2241 19.0261 28.1121C18.6621 27.9021 18.2841 27.6781 17.9201 27.4401C17.8221 27.3841 17.7941 27.3841 17.7941 27.3841C17.7941 27.3841 17.7521 27.3841 17.6821 27.4261L17.5141 27.5101C16.4221 28.1821 15.4421 28.7701 14.4201 29.3301C14.2241 29.4421 13.9861 29.4981 13.7061 29.4981C13.5101 29.4981 13.3141 29.4561 13.1321 29.3861C12.8381 29.2601 12.6981 28.9941 12.6001 28.7981L12.5441 28.6861L12.5301 28.6581L12.3901 28.4481L12.4461 28.2101C12.4881 28.0281 12.5301 27.8601 12.5581 27.6781C12.6001 27.4961 12.6421 27.3001 12.6841 27.1181C12.7261 26.9081 12.7821 26.6841 12.8241 26.4741C12.9781 25.7601 13.1321 25.0881 13.3001 24.4021C13.3561 24.1781 13.3421 24.1361 13.1321 23.9821L13.1041 23.9681L13.0761 23.9541C12.7121 23.6461 12.3481 23.3241 11.9981 23.0161C11.8161 22.8621 11.6341 22.6941 11.4661 22.5401C11.1721 22.2741 10.8921 22.0361 10.5981 21.7701L10.4861 21.6721C10.2481 21.4621 9.70213 20.9861 9.94013 20.2021C10.1921 19.4601 10.7941 19.3341 11.2421 19.2921C11.8441 19.2501 12.4461 19.1941 12.9641 19.1381C13.1601 19.1241 13.3421 19.0961 13.5381 19.0821C13.9441 19.0401 14.3501 18.9981 14.7561 18.9701C15.0221 18.9421 15.0641 18.8861 15.1201 18.7181C15.3861 18.0461 15.6801 17.3741 15.9601 16.7301L16.0301 16.5901C16.1981 16.2261 16.3521 15.8621 16.5201 15.4841C16.7021 15.0641 17.0241 14.5181 17.7801 14.5181C18.3541 14.5181 18.7741 14.8541 19.0401 15.4981C19.1241 15.6941 19.2081 15.8901 19.2921 16.0861C19.3761 16.2961 19.4741 16.4921 19.5581 16.7021L19.6141 16.8281C19.8941 17.4581 20.1741 18.1161 20.4401 18.7601C20.5101 18.9421 20.5661 18.9561 20.7341 18.9701C21.1681 18.9981 21.6161 19.0401 22.0501 19.0821C22.2461 19.0961 22.4281 19.1241 22.6241 19.1381C23.1421 19.1941 23.7441 19.2501 24.3321 19.2921C24.5981 19.3201 25.3541 19.3901 25.5921 20.1881C25.8441 20.9721 25.2701 21.4621 25.0881 21.6301L24.0381 22.5541L23.9541 22.6241C23.4501 23.0721 22.9321 23.5481 22.4001 23.9821C22.2181 24.1361 22.2181 24.2061 22.2601 24.3741C22.4141 25.0181 22.6101 25.8721 22.7921 26.7121C22.8341 26.8801 22.8761 27.0481 22.9181 27.2301C22.9601 27.3981 22.9881 27.5661 23.0301 27.7341C23.1141 28.0981 23.2821 28.8541 22.5821 29.3581L22.5681 29.3721C22.3301 29.5121 22.1201 29.5961 21.8821 29.5961ZM15.9181 24.2761C15.8341 24.6121 15.7641 24.9481 15.6941 25.2981C15.6661 25.4381 15.6241 25.5921 15.5961 25.7321C16.0581 25.4661 16.4501 25.2421 16.8141 24.9901C17.1641 24.7661 17.4861 24.6541 17.8081 24.6541C18.1301 24.6541 18.4661 24.7661 18.8161 24.9901C19.2081 25.2281 19.6001 25.4661 20.0341 25.7181C19.9361 25.2561 19.8241 24.7801 19.6841 24.1921C19.5021 23.5061 19.6841 22.9461 20.2301 22.5121C20.5241 22.2741 20.8181 22.0081 21.1401 21.7281C21.2241 21.6441 21.3221 21.5741 21.4061 21.4901L21.3221 21.4761C20.8321 21.4341 20.3701 21.3781 19.9081 21.3641C19.1521 21.3221 18.6481 20.9721 18.3961 20.2861C18.2281 19.8801 18.0461 19.4601 17.8641 19.0261L17.8081 18.9001C17.7661 19.0121 17.7101 19.1101 17.6681 19.2081C17.5001 19.5861 17.3461 19.9361 17.2061 20.3001C16.9401 20.9861 16.4501 21.3361 15.6801 21.3781C15.2181 21.4061 14.7561 21.4481 14.2661 21.4901H14.2381C14.6441 21.8541 14.9941 22.1621 15.3721 22.4701C15.9321 22.9741 16.1141 23.5481 15.9181 24.2761ZM56.3641 29.5541C56.0141 29.5541 55.6921 29.3861 55.4121 29.2181C55.0621 28.9941 54.6981 28.7841 54.2781 28.5321C53.6901 28.1961 53.1021 27.8321 52.5421 27.4821L52.5281 27.4681C52.3881 27.3841 52.3181 27.3701 52.2621 27.3701C52.1921 27.3701 52.1081 27.3981 52.0241 27.4681C50.8481 28.1961 49.8261 28.7981 48.8741 29.3161L48.8601 29.3301C48.6221 29.4421 48.3701 29.4701 48.1881 29.4701C47.9781 29.4701 47.7681 29.4281 47.5861 29.3581H47.5721L47.5581 29.3441C47.2921 29.2041 47.1241 28.9241 47.0261 28.6861C47.0121 28.6581 46.9841 28.6021 46.9841 28.6021L46.8581 28.4061L46.9141 28.1681C46.9561 27.9861 46.9981 27.8181 47.0261 27.6361C47.0681 27.4541 47.1101 27.2581 47.1521 27.0761L47.1801 26.9641C47.3621 26.0821 47.5441 25.2421 47.7681 24.4021C47.8241 24.1501 47.7961 24.0661 47.6001 23.8981C47.2501 23.6041 46.8861 23.2821 46.5501 22.9881C46.3541 22.8201 46.1721 22.6521 45.9761 22.4841C45.6261 22.1761 45.2901 21.8821 44.9541 21.5881C44.3241 21.0561 44.3381 20.5101 44.4641 20.1321C44.7161 19.3621 45.4721 19.2921 45.7101 19.2641L45.8081 19.2501C46.2841 19.2081 46.7881 19.1661 47.2501 19.1241C47.4461 19.1101 47.6281 19.0821 47.8101 19.0681C48.2581 19.0261 48.7061 18.9841 49.1541 18.9561C49.4341 18.9421 49.5321 18.8721 49.6441 18.6201C49.9101 17.9481 50.2041 17.2621 50.4701 16.6881C50.6381 16.3101 50.8061 15.9181 50.9741 15.5261C51.1141 15.1901 51.4221 14.4761 52.2621 14.4761C53.1161 14.4761 53.4241 15.2041 53.5501 15.5121C53.6621 15.7921 53.7881 16.0721 53.9001 16.3381C53.9841 16.5341 54.0681 16.7161 54.1521 16.9121C54.4181 17.5141 54.6841 18.1301 54.9361 18.7321C55.0061 18.9001 55.0481 18.9141 55.1881 18.9281C55.6081 18.9561 56.0421 18.9981 56.4621 19.0401C56.6581 19.0541 56.8541 19.0821 57.0501 19.0961C57.6381 19.1521 58.2401 19.2081 58.8421 19.2641C59.0801 19.2921 59.7801 19.3621 60.0601 20.1041V20.1181C60.2001 20.5101 60.2141 21.0701 59.5841 21.5881L58.5901 22.4561C58.0021 22.9881 57.4141 23.5061 56.8401 23.9961C56.7281 24.0941 56.7001 24.1361 56.7421 24.3181C56.9241 25.0321 57.1061 25.8441 57.2881 26.6981C57.3161 26.8661 57.3581 27.0201 57.4001 27.1881C57.4421 27.3561 57.4841 27.5241 57.5121 27.6921C57.6101 28.1121 57.7641 28.8261 57.1061 29.3021C56.8681 29.4701 56.6301 29.5541 56.3641 29.5541ZM48.6781 21.5461C49.1261 21.9521 49.5041 22.2881 49.8821 22.6101C50.3721 23.0301 50.5541 23.5341 50.4001 24.1781C50.3581 24.3321 50.3301 24.5001 50.2881 24.6401C50.2321 24.9061 50.1761 25.1441 50.1201 25.3961C50.0921 25.5221 50.0641 25.6481 50.0361 25.7741C50.4421 25.5501 50.8201 25.3121 51.1981 25.0601C51.5481 24.8221 51.8981 24.6961 52.2481 24.6961C52.6121 24.6961 52.9761 24.8221 53.3401 25.0741C53.6901 25.2981 54.0681 25.5221 54.4601 25.7461L54.4881 25.7601C54.3901 25.2841 54.2921 24.7941 54.1521 24.3041C53.9561 23.5621 54.1381 22.9881 54.6981 22.5261C55.0901 22.2041 55.4681 21.8821 55.8461 21.5321C55.3561 21.4761 54.9361 21.4341 54.5021 21.4201C53.6341 21.4061 53.0741 21.0001 52.7801 20.1881C52.6261 19.7821 52.4581 19.3761 52.2481 18.9001C52.2061 18.9841 52.1781 19.0541 52.1361 19.1381C51.9681 19.5021 51.8141 19.8521 51.6881 20.2161C51.3941 21.0001 50.8621 21.3781 50.0221 21.4061C49.6301 21.4201 49.2381 21.4621 48.8321 21.5041C48.8041 21.5321 48.7341 21.5321 48.6781 21.5461ZM40.6841 27.5801C40.4321 27.5801 40.1661 27.4961 39.8861 27.3421C39.5921 27.1741 39.3121 27.0061 39.0461 26.8381C38.7661 26.6701 38.4861 26.5021 38.2061 26.3341C37.3521 25.8441 36.4281 25.2841 35.2941 24.5981C35.1261 24.5001 35.0561 24.5001 35.0421 24.5001C34.9721 24.5001 34.8881 24.5281 34.8041 24.5981C33.4321 25.4381 31.9621 26.3061 30.1561 27.3561C29.9181 27.4961 29.6661 27.5801 29.4001 27.5801C29.0641 27.5801 28.7561 27.4541 28.5321 27.2161C28.2941 26.9781 28.1541 26.6421 28.1541 26.2641V26.1941L28.3501 25.3401C28.4901 24.6961 28.6441 24.0101 28.7841 23.3521L28.7981 23.3101C28.8261 23.1841 28.8541 23.0581 28.8821 22.9321C28.9101 22.8061 28.9381 22.6941 28.9661 22.5681L29.0081 22.4001C29.1341 21.8261 29.2741 21.2241 29.4281 20.6501C29.4841 20.4681 29.4701 20.4121 29.2741 20.2441C28.5881 19.6561 27.9021 19.0541 27.2441 18.4661L26.7821 18.0601L25.3401 16.7861C25.0601 16.5481 24.5001 16.0441 24.7941 15.2321C25.0461 14.4621 25.7741 14.3921 26.1521 14.3641C26.5441 14.3221 26.9501 14.2801 27.3421 14.2521C27.7761 14.2101 28.1961 14.1681 28.6161 14.1261C29.0361 14.0841 29.4561 14.0421 29.8901 14.0141C30.4361 13.9581 30.9821 13.9161 31.5141 13.8601C31.5701 13.8601 31.5981 13.8461 31.5981 13.8461C31.6121 13.8321 31.6261 13.8041 31.6821 13.6921L32.6481 11.4661C32.8021 11.1021 32.9561 10.7381 33.1241 10.3741C33.3481 9.8561 33.5721 9.3381 33.7961 8.8061C33.9221 8.4981 34.2161 7.7981 35.0701 7.7981C35.8961 7.7981 36.2041 8.5121 36.3441 8.8061C36.4981 9.1421 36.6381 9.4781 36.7781 9.8141C36.9181 10.1361 37.0581 10.4721 37.2121 10.8081C37.6041 11.7041 38.0241 12.6701 38.4581 13.7201C38.5141 13.8601 38.5281 13.8741 38.7101 13.9021C39.3821 13.9581 40.0541 14.0281 40.7261 14.0841C41.3001 14.1401 41.8741 14.1961 42.4341 14.2521L44.1701 14.4201C44.7581 14.4621 45.1781 14.7841 45.3461 15.3301C45.5981 16.0861 45.0521 16.5621 44.8701 16.7301C44.5201 17.0521 44.1701 17.3601 43.8201 17.6681L43.4981 17.9481C42.6161 18.7181 41.7201 19.5301 40.8101 20.3001C40.6701 20.4261 40.6421 20.4681 40.6981 20.6781C40.9501 21.7001 41.1741 22.7361 41.3981 23.7301L41.5381 24.3321L41.8181 25.5781C41.8321 25.6341 41.8601 25.6901 41.8601 25.7741L41.8881 25.9421C42.0841 26.7541 41.6781 27.1881 41.3981 27.3841C41.1741 27.5101 40.9361 27.5801 40.6841 27.5801ZM31.4441 22.7641C31.3741 23.0861 31.3041 23.4221 31.2201 23.7721C31.3181 23.7161 31.4161 23.6601 31.5141 23.6041C31.7941 23.4361 32.0881 23.2681 32.3681 23.1001C32.9561 22.7501 33.5161 22.4281 34.0761 22.0781C34.3561 21.8961 34.6641 21.7981 34.9721 21.7981C35.2521 21.7981 35.5461 21.8821 35.8401 22.0641C36.4421 22.4281 37.0581 22.7921 37.6601 23.1421L37.9261 23.2961C38.0661 23.3801 38.2061 23.4641 38.3461 23.5341C38.4721 23.6041 38.5981 23.6741 38.7241 23.7581C38.6961 23.6461 38.6821 23.5341 38.6541 23.4081C38.4161 22.2181 38.2061 21.3221 37.9961 20.4961C37.8281 19.8101 38.0101 19.2781 38.5421 18.8301C39.1861 18.2981 39.8301 17.7241 40.4461 17.1781L40.5161 17.1221L41.0761 16.6321C40.9641 16.6181 40.8521 16.6041 40.7401 16.6041C39.5641 16.4781 38.5841 16.3941 37.6601 16.3101C37.0581 16.2681 36.6241 15.9461 36.3721 15.3581C36.0781 14.6301 35.7561 13.8881 35.4341 13.1741L35.3641 13.0061C35.2941 12.8521 35.2381 12.7121 35.1821 12.5721C35.1261 12.4601 35.0841 12.3481 35.0281 12.2361C35.0001 12.3061 34.9721 12.3621 34.9441 12.4321C34.8881 12.5581 34.8321 12.6981 34.7761 12.8241L34.6501 13.1181C34.3561 13.8041 34.0481 14.5321 33.7541 15.2461C33.4601 15.9321 33.0121 16.2681 32.3261 16.3381C31.6121 16.3941 30.9261 16.4641 30.1841 16.5341L29.3301 16.6181C29.1901 16.6321 29.0361 16.6461 28.8961 16.6601L29.4841 17.1781C29.7081 17.3741 29.9321 17.5701 30.1701 17.7661C30.5761 18.1161 30.9821 18.4801 31.4021 18.8301C32.0041 19.3341 32.1861 19.8941 31.9901 20.5941C31.8781 20.9581 31.7801 21.3781 31.6961 21.8401L31.6821 21.8961C31.6541 22.0361 31.6261 22.1901 31.5841 22.3441L31.4441 22.7641Z" fill="#387EFA"/>
</g>
</svg>
