<svg width="70" height="70" viewBox="0 0 70 70" fill="none" xmlns="http://www.w3.org/2000/svg">
<g id="paperwork" clip-path="url(#clip0_48_459)">
<path id="Vector" d="M33.0818 63.924C30.4218 63.882 27.5798 63.868 23.8418 63.868C22.3018 63.868 20.7618 63.868 19.2078 63.868C17.6678 63.868 16.1278 63.868 14.5878 63.868C14.5458 63.868 14.4898 63.868 14.4478 63.882C14.3778 63.882 14.3218 63.896 14.2518 63.896C14.1538 63.896 14.0138 63.882 13.8878 63.812L13.8318 63.784C13.5518 63.616 13.2158 63.406 13.1038 63.07C12.9918 62.762 13.1458 62.412 13.2858 62.118L13.3138 62.062C13.3838 61.894 13.5518 61.782 13.6778 61.698C13.7198 61.67 13.7478 61.656 13.7758 61.628C19.4878 57.218 25.1858 52.836 30.5478 48.734C30.7438 48.594 30.9398 48.342 31.0518 48.076C31.4998 46.984 31.9618 45.864 32.3958 44.772C32.8298 43.694 33.2918 42.56 33.7538 41.468C33.9778 40.922 34.2298 40.376 34.4678 39.858C34.5378 39.718 34.5938 39.592 34.6498 39.452H30.7578C30.7438 39.578 30.7438 39.704 30.7298 39.816C30.7018 40.25 30.6598 40.684 30.5198 41.104C30.0718 42.406 29.0358 43.162 27.5238 43.302C27.4398 43.316 27.3698 43.316 27.2858 43.316C26.2218 43.316 25.2278 42.658 24.6678 41.608C24.3318 40.978 24.4858 40.334 25.0458 40.012C25.2138 39.914 25.3958 39.858 25.5918 39.858C25.8438 39.858 26.2218 39.956 26.5718 40.446C26.9358 40.978 27.1318 41.09 27.3558 41.09C27.4538 41.09 27.5658 41.062 27.7198 41.02C28.2238 40.852 28.5458 40.418 28.5318 39.9C28.5038 39.382 28.2098 39.032 27.6218 38.864C27.2998 38.766 26.9778 38.724 26.6278 38.724C26.1378 38.724 25.5918 38.822 24.9898 39.018C24.3038 39.228 23.6178 39.466 22.9598 39.69C22.2038 39.942 21.4198 40.222 20.6498 40.446C19.6698 40.726 18.7598 40.866 17.8638 40.866C17.2618 40.866 16.6738 40.796 16.0998 40.67C14.2658 40.25 12.6278 39.242 11.0878 37.59C10.1078 36.554 9.21179 35.462 8.37179 34.44C7.83979 33.782 7.60179 33.068 7.69979 32.354C7.79779 31.64 8.21779 30.996 8.91779 30.492C9.88379 29.806 10.9478 29.456 12.0678 29.456C12.6558 29.456 13.2718 29.554 13.9018 29.736C14.3918 29.89 14.6858 29.946 14.8958 29.946C15.0638 29.946 15.2178 29.904 15.4138 29.792C15.3858 29.764 15.3718 29.736 15.3438 29.708C15.0218 29.316 14.7138 28.952 14.3918 28.588C14.3778 28.588 14.3778 28.588 14.3638 28.588C14.3218 28.588 14.2798 28.602 14.2658 28.602C13.9298 28.742 13.6358 28.812 13.3558 28.812C12.8518 28.812 12.4038 28.574 11.9838 28.098C11.7598 27.846 11.5498 27.594 11.3398 27.342C11.2418 27.23 11.1438 27.118 11.0458 26.992C10.5978 26.446 10.3878 25.942 10.4298 25.452C10.4718 24.962 10.7518 24.5 11.2838 24.038C12.5718 22.946 13.8738 21.854 15.1758 20.762C16.4778 19.67 17.7658 18.578 19.0678 17.486C20.9158 15.932 22.7498 14.392 24.5978 12.838C26.4178 11.312 28.2378 9.77201 30.0718 8.24601C30.6038 7.79801 31.0658 7.58801 31.5278 7.58801C32.0738 7.58801 32.5638 7.88201 33.0958 8.49801C33.3338 8.77801 33.5998 9.11401 33.8798 9.43601C34.6498 10.36 34.7058 11.074 34.0478 11.998C34.2158 12.208 34.3978 12.418 34.5658 12.628C34.7338 12.824 34.9018 13.02 35.0698 13.23C35.2798 12.978 35.3218 12.67 35.3078 12.292C35.3078 12.068 35.2938 11.83 35.2798 11.606C35.2518 11.046 35.2238 10.458 35.3078 9.89801C35.6298 7.96601 36.6238 6.67801 38.2618 6.07601L38.3038 6.06201H39.2978L39.3398 6.07601C40.0538 6.31401 40.6558 6.79001 41.2438 7.56001C41.5798 8.00801 41.9438 8.47001 42.2938 8.90401C43.0358 9.84201 43.8198 10.808 44.4498 11.858C46.0318 14.448 46.1018 17.248 44.6458 20.174C44.2398 21 43.7918 21.826 43.3718 22.624C43.0078 23.31 42.6298 24.024 42.2798 24.724C41.8878 25.508 41.7898 26.278 41.9718 27.02C42.1118 27.552 42.4758 27.846 43.0358 27.846C43.5398 27.846 44.0018 27.496 44.1278 27.02C44.2258 26.67 44.1278 26.376 43.8058 26.11C42.9098 25.354 43.3018 24.682 43.5118 24.43C43.7358 24.178 44.0158 24.038 44.3238 24.038C44.6178 24.038 44.9398 24.164 45.2478 24.416C46.4378 25.396 46.7318 26.81 46.0318 28.21C45.4718 29.344 44.2958 30.072 43.0358 30.072C42.7978 30.072 42.5598 30.044 42.3218 29.988L41.9718 29.89C41.8038 30.744 41.6498 31.584 41.4818 32.424C41.3138 33.292 41.1458 34.146 40.9918 34.986C41.5658 35.154 42.1678 35.35 42.8118 35.546C43.5258 34.86 44.3238 34.51 45.1638 34.51C45.6258 34.51 46.1018 34.622 46.5638 34.832C47.7398 35.364 48.3838 36.358 48.4678 37.786C50.1478 38.15 51.1138 39.214 51.2958 40.922C52.3038 41.062 53.0878 41.524 53.6338 42.28C54.1658 43.036 54.3338 43.89 54.1518 44.898C55.0478 45.22 55.7058 45.836 56.1118 46.732C56.6438 46.466 57.0358 46.354 57.3998 46.354C58.0438 46.354 58.5898 46.704 59.1918 47.25C59.5698 47.586 59.9478 47.922 60.3118 48.244C60.6898 48.566 61.0678 48.916 61.4458 49.252C62.0198 49.77 62.3278 50.386 62.3278 51.03C62.3278 51.688 62.0058 52.332 61.4038 52.878C57.5258 56.14 53.6478 59.402 49.8818 62.552C49.3918 62.958 48.8458 63.182 48.2998 63.182C47.5438 63.182 46.8578 62.762 46.3678 61.992C45.6678 60.886 45.1078 59.976 44.6178 59.122C44.4778 58.898 44.3938 58.66 44.2818 58.422C44.2538 58.366 44.2398 58.31 44.2118 58.254C43.8478 58.282 43.4698 58.31 43.0778 58.338C42.4338 58.38 41.7898 58.422 41.1458 58.464C41.0338 58.478 40.9638 58.492 40.8798 58.492H40.8658C40.7678 58.478 40.6698 58.478 40.5858 58.478C39.8438 58.478 39.2418 58.786 38.7238 59.458C38.3878 59.878 38.0238 59.976 37.7858 59.976C37.5058 59.976 37.2258 59.85 37.0018 59.626C36.5398 59.164 36.5818 58.52 37.0998 57.946L37.1418 57.904C37.9678 56.784 39.0458 56.238 40.4038 56.238C40.4878 56.238 40.5718 56.238 40.6698 56.238C40.7958 56.238 40.9358 56.252 41.0758 56.252C41.6918 56.252 42.3078 56.182 42.9238 56.126C43.2318 56.098 43.5538 56.056 43.8758 56.042C44.7858 55.972 45.5838 55.594 46.4518 54.824C44.2818 51.87 42.0558 48.818 39.8018 45.724C39.7738 45.766 39.7598 45.794 39.7318 45.836C39.6058 46.032 39.4938 46.214 39.3678 46.396C39.0878 46.774 38.7378 46.97 38.3738 46.97C38.1638 46.97 37.9678 46.914 37.7858 46.788C37.5338 46.62 37.3658 46.382 37.3098 46.102C37.2538 45.794 37.3238 45.472 37.5338 45.164C38.0798 44.38 38.3458 43.498 38.3458 42.476C38.3458 42.098 38.5838 41.72 38.7938 41.51C39.2698 41.076 39.8858 40.838 40.5298 40.838C41.1878 40.838 41.8318 41.09 42.3218 41.538C42.6018 41.79 42.8538 42.056 43.0918 42.336C43.2598 42.518 43.4278 42.714 43.6098 42.882C43.8338 43.106 44.0438 43.218 44.2258 43.218C44.4358 43.218 44.6738 43.092 44.9678 42.826C45.6818 42.168 45.6118 41.832 45.2198 41.398C44.0438 40.11 42.9658 38.948 41.9018 37.842C41.5378 37.464 41.1178 37.268 40.6558 37.268C40.2638 37.268 39.8718 37.422 39.5218 37.73C38.5698 38.542 37.7438 39.326 36.9738 40.138C36.6798 40.46 36.4138 40.908 36.1758 41.468C35.6438 42.742 35.1118 44.03 34.6078 45.29C34.1038 46.536 33.5718 47.838 33.0398 49.098C32.8298 49.588 32.4798 50.05 32.0738 50.372C28.3078 53.284 24.4718 56.238 20.7618 59.08L17.4438 61.628C22.6098 61.628 27.9438 61.628 33.1798 61.614C33.3758 61.614 33.6278 61.46 33.8378 61.32C33.9498 61.25 34.0478 61.152 34.1458 61.04C34.2578 60.928 34.3558 60.816 34.4958 60.718C34.6918 60.578 34.9018 60.508 35.1258 60.508C35.3918 60.508 35.6438 60.62 35.8678 60.83C36.3018 61.25 36.3578 61.796 36.0218 62.216L35.9798 62.258C35.2938 63.07 34.5938 63.896 33.1658 63.896L33.0818 63.924ZM57.3158 48.776C57.1758 48.776 56.8958 49.014 56.5178 49.336C55.1598 50.47 53.8018 51.618 52.4438 52.752C50.5538 54.334 48.6078 55.986 46.6758 57.596C46.4518 57.778 46.4518 57.848 46.5918 58.072C47.0958 58.856 47.6138 59.696 48.2298 60.746C48.3138 60.872 48.3558 60.9 48.3558 60.9C48.3558 60.9 48.3978 60.886 48.5238 60.788C49.1818 60.214 49.8678 59.654 50.5258 59.094C53.5638 56.532 56.6998 53.9 59.8218 51.296C59.9058 51.226 59.9898 51.17 60.0878 51.128C60.0038 51.044 59.9618 50.988 59.9058 50.946L58.1138 49.378C57.7218 49 57.4558 48.776 57.3158 48.776ZM40.7118 43.19C42.4618 45.612 44.2538 48.048 45.9898 50.414C46.7178 51.408 47.4318 52.402 48.1598 53.396C48.2858 53.284 48.4118 53.186 48.5238 53.088L48.5378 53.074C47.4878 52.22 47.0678 51.1 47.3058 49.728C45.9618 49.182 45.2198 48.188 45.0938 46.76C44.1418 46.606 43.3578 46.172 42.7838 45.458C42.2378 44.772 41.6078 44.072 40.9358 43.344C40.8938 43.274 40.8098 43.232 40.7118 43.19ZM53.0738 46.998C52.8638 46.998 52.6678 47.082 52.4858 47.236C52.3178 47.39 52.1358 47.558 51.9538 47.712C51.2538 48.342 50.5258 49 49.8398 49.686C49.6718 49.868 49.5318 50.218 49.4898 50.554C49.4618 50.89 49.6578 51.17 50.0638 51.38C50.1618 51.436 50.2458 51.45 50.3158 51.45C50.4838 51.45 50.6378 51.338 50.8338 51.156C51.2678 50.778 51.7158 50.414 52.1358 50.05C52.6538 49.616 53.1998 49.168 53.7178 48.706C53.8578 48.58 53.9698 48.384 54.0818 48.188C54.1098 48.132 54.1518 48.076 54.1798 48.02C54.0958 47.558 53.8998 47.264 53.5358 47.096C53.3818 47.04 53.2278 46.998 53.0738 46.998ZM47.2638 46.634C47.3478 47.082 47.5578 47.376 47.9078 47.558C48.0758 47.642 48.2438 47.684 48.3978 47.684C48.5938 47.684 48.7618 47.614 48.9158 47.488C49.8118 46.69 50.7778 45.836 51.6878 44.926C52.0938 44.52 52.0938 43.918 51.7018 43.512C51.5058 43.302 51.2398 43.19 50.9738 43.19C50.7078 43.19 50.4558 43.288 50.2318 43.498C49.4058 44.24 48.5238 45.052 47.6838 45.892C47.5578 46.018 47.4738 46.2 47.3898 46.382C47.3478 46.466 47.3058 46.55 47.2638 46.634ZM47.2638 40.418C47.7678 41.426 47.8798 42.154 47.4738 42.994C47.9078 42.588 48.3418 42.182 48.7618 41.762C48.9578 41.566 49.0698 41.314 49.0558 41.034C49.0418 40.754 48.9018 40.488 48.6778 40.292C48.4818 40.124 48.2578 40.04 48.0338 40.04C47.7678 40.054 47.5018 40.18 47.2638 40.418ZM44.3658 37.212C44.5758 37.436 44.7718 37.66 44.9818 37.884C45.2338 38.15 45.4858 38.43 45.7378 38.696C46.0318 38.388 46.1998 38.066 46.2138 37.772C46.2138 37.52 46.1158 37.296 45.9058 37.072C45.7098 36.89 45.4858 36.792 45.2478 36.792C44.9538 36.806 44.6458 36.946 44.3658 37.212ZM12.0678 31.696C11.3958 31.696 10.7938 31.892 10.2198 32.312C10.0378 32.438 9.93979 32.564 9.92579 32.662C9.91179 32.746 9.96779 32.844 10.0658 32.97C10.3318 33.278 10.5978 33.586 10.8498 33.894C11.6618 34.86 12.5158 35.854 13.4258 36.736C14.7418 37.996 16.1978 38.626 17.7938 38.626C18.3398 38.626 18.9138 38.542 19.4738 38.402C20.4398 38.15 21.4198 37.828 22.3578 37.534C22.6518 37.436 22.9598 37.338 23.2538 37.254C22.9878 37.072 22.7218 36.89 22.4698 36.708C21.5598 36.078 20.7058 35.49 19.8938 34.79C19.0678 34.09 18.3118 33.264 17.5838 32.48C17.3178 32.186 17.0378 31.892 16.7718 31.598C16.7578 31.598 16.7438 31.612 16.7298 31.626C16.5618 31.71 16.3518 31.822 16.1558 31.906C15.7498 32.088 15.3298 32.172 14.8678 32.172C14.2518 32.172 13.6498 32.018 13.1318 31.864C12.7678 31.752 12.4038 31.696 12.0678 31.696ZM16.1138 27.16C16.5758 27.706 17.0378 28.252 17.4858 28.784C18.3678 29.834 19.2778 30.912 20.1878 31.948C21.1818 33.096 22.4278 34.09 23.9818 34.972C26.6278 36.484 29.5398 37.24 32.6478 37.24C33.4038 37.24 34.1738 37.198 34.9578 37.1C35.1538 37.086 35.3498 37.058 35.5318 37.044C36.4978 36.974 37.4218 36.904 38.0378 36.05C38.0798 35.994 38.1218 35.938 38.1778 35.868C38.2898 35.728 38.3878 35.602 38.4158 35.49C38.6818 34.65 38.9478 33.796 39.1578 32.928C40.3478 28.028 39.7318 23.562 37.3238 19.642C36.6378 18.536 35.7698 17.5 34.9298 16.492C34.5798 16.086 34.2298 15.652 33.8938 15.232C33.5718 14.826 33.2218 14.42 32.8858 14.028C32.7178 13.832 32.5638 13.65 32.3958 13.454C32.3678 13.482 32.3398 13.51 32.3118 13.524C30.6738 14.896 29.0078 16.296 27.3978 17.654C26.5158 18.396 25.6338 19.138 24.7378 19.88C24.2338 20.3 23.7298 20.734 23.2118 21.154C22.3438 21.896 21.4338 22.652 20.5518 23.394C20.2718 23.632 19.9638 23.744 19.6838 23.744C19.3758 23.744 19.0958 23.604 18.8718 23.352C18.4378 22.834 18.5218 22.246 19.1098 21.7C19.1798 21.63 19.2638 21.56 19.3338 21.504C22.4978 18.844 25.6898 16.156 28.7838 13.552C29.7638 12.726 30.8138 11.858 32.1438 10.724C31.9758 10.528 31.4998 9.96801 31.4998 9.96801C27.7758 13.104 24.0518 16.226 20.3418 19.348C17.8638 21.434 15.3858 23.506 12.9078 25.592C13.0198 25.718 13.4398 26.222 13.5378 26.348C13.8178 26.124 14.0838 25.886 14.3498 25.662C14.8398 25.242 15.3438 24.836 15.8338 24.43C16.1278 24.192 16.4498 24.066 16.7438 24.066C17.0658 24.066 17.3458 24.206 17.5558 24.472C17.9618 24.99 17.8498 25.62 17.2758 26.124C16.9678 26.39 16.6738 26.642 16.3658 26.908L16.1138 27.16ZM36.5258 14.98C38.7938 17.514 40.2218 19.88 40.9918 22.358C41.1318 22.092 41.2858 21.812 41.4398 21.546C41.9018 20.692 42.3778 19.824 42.7978 18.942C43.6798 17.108 43.6938 15.246 42.8118 13.426C42.0698 11.886 40.9358 10.598 39.8298 9.33801C39.5638 9.04401 39.2978 8.72201 39.0318 8.41401C38.9478 8.31601 38.8778 8.30201 38.8358 8.30201C38.7378 8.30201 38.5978 8.37201 38.4578 8.49801C37.6878 9.24001 37.3518 10.122 37.4638 11.13C37.6038 12.376 37.6598 13.79 36.5258 14.98ZM31.3458 35.406C30.8418 35.406 30.4358 35.14 30.1418 34.622C29.9738 34.342 29.8058 34.048 29.6378 33.768C29.3718 33.306 29.0918 32.83 28.8258 32.354C28.6718 32.074 28.5318 31.976 28.2518 31.962C27.7338 31.934 27.2018 31.892 26.6978 31.85C26.3618 31.822 26.0118 31.794 25.6758 31.78C25.1438 31.752 24.5558 31.626 24.2898 30.982C23.9958 30.296 24.3878 29.764 24.6958 29.428L24.9618 29.134C25.4658 28.588 25.9978 28.014 26.4598 27.426C26.5438 27.314 26.5998 27.076 26.5718 26.922C26.4598 26.306 26.2918 25.69 26.1518 25.088C26.0818 24.836 26.0258 24.584 25.9698 24.332C25.8438 23.814 25.7878 23.226 26.3478 22.778C26.5718 22.596 26.8378 22.498 27.1038 22.498C27.3978 22.498 27.6778 22.61 27.8878 22.708C28.0558 22.778 28.2238 22.862 28.3918 22.932C29.0358 23.212 29.7078 23.52 30.3798 23.786C30.4218 23.8 30.4918 23.814 30.5618 23.814C30.6878 23.814 30.7858 23.786 30.8278 23.758C31.4298 23.422 32.0178 23.058 32.5778 22.694C32.8018 22.554 33.0258 22.414 33.2498 22.274C33.5298 22.092 33.8098 21.994 34.0618 21.994C34.2998 21.994 34.5378 22.078 34.7198 22.246C34.9438 22.456 35.0698 22.722 35.2098 22.974C35.2658 23.086 35.3218 23.184 35.3778 23.282L35.5318 23.548L35.2518 23.688C35.2238 23.954 35.1958 24.22 35.1678 24.472C35.1118 25.074 35.0418 25.704 34.9718 26.32C34.9438 26.572 34.9858 26.698 35.1678 26.838C35.6018 27.188 36.0358 27.552 36.4558 27.916C36.7358 28.154 37.0298 28.406 37.3098 28.644C37.7858 29.036 37.9818 29.498 37.8698 30.03C37.7018 30.702 37.1698 30.898 36.7778 30.982C36.5118 31.038 36.2458 31.108 35.9798 31.164C35.3638 31.304 34.7198 31.458 34.0898 31.556C33.8238 31.598 33.6978 31.696 33.5998 31.976C33.3758 32.536 33.1518 33.096 32.9278 33.642C32.8158 33.922 32.7038 34.188 32.5918 34.468C32.3538 35.07 31.9618 35.392 31.4298 35.42C31.4018 35.406 31.3738 35.406 31.3458 35.406ZM27.7478 29.694C28.1818 29.736 28.6018 29.764 28.9938 29.778C29.6378 29.806 30.0718 30.072 30.3658 30.604C30.5898 31.024 30.8418 31.444 31.1218 31.892C31.1358 31.92 31.1498 31.948 31.1778 31.976C31.1918 31.934 31.2058 31.892 31.2338 31.85C31.4298 31.402 31.5838 31.01 31.7378 30.604C31.9618 29.946 32.4098 29.554 33.1238 29.442C33.5158 29.372 33.9218 29.288 34.3418 29.19C34.4118 29.176 34.4678 29.162 34.5378 29.148C34.5098 29.134 34.4958 29.106 34.4678 29.092C34.1318 28.798 33.8378 28.546 33.5298 28.322C32.8718 27.846 32.6198 27.216 32.7598 26.362C32.8298 25.984 32.8578 25.606 32.8998 25.186C32.8998 25.158 32.8998 25.144 32.8998 25.116C32.8718 25.13 32.8438 25.144 32.8158 25.172C32.3958 25.424 32.0038 25.662 31.6398 25.914C31.3318 26.124 31.0098 26.236 30.6878 26.236C30.4358 26.236 30.1698 26.166 29.8898 26.04C29.5258 25.858 29.1338 25.69 28.7138 25.522C28.6578 25.494 28.6018 25.466 28.5318 25.452C28.5318 25.466 28.5318 25.466 28.5318 25.48C28.6578 25.984 28.7558 26.418 28.8818 26.852C29.0778 27.538 28.9378 28.112 28.4478 28.616C28.1678 28.896 27.8878 29.218 27.6078 29.54C27.5658 29.596 27.5238 29.638 27.4818 29.694C27.5518 29.68 27.6498 29.68 27.7478 29.694Z" fill="#387EFA"/>
</g>
<defs>
<clipPath id="clip0_48_459">
<rect width="70" height="70" fill="white"/>
</clipPath>
</defs>
</svg>
