<svg width="70" height="70" viewBox="0 0 70 70" fill="none" xmlns="http://www.w3.org/2000/svg">
<g id="customer-satisfaction-02">
<path id="Vector" d="M13.902 62.3839L13.79 62.3279C13.636 62.2579 13.482 62.1739 13.328 62.0759C12.768 61.7119 12.404 61.1519 12.334 60.5079C12.264 59.8359 12.544 59.1639 13.076 58.6459C14.49 57.3159 15.68 55.8599 16.618 54.3199C16.702 54.1799 16.758 54.0679 16.8 53.9979C16.716 53.9139 16.576 53.8019 16.52 53.7599C10.696 49.1539 7.98002 43.1059 8.48402 35.7979C9.04402 27.3559 14.98 20.1039 23.24 17.7519C23.338 17.7239 23.506 17.5979 23.604 17.4439C25.256 14.7979 27.412 12.5859 30.016 10.8919L30.03 10.8779C30.058 10.8639 30.1 10.8359 30.128 10.8219C30.17 10.7939 30.212 10.7659 30.254 10.7379C30.534 10.5839 30.814 10.4999 31.08 10.4999C31.528 10.4999 31.92 10.7099 32.172 11.0879C32.592 11.7319 32.424 12.4599 31.752 12.9779C31.486 13.1739 31.22 13.3699 30.954 13.5659C30.282 14.0559 29.596 14.5739 28.98 15.1199C28.378 15.6939 27.818 16.3099 27.272 16.9679C27.65 16.9539 28.014 16.9399 28.392 16.9399C35.812 16.9399 41.65 19.9779 45.738 25.9839C50.19 32.5219 50.582 39.6479 46.886 47.1939C48.146 48.0619 51.562 49.4199 53.788 49.9659C53.508 49.6719 53.242 49.3639 52.99 49.0419C52.276 48.1319 51.604 47.1939 50.988 46.2279C50.078 44.8139 50.33 43.4139 51.688 42.3639C55.538 39.4379 57.848 35.6859 58.576 31.1919C59.724 24.0799 57.442 18.2839 51.814 13.9719C48.594 11.5079 45.08 10.2479 41.356 10.2479C39.312 10.2479 37.17 10.6259 35 11.3819C34.776 11.4659 34.538 11.5079 34.328 11.5079C33.754 11.5079 33.306 11.1999 33.11 10.6959C32.97 10.3459 32.984 9.98189 33.124 9.67389C33.236 9.42189 33.502 9.08589 34.104 8.86189C36.344 8.02189 38.696 7.58789 41.104 7.58789C45.696 7.58789 50.232 9.16989 53.872 12.0539C57.624 15.0079 60.186 19.1799 61.096 23.7859C62.734 32.0459 60.158 38.9899 53.466 44.4079C53.41 44.4499 53.27 44.5759 53.186 44.6459C53.214 44.7159 53.284 44.8279 53.368 44.9679C54.32 46.5359 55.482 47.9499 56.812 49.1679C57.19 49.5039 57.68 50.0359 57.61 50.8199C57.61 51.3939 57.414 51.9399 57.022 52.3319C56.63 52.7379 56.084 52.9619 55.496 52.9619C55.356 52.9619 55.23 52.9479 55.09 52.9199C51.45 52.2619 48.272 51.0999 45.402 49.3919C45.374 49.4339 45.346 49.4619 45.318 49.5039C45.192 49.6719 45.052 49.8539 44.912 50.0219C43.792 51.4639 42.462 52.7519 40.95 53.8719C40.586 54.1519 40.222 54.2779 39.858 54.2779C39.438 54.2779 39.074 54.0819 38.822 53.7179C38.64 53.4659 38.164 52.5699 39.326 51.7159C43.288 48.7339 45.64 44.8559 46.34 40.1799C47.306 33.8099 45.346 28.3779 40.544 24.0519C37.268 21.0979 33.348 19.5999 28.882 19.5999C28.322 19.5999 27.762 19.6279 27.188 19.6699C19.642 20.2859 13.062 26.0539 11.536 33.3899C10.024 40.6699 12.25 46.7879 18.172 51.5759C19.628 52.7379 19.866 54.0119 18.928 55.5799C18.144 56.8819 17.22 58.0999 16.184 59.2199C19.39 58.4219 22.05 57.2459 24.332 55.6359C24.934 55.2159 25.606 54.9919 26.348 54.9919C26.488 54.9919 26.642 55.0059 26.796 55.0199C27.51 55.1039 28.21 55.1459 28.91 55.1459C31.346 55.1459 33.754 54.6419 36.036 53.6339C36.302 53.5079 36.568 53.4519 36.806 53.4519C37.352 53.4519 37.8 53.7599 38.01 54.2779C38.234 54.8659 38.122 55.6499 37.114 56.0839C34.496 57.2459 31.71 57.8339 28.84 57.8339C28.14 57.8339 27.426 57.8059 26.712 57.7359C26.642 57.7219 26.586 57.7219 26.516 57.7219C26.25 57.7219 26.012 57.7779 25.886 57.8619C22.806 59.9619 19.334 61.3759 15.26 62.1879C15.232 62.2019 15.19 62.2159 15.134 62.2439L14.952 62.3279H13.902V62.3839ZM29.106 51.3379C28.938 51.3379 28.77 51.3379 28.616 51.3239C22.848 51.0999 18.69 48.3419 16.212 43.1199C15.778 42.2239 15.792 41.2859 16.254 40.5579C16.716 39.8299 17.57 39.4099 18.592 39.4099H28.938C30.072 39.4099 31.22 39.4099 32.354 39.4099C33.502 39.4099 34.636 39.4099 35.784 39.4099C36.932 39.4099 38.066 39.4099 39.2 39.4099C40.054 39.4099 40.782 39.7179 41.272 40.2639C41.72 40.7679 41.93 41.4539 41.846 42.1959C41.818 42.4619 41.734 42.7279 41.594 43.0639C39.452 48.0899 34.552 51.3379 29.106 51.3379ZM18.676 42.0979C18.69 42.1259 18.704 42.1539 18.718 42.1959C20.804 46.4519 24.22 48.6219 28.854 48.6219C33.516 48.6219 36.932 46.4519 39.032 42.1539C39.046 42.1259 39.046 42.1119 39.06 42.0979C39.032 42.0979 39.018 42.0979 38.99 42.0979H18.774C18.746 42.0979 18.704 42.0979 18.676 42.0979ZM32.186 34.3139C32.13 34.3139 32.074 34.3139 32.018 34.2999C31.668 34.2579 31.36 34.1039 31.15 33.8379C30.884 33.5019 30.786 32.9979 30.856 32.3679C31.178 29.8759 33.25 27.9999 35.7 27.9999C35.784 27.9999 35.882 27.9999 35.966 28.0139C38.584 28.1539 40.656 30.2399 40.712 32.7459C40.712 33.6419 40.25 34.2299 39.494 34.2999C39.452 34.2999 39.41 34.2999 39.368 34.2999C38.654 34.2999 38.108 33.7259 38.024 32.8859C37.926 31.6259 37.03 30.7439 35.812 30.7019C35.784 30.7019 35.756 30.7019 35.728 30.7019C34.594 30.7019 33.67 31.5559 33.502 32.7739C33.334 34.0479 32.69 34.3139 32.186 34.3139ZM25.606 34.3139C25.032 34.3139 24.388 33.9359 24.29 32.8579C24.178 31.6119 23.226 30.7019 22.036 30.7019H22.008C20.79 30.7019 19.838 31.6119 19.754 32.8719C19.698 33.7399 19.18 34.2999 18.438 34.2999C18.396 34.2999 18.34 34.2999 18.284 34.2859C17.5 34.2299 17.01 33.5999 17.052 32.6759C17.164 30.1139 19.376 28.0139 21.994 27.9999C24.626 27.9999 26.81 30.0439 26.964 32.6619C27.006 33.5999 26.488 34.2579 25.676 34.2999C25.662 34.3139 25.634 34.3139 25.606 34.3139Z" fill="#387EFA"/>
</g>
</svg>
