<svg width="44" height="44" viewBox="0 0 44 44" fill="none" xmlns="http://www.w3.org/2000/svg">
<rect width="44" height="44" rx="5" fill="#FF4F4F" fill-opacity="0.2"/>
<path d="M27.0749 15.4099L30.6764 19.1102C30.7127 19.1474 30.7415 19.1916 30.7611 19.2402C30.7807 19.2889 30.7908 19.341 30.7908 19.3937C30.7908 19.4464 30.7807 19.4985 30.7611 19.5472C30.7415 19.5958 30.7127 19.64 30.6764 19.6773L21.9564 28.6353L18.2509 29.0578C18.135 29.0712 18.0177 29.0576 17.9076 29.018C17.7976 28.9784 17.6976 28.9139 17.6152 28.8292C17.5327 28.7444 17.4699 28.6417 17.4314 28.5287C17.3928 28.4156 17.3796 28.295 17.3926 28.176L17.8075 24.3689L26.5275 15.4099C26.6005 15.3361 26.6988 15.2947 26.8012 15.2947C26.9036 15.2947 27.0019 15.3361 27.0749 15.4099V15.4099ZM33.5429 14.4705L31.5945 12.4686C31.3014 12.1685 30.9044 12 30.4906 12C30.0768 12 29.6798 12.1685 29.3867 12.4686L27.9774 13.9204C27.9411 13.9576 27.9123 14.0018 27.8927 14.0505C27.873 14.0991 27.8629 14.1513 27.8629 14.2039C27.8629 14.2566 27.873 14.3087 27.8927 14.3574C27.9123 14.406 27.9411 14.4502 27.9774 14.4875L31.5789 18.1868C31.6151 18.224 31.6581 18.2536 31.7055 18.2738C31.7528 18.2939 31.8036 18.3043 31.8549 18.3043C31.9061 18.3043 31.9569 18.2939 32.0042 18.2738C32.0516 18.2536 32.0946 18.224 32.1308 18.1868L33.5439 16.735C33.836 16.4339 34 16.026 34 15.6008C34 15.1757 33.836 14.7678 33.5439 14.4667L33.5429 14.4705ZM26.3325 26.1987V30.3744H13.5556V17.2473H22.731C22.8579 17.2463 22.9796 17.1948 23.0704 17.1036L24.6674 15.4629C24.7347 15.394 24.7805 15.3061 24.7991 15.2105C24.8177 15.1148 24.8082 15.0156 24.7718 14.9255C24.7355 14.8354 24.6739 14.7584 24.5948 14.7043C24.5158 14.6502 24.4229 14.6215 24.328 14.6217H12.9162C12.4079 14.6219 11.9205 14.8296 11.5612 15.1989C11.2019 15.5683 11 16.0691 11 16.5914V31.0313C11.0002 31.5533 11.2022 32.0539 11.5615 32.4231C11.9208 32.7922 12.4081 32.9998 12.9162 33H26.9709C27.4791 32.9998 27.9663 32.7922 28.3256 32.4231C28.685 32.0539 28.8869 31.5533 28.8872 31.0313V24.558C28.8869 24.4606 28.8587 24.3655 28.806 24.2846C28.7532 24.2037 28.6784 24.1407 28.5909 24.1034C28.5033 24.0661 28.407 24.0562 28.3141 24.0751C28.2211 24.0939 28.1356 24.1406 28.0684 24.2092L26.4714 25.85C26.383 25.9435 26.3333 26.0684 26.3325 26.1987V26.1987Z" fill="#FF4F4F"/>
</svg>
