<svg width="44" height="44" viewBox="0 0 44 44" fill="none" xmlns="http://www.w3.org/2000/svg">
<rect width="44" height="44" rx="5" fill="#4847D1" fill-opacity="0.2"/>
<path d="M31.4058 23.3749H22.6828L28.4921 30.1653C28.5985 30.2922 28.7428 30.3662 28.8948 30.3717C29.0468 30.3772 29.1947 30.3138 29.3077 30.1948C30.7663 28.5931 31.7145 26.4583 31.9962 24.1423C32.0057 24.0454 31.9974 23.9472 31.972 23.8543C31.9466 23.7613 31.9046 23.6758 31.8488 23.6032C31.793 23.5307 31.7246 23.4728 31.6483 23.4335C31.5719 23.3941 31.4892 23.3742 31.4058 23.3749ZM30.8241 20.5901C30.675 18.1043 29.7628 15.7651 28.2554 14.0031C26.748 12.2411 24.7468 11.1748 22.6202 11.0006C22.5402 10.9967 22.4603 11.0119 22.3855 11.0452C22.3106 11.0786 22.2423 11.1293 22.1847 11.1944C22.1272 11.2595 22.0815 11.3376 22.0506 11.424C22.0196 11.5104 22.004 11.6032 22.0046 11.6968V21.3117H30.2311C30.3111 21.3121 30.3904 21.2934 30.4641 21.2569C30.5378 21.2204 30.6044 21.1668 30.6598 21.0993C30.7152 21.0319 30.7584 20.9519 30.7866 20.8644C30.8149 20.7769 30.8276 20.6835 30.8241 20.5901ZM20.2378 23.3749V13.1787C20.2384 13.0812 20.2214 12.9847 20.1878 12.8955C20.1541 12.8063 20.1047 12.7265 20.0428 12.6612C19.9808 12.596 19.9077 12.5469 19.8283 12.5171C19.7489 12.4874 19.665 12.4776 19.5822 12.4886C17.4269 12.8449 15.4605 14.1205 14.0617 16.07C12.6628 18.0194 11.9303 20.5048 12.0052 23.0477C12.1126 25.7313 13.101 28.2633 14.7647 30.1169C16.4283 31.9706 18.6393 33.0032 20.9377 33C22.7216 32.9761 24.4566 32.3158 25.9105 31.1075C25.9778 31.0484 26.0335 30.9729 26.0735 30.8862C26.1136 30.7996 26.1372 30.7039 26.1426 30.6056C26.1481 30.5073 26.1353 30.4088 26.1051 30.3169C26.0749 30.2249 26.0281 30.1417 25.9679 30.0728L20.2378 23.3749Z" fill="#4847D1"/>
</svg>
