<svg width="44" height="44" viewBox="0 0 44 44" fill="none" xmlns="http://www.w3.org/2000/svg">
<rect width="44" height="44" rx="5" fill="#9F57FE" fill-opacity="0.2"/>
<path d="M19.0935 30.5225C19.0939 30.7927 19.1732 31.0574 19.3219 31.2826L20.0501 32.3864C20.1746 32.5751 20.3433 32.7299 20.5414 32.8369C20.7394 32.944 20.9606 33 21.1854 33H23.8151C24.0398 33 24.261 32.944 24.4591 32.8369C24.6571 32.7299 24.8259 32.5751 24.9503 32.3864L25.6786 31.2826C25.8272 31.0574 25.9067 30.793 25.907 30.5225L25.9087 28.8747H19.0913L19.0935 30.5225ZM15 18.5624C15 20.4689 15.701 22.2082 16.8563 23.5372C17.5602 24.3471 18.6614 26.0392 19.0811 27.4666C19.0828 27.4778 19.0841 27.4889 19.0858 27.5001H25.9142C25.9159 27.4889 25.9172 27.4782 25.9189 27.4666C26.3386 26.0392 27.4398 24.3471 28.1438 23.5372C29.299 22.2082 30 20.4689 30 18.5624C30 14.3777 26.6297 10.9871 22.4766 11C18.1295 11.0134 15 14.5651 15 18.5624ZM22.5 15.1249C20.6203 15.1249 19.0909 16.6671 19.0909 18.5624C19.0909 18.9422 18.7858 19.2499 18.4091 19.2499C18.0324 19.2499 17.7273 18.9422 17.7273 18.5624C17.7273 15.9087 19.8682 13.75 22.5 13.75C22.8767 13.75 23.1818 14.0576 23.1818 14.4375C23.1818 14.8173 22.8767 15.1249 22.5 15.1249Z" fill="#9F57FE"/>
</svg>
