<svg width="44" height="44" viewBox="0 0 44 44" fill="none" xmlns="http://www.w3.org/2000/svg">
<rect width="44" height="44" rx="5" fill="#FE5BCE" fill-opacity="0.2"/>
<path d="M22.5 11C21.1209 10.9991 19.7552 11.3237 18.4809 11.9551C17.2067 12.5866 16.0489 13.5125 15.0737 14.6801C14.0985 15.8476 13.3251 17.2338 12.7977 18.7595C12.2703 20.2851 11.9992 21.9203 12 23.5714V25.9291C12 26.221 12.0678 26.5071 12.1959 26.7554C12.3241 27.0037 12.5074 27.2043 12.7255 27.3349L13.3154 27.688C13.356 29.1134 13.8575 30.4642 14.7141 31.4553C15.5708 32.4464 16.7155 33.0002 17.9067 33H18.8909C19.1519 33 19.4022 32.8759 19.5868 32.6549C19.7713 32.4339 19.875 32.1342 19.875 31.8217V23.1783C19.875 22.8658 19.7713 22.5661 19.5868 22.3451C19.4022 22.1241 19.1519 22 18.8909 22H17.9067C17.2954 21.9992 16.69 22.1449 16.1264 22.4285C15.5628 22.7121 15.0523 23.1279 14.625 23.6514V23.5714C14.625 21.0708 15.4547 18.6726 16.9315 16.9044C18.4084 15.1362 20.4114 14.1429 22.5 14.1429C24.5886 14.1429 26.5916 15.1362 28.0685 16.9044C29.5453 18.6726 30.375 21.0708 30.375 23.5714V23.6514C29.9477 23.1279 29.4372 22.7121 28.8736 22.4285C28.31 22.1449 27.7046 21.9992 27.0933 22H26.1091C25.9799 22 25.8519 22.0305 25.7325 22.0897C25.6131 22.1489 25.5046 22.2357 25.4132 22.3451C25.3219 22.4545 25.2494 22.5844 25.1999 22.7274C25.1505 22.8703 25.125 23.0236 25.125 23.1783V31.8206C25.125 31.9753 25.1505 32.1285 25.1999 32.2715C25.2494 32.4144 25.3219 32.5443 25.4132 32.6537C25.5046 32.7632 25.6131 32.85 25.7325 32.9092C25.8519 32.9684 25.9799 32.9989 26.1091 32.9989H27.0933C28.2847 32.9991 29.4295 32.4451 30.2862 31.4537C31.1428 30.4624 31.6443 29.1113 31.6846 27.6857L32.2745 27.3326C32.4926 27.202 32.6759 27.0014 32.8041 26.7531C32.9322 26.5048 33 26.2187 33 25.9269V23.5714C33.0007 21.9203 32.7297 20.2851 32.2023 18.7595C31.6749 17.2338 30.9015 15.8476 29.9263 14.6801C28.9511 13.5125 27.7933 12.5866 26.5191 11.9551C25.2448 11.3237 23.8791 10.9991 22.5 11Z" fill="#FE5BCE"/>
</svg>
