<svg width="90" height="90" viewBox="0 0 90 90" fill="none" xmlns="http://www.w3.org/2000/svg">
<g id="Google+">
<path id="Rectangle 59" d="M87 0H3C1.34315 0 0 1.34315 0 3V87C0 88.6569 1.34315 90 3 90H87C88.6569 90 90 88.6569 90 87V3C90 1.34315 88.6569 0 87 0Z" fill="#DD4B39"/>
<path id="google-plus-g" d="M49.0479 43.8351C49.1606 44.4001 49.2172 44.9749 49.2169 45.5511C49.2169 51.4461 45.2639 55.6241 39.3169 55.6241C37.9541 55.6375 36.6021 55.3806 35.3392 54.8684C34.0763 54.3562 32.9274 53.5987 31.9589 52.6398C30.9905 51.6808 30.2218 50.5394 29.6971 49.2816C29.1725 48.0238 28.9023 46.6744 28.9023 45.3116C28.9023 43.9487 29.1725 42.5993 29.6971 41.3415C30.2218 40.0837 30.9905 38.9423 31.9589 37.9833C32.9274 37.0244 34.0763 36.2669 35.3392 35.7547C36.6021 35.2425 37.9541 34.9856 39.3169 34.9991C41.8834 34.9646 44.362 35.9334 46.2249 37.6991L43.4249 40.3861C42.3185 39.3355 40.8422 38.7641 39.3169 38.7961C37.609 38.826 35.9813 39.5254 34.7841 40.7438C33.5869 41.9621 32.916 43.6019 32.916 45.3101C32.916 47.0182 33.5869 48.658 34.7841 49.8763C35.9813 51.0947 37.609 51.7941 39.3169 51.8241C40.6653 51.9164 42.0014 51.5168 43.0776 50.6993C44.1539 49.8818 44.8972 48.7018 45.1699 47.3781H39.3129V43.8351H49.0489H49.0479ZM59.0059 44.1811V41.1881H55.9999V44.1811H53.0049V47.1891H55.9999V50.1821H59.0079V47.1891H61.9999V44.1811H59.0059Z" fill="white"/>
</g>
</svg>
