<svg width="90" height="90" viewBox="0 0 90 90" fill="none" xmlns="http://www.w3.org/2000/svg">
<g id="Twtter">
<path id="Rectangle 58" d="M87 0H3C1.34315 0 0 1.34315 0 3V87C0 88.6569 1.34315 90 3 90H87C88.6569 90 90 88.6569 90 87V3C90 1.34315 88.6569 0 87 0Z" fill="#00ACED"/>
<path id="twitter" d="M55.327 40.234C55.344 40.464 55.344 40.693 55.344 40.923C55.3526 42.9124 54.9657 44.8837 54.2057 46.7223C53.4458 48.5609 52.3281 50.2301 50.9174 51.6329C49.5067 53.0358 47.8313 54.1443 45.9886 54.894C44.1458 55.6436 42.1724 56.0196 40.183 56C37.2833 56.0071 34.4428 55.1802 32 53.618C32.4274 53.6649 32.8571 53.687 33.287 53.684C35.6827 53.6895 38.0112 52.8917 39.9 51.418C38.7915 51.3995 37.7163 51.0362 36.8238 50.3785C35.9313 49.7207 35.2659 48.8013 34.92 47.748C35.2528 47.8003 35.5891 47.8278 35.926 47.83C36.3983 47.8286 36.8687 47.7681 37.326 47.65C36.1224 47.4109 35.0388 46.7621 34.2597 45.814C33.4807 44.8659 33.0542 43.6771 33.053 42.45V42.384C33.7921 42.7941 34.6173 43.0247 35.462 43.057C34.3318 42.3114 33.5307 41.1607 33.2238 39.842C32.9168 38.5233 33.1273 37.1371 33.812 35.969C35.1543 37.6102 36.8255 38.9519 38.7181 39.9077C40.6106 40.8634 42.6825 41.412 44.8 41.518C44.7145 41.1189 44.6702 40.7121 44.668 40.304C44.6761 39.2383 45.0029 38.1995 45.6063 37.3211C46.2097 36.4427 47.0621 35.7649 48.0538 35.375C49.0456 34.985 50.1313 34.9007 51.1714 35.1329C52.2115 35.3652 53.1583 35.9032 53.89 36.678C55.0827 36.4496 56.2269 36.0165 57.272 35.398C56.873 36.6244 56.0398 37.6628 54.929 38.318C55.9879 38.1974 57.0229 37.9196 58 37.494C57.2695 38.5512 56.3658 39.4775 55.327 40.234V40.234Z" fill="white"/>
</g>
</svg>
