<svg width="90" height="90" viewBox="0 0 90 90" fill="none" xmlns="http://www.w3.org/2000/svg">
<g id="Vimeo">
<path id="Rectangle 61" d="M87 0H3C1.34315 0 0 1.34315 0 3V87C0 88.6569 1.34315 90 3 90H87C88.6569 90 90 88.6569 90 87V3C90 1.34315 88.6569 0 87 0Z" fill="#AAD450"/>
<path id="vimeo-v" d="M56.989 39.594C56.8863 41.8327 55.3223 44.8977 52.297 48.789C49.1703 52.8557 46.5247 54.889 44.36 54.889C43.02 54.889 41.8867 53.6517 40.96 51.177C39.149 44.543 38.379 40.656 36.885 40.656C36.2326 40.926 35.6237 41.2909 35.078 41.739L34 40.343C36.649 38.017 39.18 35.43 40.766 35.286C42.558 35.1113 43.66 36.335 44.072 38.957C45.545 48.275 46.197 49.682 48.877 45.457C49.6331 44.4229 50.1614 43.2402 50.427 41.987C50.673 39.631 48.589 39.787 47.177 40.396C48.3063 36.6947 50.466 34.8947 53.656 34.996C56.009 35.066 57.123 36.601 56.989 39.594Z" fill="white"/>
</g>
</svg>
