<svg width="90" height="90" viewBox="0 0 90 90" fill="none" xmlns="http://www.w3.org/2000/svg">
<g id="Linkedin">
<path id="Rectangle 62" d="M87 0H3C1.34315 0 0 1.34315 0 3V87C0 88.6569 1.34315 90 3 90H87C88.6569 90 90 88.6569 90 87V3C90 1.34315 88.6569 0 87 0Z" fill="#007BB5"/>
<path id="linkedin-in" d="M39.1476 56.999H34.3796V41.644H39.1476V56.999ZM36.7616 39.549C36.2127 39.5518 35.6753 39.3917 35.2174 39.089C34.7595 38.7862 34.4016 38.3545 34.1891 37.8484C33.9766 37.3423 33.9189 36.7845 34.0234 36.2456C34.1279 35.7068 34.3899 35.211 34.7763 34.821C35.1626 34.4311 35.6559 34.1644 36.1938 34.0549C36.7317 33.9453 37.2899 33.9977 37.798 34.2055C38.3061 34.4133 38.7412 34.7671 39.0481 35.2221C39.3551 35.6772 39.5203 36.2131 39.5226 36.762C39.5232 37.4968 39.2333 38.2021 38.7161 38.7241C38.199 39.2462 37.4964 39.5427 36.7616 39.549V39.549ZM56.9946 56.999H52.2366V49.524C52.2366 47.743 52.2006 45.458 49.7576 45.458C47.2786 45.458 46.8986 47.393 46.8986 49.396V56.996H42.1346V41.644H46.7076V43.739H46.7746C47.2319 42.956 47.8931 42.3118 48.6877 41.875C49.4823 41.4383 50.3805 41.2254 51.2866 41.259C56.1126 41.259 56.9996 44.437 56.9996 48.565V57L56.9946 56.999Z" fill="white"/>
</g>
</svg>
