<svg width="90" height="90" viewBox="0 0 90 90" fill="none" xmlns="http://www.w3.org/2000/svg">
<g id="Dribbble">
<path id="Rectangle 60" d="M87 0H3C1.34315 0 0 1.34315 0 3V87C0 88.6569 1.34315 90 3 90H87C88.6569 90 90 88.6569 90 87V3C90 1.34315 88.6569 0 87 0Z" fill="#FF0084"/>
<path id="dribbble" d="M45 32C42.4288 32 39.9154 32.7624 37.7776 34.1909C35.6398 35.6194 33.9735 37.6497 32.9896 40.0251C32.0056 42.4006 31.7482 45.0144 32.2498 47.5362C32.7514 50.0579 33.9895 52.3743 35.8076 54.1924C37.6257 56.0105 39.9421 57.2486 42.4638 57.7502C44.9856 58.2518 47.5995 57.9944 49.9749 57.0104C52.3503 56.0265 54.3807 54.3603 55.8091 52.2224C57.2376 50.0846 58 47.5712 58 45C57.996 41.5534 56.6251 38.2491 54.188 35.812C51.7509 33.3749 48.4466 32.004 45 32V32ZM53.6 37.995C55.1987 39.9476 56.0809 42.3885 56.1 44.912C53.555 44.4071 50.9487 44.2868 48.368 44.555C48.068 43.819 47.782 43.171 47.392 42.374C49.8043 41.4788 51.9413 39.9698 53.592 37.996L53.6 37.995ZM52.366 36.711C50.8509 38.5785 48.8305 39.9709 46.546 40.722C45.3075 38.4677 43.9236 36.2965 42.403 34.222C44.1405 33.8025 45.9537 33.8098 47.6878 34.2432C49.4218 34.6767 51.0252 35.5234 52.361 36.711H52.366ZM40.279 34.968C41.767 37.0331 43.1427 39.1769 44.4 41.39C41.0484 42.2686 37.5998 42.7231 34.135 42.743C34.4901 41.061 35.2295 39.4839 36.2953 38.1351C37.3612 36.7863 38.7246 35.7023 40.279 34.968V34.968ZM33.9 45.017C33.9 44.903 33.9 44.79 33.906 44.678C37.764 44.6919 41.6046 44.1606 45.314 43.1C45.632 43.722 45.936 44.354 46.214 44.984C42.2633 46.2482 38.9026 48.8976 36.751 52.444C34.9123 50.4077 33.8962 47.7606 33.9 45.017V45.017ZM38.188 53.777C39.348 51.406 42.496 48.345 46.972 46.818C48.0265 49.5437 48.8197 52.3633 49.341 55.239C47.5202 56.0137 45.5251 56.2867 43.5631 56.0296C41.6011 55.7725 39.7438 54.9947 38.184 53.777H38.188ZM51.208 54.222C50.7156 51.5244 49.9927 48.874 49.047 46.3C51.3601 45.9605 53.7191 46.1225 55.964 46.775C55.7211 48.276 55.173 49.7113 54.3536 50.9921C53.5342 52.273 52.4609 53.3722 51.2 54.222H51.208Z" fill="white"/>
</g>
</svg>
