<svg width="90" height="90" viewBox="0 0 90 90" fill="none" xmlns="http://www.w3.org/2000/svg">
<g id="Facebook">
<path id="Rectangle 57" d="M87 0H3C1.34315 0 0 1.34315 0 3V87C0 88.6569 1.34315 90 3 90H87C88.6569 90 90 88.6569 90 87V3C90 1.34315 88.6569 0 87 0Z" fill="#3B5998"/>
<path id="facebook-f" d="M51.01 46.625L51.732 41.92H47.22V38.866C47.1886 38.5146 47.2366 38.1606 47.3605 37.8303C47.4844 37.4999 47.681 37.2017 47.9358 36.9576C48.1905 36.7135 48.4969 36.5298 48.8322 36.4202C49.1675 36.3105 49.5233 36.2776 49.873 36.324H51.926V32.318C50.7207 32.1233 49.5028 32.017 48.282 32C44.564 32 42.133 34.254 42.133 38.333V41.92H38V46.625H42.133V58H47.22V46.625H51.01Z" fill="white"/>
</g>
</svg>
