<svg width="95" height="15" viewBox="0 0 95 15" fill="none" xmlns="http://www.w3.org/2000/svg">
<g id="Social_Icon">
<path id="Facebook-f Icon" d="M8.41 8.438L8.877 5.723H5.959V3.961C5.959 3.218 6.367 2.494 7.674 2.494H9V0.183C8.21983 0.0706973 7.43315 0.00956673 6.645 0C4.245 0 2.671 1.3 2.671 3.654V5.723H0V8.438H2.671V15H5.959V8.438H8.41Z" fill="#707070"/>
<path id="Instagram Icon" d="M30.5008 4.16699C29.8415 4.1668 29.197 4.36211 28.6488 4.72822C28.1005 5.09433 27.6732 5.61481 27.4207 6.22382C27.1683 6.83283 27.1022 7.50301 27.2307 8.14962C27.3592 8.79622 27.6765 9.3902 28.1426 9.85643C28.6087 10.3227 29.2026 10.6402 29.8491 10.7689C30.4957 10.8976 31.1659 10.8316 31.775 10.5794C32.3841 10.3271 32.9047 9.89994 33.271 9.35181C33.6372 8.80368 33.8328 8.15924 33.8328 7.49999C33.8335 7.06216 33.7479 6.62848 33.5807 6.22381C33.4136 5.81914 33.1682 5.45144 32.8587 5.1418C32.5491 4.83216 32.1815 4.58666 31.7769 4.41938C31.3722 4.2521 30.9386 4.16634 30.5008 4.16699V4.16699ZM30.5008 9.66699C30.0721 9.66719 29.653 9.54027 29.2966 9.30227C28.9401 9.06428 28.6622 8.72591 28.498 8.32996C28.3338 7.93401 28.2908 7.49827 28.3743 7.07785C28.4578 6.65742 28.6641 6.27121 28.9671 5.96805C29.2701 5.66489 29.6562 5.4584 30.0766 5.3747C30.497 5.29101 30.9328 5.33387 31.3288 5.49785C31.7248 5.66184 32.0633 5.93959 32.3015 6.29597C32.5396 6.65235 32.6667 7.07136 32.6667 7.49999C32.6657 8.07422 32.4372 8.62464 32.0312 9.03078C31.6253 9.43691 31.075 9.66567 30.5008 9.66699ZM34.7467 4.03099C34.7467 4.18467 34.7012 4.33489 34.6158 4.46267C34.5304 4.59045 34.4091 4.69004 34.2671 4.74885C34.1251 4.80766 33.9689 4.82304 33.8182 4.79306C33.6674 4.76308 33.529 4.68908 33.4203 4.58042C33.3117 4.47175 33.2377 4.3333 33.2077 4.18258C33.1777 4.03185 33.1931 3.87563 33.2519 3.73365C33.3107 3.59167 33.4103 3.47032 33.5381 3.38494C33.6658 3.29957 33.8161 3.25399 33.9698 3.25399C34.0718 3.25386 34.1729 3.27387 34.2673 3.31287C34.3616 3.35187 34.4473 3.4091 34.5195 3.48128C34.5916 3.55346 34.6489 3.63916 34.6879 3.73349C34.7269 3.82782 34.7469 3.92892 34.7467 4.03099ZM36.9537 4.81999C36.9751 3.80932 36.598 2.83082 35.9038 2.096C35.1678 1.40414 34.1906 1.02733 33.1807 1.04599C32.1077 0.984994 28.8917 0.984994 27.8187 1.04599C26.8092 1.02599 25.8319 1.40177 25.0957 2.09299C24.4026 2.82852 24.0256 3.80655 24.0457 4.81699C23.9847 5.88999 23.9847 9.10699 24.0457 10.181C24.0244 11.1917 24.4015 12.1702 25.0957 12.905C25.832 13.5964 26.8089 13.9731 27.8187 13.955C28.8917 14.016 32.1077 14.016 33.1807 13.955C34.1911 13.9763 35.1693 13.5992 35.9038 12.905C36.5957 12.1687 36.9725 11.1912 36.9537 10.181C37.0147 9.10699 37.0147 5.89299 36.9537 4.81999V4.81999ZM35.5677 11.332C35.4575 11.6116 35.291 11.8656 35.0786 12.0782C34.8662 12.2909 34.6123 12.4576 34.3328 12.568C33.0733 12.8266 31.7847 12.9144 30.5017 12.829C29.2202 12.9127 27.9331 12.8249 26.6747 12.568C26.3943 12.4581 26.1395 12.2917 25.9261 12.079C25.7128 11.8664 25.5455 11.6121 25.4347 11.332C25.1765 10.0721 25.0891 8.78321 25.1747 7.49999C25.0907 6.21674 25.1785 4.92801 25.4357 3.66799C25.5464 3.38798 25.7135 3.13375 25.9267 2.92111C26.1398 2.70847 26.3945 2.54198 26.6747 2.43199C27.9328 2.1752 29.2197 2.08876 30.5008 2.17499C31.7837 2.09096 33.0721 2.17874 34.3317 2.436C34.6113 2.54644 34.8652 2.71313 35.0776 2.92575C35.29 3.13837 35.4565 3.39237 35.5667 3.672C35.8253 4.93183 35.9131 6.22073 35.8278 7.50399C35.9132 8.78588 35.8257 10.0734 35.5677 11.332V11.332Z" fill="#707070"/>
<path id="Twitter Icon" d="M65.458 4.23997C65.468 4.38197 65.468 4.52398 65.468 4.66698C65.468 9.00398 62.375 14.001 56.721 14.001C55.0341 14.0008 53.3873 13.4866 52 12.527C52.2462 12.5561 52.4941 12.5698 52.742 12.568C54.1398 12.5669 55.492 12.0709 56.559 11.168C55.9008 11.1417 55.268 10.9073 54.7515 10.4985C54.2351 10.0897 53.8616 9.52753 53.685 8.89297C53.877 8.92549 54.0713 8.94255 54.266 8.94398C54.5395 8.94297 54.8116 8.9053 55.075 8.83198C54.3586 8.65664 53.7237 8.24178 53.2753 7.65615C52.827 7.07053 52.5923 6.34929 52.61 5.61198V5.57098C53.0315 5.82316 53.5093 5.96615 54 5.98698C53.5704 5.67363 53.2218 5.26228 52.9832 4.78711C52.7446 4.31194 52.6228 3.78668 52.628 3.25498C52.6257 2.67678 52.7698 2.10742 53.047 1.59998C53.7908 2.59829 54.7432 3.42255 55.838 4.01542C56.9327 4.60829 58.1435 4.95553 59.386 5.03298C59.3366 4.78532 59.3112 4.5335 59.31 4.28098C59.2833 3.43855 59.592 2.61997 60.1684 2.00499C60.7448 1.39001 61.5416 1.0289 62.384 1.00098C62.8107 1.00285 63.232 1.09631 63.6195 1.27504C64.007 1.45377 64.3516 1.7136 64.63 2.03698C65.323 1.89364 65.9842 1.62526 66.581 1.24498C66.3615 1.99016 65.8817 2.63175 65.229 3.05297C65.8425 2.97775 66.4402 2.80596 67 2.54398C66.5846 3.1917 66.0634 3.76501 65.458 4.23997V4.23997Z" fill="#707070"/>
<path id="Linkedin-In Icon" d="M84.9098 15H82.2148V4.99H84.9148L84.9098 15ZM83.5608 3.619C83.1144 3.5807 82.7009 3.36882 82.409 3.02888C82.1171 2.68894 81.9702 2.24807 81.9998 1.801C81.9704 1.35571 82.1178 0.916775 82.4101 0.579552C82.7023 0.242328 83.1159 0.0340617 83.5608 0C84.0056 0.034065 84.419 0.242191 84.7113 0.579195C85.0035 0.916199 85.1511 1.35488 85.1218 1.8C85.1518 2.24724 85.005 2.68837 84.7131 3.02852C84.4212 3.36868 84.0075 3.5807 83.5608 3.619V3.619ZM94.9998 15H92.3078V10.125C92.3078 8.963 92.2878 7.473 90.9078 7.473C89.5078 7.473 89.2918 8.735 89.2918 10.041V15H86.5998V4.99H89.1828V6.351H89.2208C89.4458 5.86514 89.8059 5.4543 90.2581 5.16757C90.7103 4.88083 91.2354 4.73032 91.7708 4.734C94.4998 4.734 94.9998 6.807 94.9998 9.499V14.999V15Z" fill="#707070"/>
</g>
</svg>
