<svg width="606" height="498" viewBox="0 0 606 498" fill="none" xmlns="http://www.w3.org/2000/svg">
<path d="M2.5 5C3.88071 5 5 3.88071 5 2.5C5 1.11929 3.88071 0 2.5 0C1.11929 0 0 1.11929 0 2.5C0 3.88071 1.11929 5 2.5 5Z" fill="#FF4F4F"/>
<path d="M17.5 5C18.8807 5 20 3.88071 20 2.5C20 1.11929 18.8807 0 17.5 0C16.1193 0 15 1.11929 15 2.5C15 3.88071 16.1193 5 17.5 5Z" fill="#FF4F4F"/>
<path d="M32.5 5C33.8807 5 35 3.88071 35 2.5C35 1.11929 33.8807 0 32.5 0C31.1193 0 30 1.11929 30 2.5C30 3.88071 31.1193 5 32.5 5Z" fill="#FF4F4F"/>
<path d="M47.5 5C48.8807 5 50 3.88071 50 2.5C50 1.11929 48.8807 0 47.5 0C46.1193 0 45 1.11929 45 2.5C45 3.88071 46.1193 5 47.5 5Z" fill="#FF4F4F"/>
<path d="M62.5 5C63.8807 5 65 3.88071 65 2.5C65 1.11929 63.8807 0 62.5 0C61.1193 0 60 1.11929 60 2.5C60 3.88071 61.1193 5 62.5 5Z" fill="#FF4F4F"/>
<path d="M77.5 5C78.8807 5 80 3.88071 80 2.5C80 1.11929 78.8807 0 77.5 0C76.1193 0 75 1.11929 75 2.5C75 3.88071 76.1193 5 77.5 5Z" fill="#FF4F4F"/>
<path d="M92.5 5C93.8807 5 95 3.88071 95 2.5C95 1.11929 93.8807 0 92.5 0C91.1193 0 90 1.11929 90 2.5C90 3.88071 91.1193 5 92.5 5Z" fill="#FF4F4F"/>
<path d="M107.5 5C108.881 5 110 3.88071 110 2.5C110 1.11929 108.881 0 107.5 0C106.119 0 105 1.11929 105 2.5C105 3.88071 106.119 5 107.5 5Z" fill="#FF4F4F"/>
<path d="M2.5 20C3.88071 20 5 18.8807 5 17.5C5 16.1193 3.88071 15 2.5 15C1.11929 15 0 16.1193 0 17.5C0 18.8807 1.11929 20 2.5 20Z" fill="#FF4F4F"/>
<path d="M17.5 20C18.8807 20 20 18.8807 20 17.5C20 16.1193 18.8807 15 17.5 15C16.1193 15 15 16.1193 15 17.5C15 18.8807 16.1193 20 17.5 20Z" fill="#FF4F4F"/>
<path d="M32.5 20C33.8807 20 35 18.8807 35 17.5C35 16.1193 33.8807 15 32.5 15C31.1193 15 30 16.1193 30 17.5C30 18.8807 31.1193 20 32.5 20Z" fill="#FF4F4F"/>
<path d="M47.5 20C48.8807 20 50 18.8807 50 17.5C50 16.1193 48.8807 15 47.5 15C46.1193 15 45 16.1193 45 17.5C45 18.8807 46.1193 20 47.5 20Z" fill="#FF4F4F"/>
<path d="M62.5 20C63.8807 20 65 18.8807 65 17.5C65 16.1193 63.8807 15 62.5 15C61.1193 15 60 16.1193 60 17.5C60 18.8807 61.1193 20 62.5 20Z" fill="#FF4F4F"/>
<path d="M77.5 20C78.8807 20 80 18.8807 80 17.5C80 16.1193 78.8807 15 77.5 15C76.1193 15 75 16.1193 75 17.5C75 18.8807 76.1193 20 77.5 20Z" fill="#FF4F4F"/>
<path d="M92.5 20C93.8807 20 95 18.8807 95 17.5C95 16.1193 93.8807 15 92.5 15C91.1193 15 90 16.1193 90 17.5C90 18.8807 91.1193 20 92.5 20Z" fill="#FF4F4F"/>
<path d="M107.5 20C108.881 20 110 18.8807 110 17.5C110 16.1193 108.881 15 107.5 15C106.119 15 105 16.1193 105 17.5C105 18.8807 106.119 20 107.5 20Z" fill="#FF4F4F"/>
<path d="M2.5 35C3.88071 35 5 33.8807 5 32.5C5 31.1193 3.88071 30 2.5 30C1.11929 30 0 31.1193 0 32.5C0 33.8807 1.11929 35 2.5 35Z" fill="#FF4F4F"/>
<path d="M17.5 35C18.8807 35 20 33.8807 20 32.5C20 31.1193 18.8807 30 17.5 30C16.1193 30 15 31.1193 15 32.5C15 33.8807 16.1193 35 17.5 35Z" fill="#FF4F4F"/>
<path d="M32.5 35C33.8807 35 35 33.8807 35 32.5C35 31.1193 33.8807 30 32.5 30C31.1193 30 30 31.1193 30 32.5C30 33.8807 31.1193 35 32.5 35Z" fill="#FF4F4F"/>
<path d="M47.5 35C48.8807 35 50 33.8807 50 32.5C50 31.1193 48.8807 30 47.5 30C46.1193 30 45 31.1193 45 32.5C45 33.8807 46.1193 35 47.5 35Z" fill="#FF4F4F"/>
<path d="M62.5 35C63.8807 35 65 33.8807 65 32.5C65 31.1193 63.8807 30 62.5 30C61.1193 30 60 31.1193 60 32.5C60 33.8807 61.1193 35 62.5 35Z" fill="#FF4F4F"/>
<path d="M77.5 35C78.8807 35 80 33.8807 80 32.5C80 31.1193 78.8807 30 77.5 30C76.1193 30 75 31.1193 75 32.5C75 33.8807 76.1193 35 77.5 35Z" fill="#FF4F4F"/>
<path d="M92.5 35C93.8807 35 95 33.8807 95 32.5C95 31.1193 93.8807 30 92.5 30C91.1193 30 90 31.1193 90 32.5C90 33.8807 91.1193 35 92.5 35Z" fill="#FF4F4F"/>
<path d="M107.5 35C108.881 35 110 33.8807 110 32.5C110 31.1193 108.881 30 107.5 30C106.119 30 105 31.1193 105 32.5C105 33.8807 106.119 35 107.5 35Z" fill="#FF4F4F"/>
<path d="M2.5 50C3.88071 50 5 48.8807 5 47.5C5 46.1193 3.88071 45 2.5 45C1.11929 45 0 46.1193 0 47.5C0 48.8807 1.11929 50 2.5 50Z" fill="#FF4F4F"/>
<path d="M17.5 50C18.8807 50 20 48.8807 20 47.5C20 46.1193 18.8807 45 17.5 45C16.1193 45 15 46.1193 15 47.5C15 48.8807 16.1193 50 17.5 50Z" fill="#FF4F4F"/>
<path d="M32.5 50C33.8807 50 35 48.8807 35 47.5C35 46.1193 33.8807 45 32.5 45C31.1193 45 30 46.1193 30 47.5C30 48.8807 31.1193 50 32.5 50Z" fill="#FF4F4F"/>
<path d="M47.5 50C48.8807 50 50 48.8807 50 47.5C50 46.1193 48.8807 45 47.5 45C46.1193 45 45 46.1193 45 47.5C45 48.8807 46.1193 50 47.5 50Z" fill="#FF4F4F"/>
<path d="M62.5 50C63.8807 50 65 48.8807 65 47.5C65 46.1193 63.8807 45 62.5 45C61.1193 45 60 46.1193 60 47.5C60 48.8807 61.1193 50 62.5 50Z" fill="#FF4F4F"/>
<path d="M77.5 50C78.8807 50 80 48.8807 80 47.5C80 46.1193 78.8807 45 77.5 45C76.1193 45 75 46.1193 75 47.5C75 48.8807 76.1193 50 77.5 50Z" fill="#FF4F4F"/>
<path d="M92.5 50C93.8807 50 95 48.8807 95 47.5C95 46.1193 93.8807 45 92.5 45C91.1193 45 90 46.1193 90 47.5C90 48.8807 91.1193 50 92.5 50Z" fill="#FF4F4F"/>
<path d="M107.5 50C108.881 50 110 48.8807 110 47.5C110 46.1193 108.881 45 107.5 45C106.119 45 105 46.1193 105 47.5C105 48.8807 106.119 50 107.5 50Z" fill="#FF4F4F"/>
<path d="M2.5 65C3.88071 65 5 63.8807 5 62.5C5 61.1193 3.88071 60 2.5 60C1.11929 60 0 61.1193 0 62.5C0 63.8807 1.11929 65 2.5 65Z" fill="#FF4F4F"/>
<path d="M17.5 65C18.8807 65 20 63.8807 20 62.5C20 61.1193 18.8807 60 17.5 60C16.1193 60 15 61.1193 15 62.5C15 63.8807 16.1193 65 17.5 65Z" fill="#FF4F4F"/>
<path d="M32.5 65C33.8807 65 35 63.8807 35 62.5C35 61.1193 33.8807 60 32.5 60C31.1193 60 30 61.1193 30 62.5C30 63.8807 31.1193 65 32.5 65Z" fill="#FF4F4F"/>
<path d="M47.5 65C48.8807 65 50 63.8807 50 62.5C50 61.1193 48.8807 60 47.5 60C46.1193 60 45 61.1193 45 62.5C45 63.8807 46.1193 65 47.5 65Z" fill="#FF4F4F"/>
<path d="M62.5 65C63.8807 65 65 63.8807 65 62.5C65 61.1193 63.8807 60 62.5 60C61.1193 60 60 61.1193 60 62.5C60 63.8807 61.1193 65 62.5 65Z" fill="#FF4F4F"/>
<path d="M77.5 65C78.8807 65 80 63.8807 80 62.5C80 61.1193 78.8807 60 77.5 60C76.1193 60 75 61.1193 75 62.5C75 63.8807 76.1193 65 77.5 65Z" fill="#FF4F4F"/>
<path d="M92.5 65C93.8807 65 95 63.8807 95 62.5C95 61.1193 93.8807 60 92.5 60C91.1193 60 90 61.1193 90 62.5C90 63.8807 91.1193 65 92.5 65Z" fill="#FF4F4F"/>
<path d="M107.5 65C108.881 65 110 63.8807 110 62.5C110 61.1193 108.881 60 107.5 60C106.119 60 105 61.1193 105 62.5C105 63.8807 106.119 65 107.5 65Z" fill="#FF4F4F"/>
<path d="M2.5 80C3.88071 80 5 78.8807 5 77.5C5 76.1193 3.88071 75 2.5 75C1.11929 75 0 76.1193 0 77.5C0 78.8807 1.11929 80 2.5 80Z" fill="#FF4F4F"/>
<path d="M17.5 80C18.8807 80 20 78.8807 20 77.5C20 76.1193 18.8807 75 17.5 75C16.1193 75 15 76.1193 15 77.5C15 78.8807 16.1193 80 17.5 80Z" fill="#FF4F4F"/>
<path d="M32.5 80C33.8807 80 35 78.8807 35 77.5C35 76.1193 33.8807 75 32.5 75C31.1193 75 30 76.1193 30 77.5C30 78.8807 31.1193 80 32.5 80Z" fill="#FF4F4F"/>
<path d="M47.5 80C48.8807 80 50 78.8807 50 77.5C50 76.1193 48.8807 75 47.5 75C46.1193 75 45 76.1193 45 77.5C45 78.8807 46.1193 80 47.5 80Z" fill="#FF4F4F"/>
<path d="M62.5 80C63.8807 80 65 78.8807 65 77.5C65 76.1193 63.8807 75 62.5 75C61.1193 75 60 76.1193 60 77.5C60 78.8807 61.1193 80 62.5 80Z" fill="#FF4F4F"/>
<path d="M77.5 80C78.8807 80 80 78.8807 80 77.5C80 76.1193 78.8807 75 77.5 75C76.1193 75 75 76.1193 75 77.5C75 78.8807 76.1193 80 77.5 80Z" fill="#FF4F4F"/>
<path d="M92.5 80C93.8807 80 95 78.8807 95 77.5C95 76.1193 93.8807 75 92.5 75C91.1193 75 90 76.1193 90 77.5C90 78.8807 91.1193 80 92.5 80Z" fill="#FF4F4F"/>
<path d="M107.5 80C108.881 80 110 78.8807 110 77.5C110 76.1193 108.881 75 107.5 75C106.119 75 105 76.1193 105 77.5C105 78.8807 106.119 80 107.5 80Z" fill="#FF4F4F"/>
<path d="M2.5 95C3.88071 95 5 93.8807 5 92.5C5 91.1193 3.88071 90 2.5 90C1.11929 90 0 91.1193 0 92.5C0 93.8807 1.11929 95 2.5 95Z" fill="#FF4F4F"/>
<path d="M17.5 95C18.8807 95 20 93.8807 20 92.5C20 91.1193 18.8807 90 17.5 90C16.1193 90 15 91.1193 15 92.5C15 93.8807 16.1193 95 17.5 95Z" fill="#FF4F4F"/>
<path d="M32.5 95C33.8807 95 35 93.8807 35 92.5C35 91.1193 33.8807 90 32.5 90C31.1193 90 30 91.1193 30 92.5C30 93.8807 31.1193 95 32.5 95Z" fill="#FF4F4F"/>
<path d="M47.5 95C48.8807 95 50 93.8807 50 92.5C50 91.1193 48.8807 90 47.5 90C46.1193 90 45 91.1193 45 92.5C45 93.8807 46.1193 95 47.5 95Z" fill="#FF4F4F"/>
<path d="M62.5 95C63.8807 95 65 93.8807 65 92.5C65 91.1193 63.8807 90 62.5 90C61.1193 90 60 91.1193 60 92.5C60 93.8807 61.1193 95 62.5 95Z" fill="#FF4F4F"/>
<path d="M77.5 95C78.8807 95 80 93.8807 80 92.5C80 91.1193 78.8807 90 77.5 90C76.1193 90 75 91.1193 75 92.5C75 93.8807 76.1193 95 77.5 95Z" fill="#FF4F4F"/>
<path d="M92.5 95C93.8807 95 95 93.8807 95 92.5C95 91.1193 93.8807 90 92.5 90C91.1193 90 90 91.1193 90 92.5C90 93.8807 91.1193 95 92.5 95Z" fill="#FF4F4F"/>
<path d="M107.5 95C108.881 95 110 93.8807 110 92.5C110 91.1193 108.881 90 107.5 90C106.119 90 105 91.1193 105 92.5C105 93.8807 106.119 95 107.5 95Z" fill="#FF4F4F"/>
<path d="M2.5 110C3.88071 110 5 108.881 5 107.5C5 106.119 3.88071 105 2.5 105C1.11929 105 0 106.119 0 107.5C0 108.881 1.11929 110 2.5 110Z" fill="#FF4F4F"/>
<path d="M17.5 110C18.8807 110 20 108.881 20 107.5C20 106.119 18.8807 105 17.5 105C16.1193 105 15 106.119 15 107.5C15 108.881 16.1193 110 17.5 110Z" fill="#FF4F4F"/>
<path d="M32.5 110C33.8807 110 35 108.881 35 107.5C35 106.119 33.8807 105 32.5 105C31.1193 105 30 106.119 30 107.5C30 108.881 31.1193 110 32.5 110Z" fill="#FF4F4F"/>
<path d="M47.5 110C48.8807 110 50 108.881 50 107.5C50 106.119 48.8807 105 47.5 105C46.1193 105 45 106.119 45 107.5C45 108.881 46.1193 110 47.5 110Z" fill="#FF4F4F"/>
<path d="M62.5 110C63.8807 110 65 108.881 65 107.5C65 106.119 63.8807 105 62.5 105C61.1193 105 60 106.119 60 107.5C60 108.881 61.1193 110 62.5 110Z" fill="#FF4F4F"/>
<path d="M77.5 110C78.8807 110 80 108.881 80 107.5C80 106.119 78.8807 105 77.5 105C76.1193 105 75 106.119 75 107.5C75 108.881 76.1193 110 77.5 110Z" fill="#FF4F4F"/>
<path d="M92.5 110C93.8807 110 95 108.881 95 107.5C95 106.119 93.8807 105 92.5 105C91.1193 105 90 106.119 90 107.5C90 108.881 91.1193 110 92.5 110Z" fill="#FF4F4F"/>
<path d="M107.5 110C108.881 110 110 108.881 110 107.5C110 106.119 108.881 105 107.5 105C106.119 105 105 106.119 105 107.5C105 108.881 106.119 110 107.5 110Z" fill="#FF4F4F"/>
<path d="M2.5 125C3.88071 125 5 123.881 5 122.5C5 121.119 3.88071 120 2.5 120C1.11929 120 0 121.119 0 122.5C0 123.881 1.11929 125 2.5 125Z" fill="#FF4F4F"/>
<path d="M17.5 125C18.8807 125 20 123.881 20 122.5C20 121.119 18.8807 120 17.5 120C16.1193 120 15 121.119 15 122.5C15 123.881 16.1193 125 17.5 125Z" fill="#FF4F4F"/>
<path d="M32.5 125C33.8807 125 35 123.881 35 122.5C35 121.119 33.8807 120 32.5 120C31.1193 120 30 121.119 30 122.5C30 123.881 31.1193 125 32.5 125Z" fill="#FF4F4F"/>
<path d="M47.5 125C48.8807 125 50 123.881 50 122.5C50 121.119 48.8807 120 47.5 120C46.1193 120 45 121.119 45 122.5C45 123.881 46.1193 125 47.5 125Z" fill="#FF4F4F"/>
<path d="M62.5 125C63.8807 125 65 123.881 65 122.5C65 121.119 63.8807 120 62.5 120C61.1193 120 60 121.119 60 122.5C60 123.881 61.1193 125 62.5 125Z" fill="#FF4F4F"/>
<path d="M77.5 125C78.8807 125 80 123.881 80 122.5C80 121.119 78.8807 120 77.5 120C76.1193 120 75 121.119 75 122.5C75 123.881 76.1193 125 77.5 125Z" fill="#FF4F4F"/>
<path d="M92.5 125C93.8807 125 95 123.881 95 122.5C95 121.119 93.8807 120 92.5 120C91.1193 120 90 121.119 90 122.5C90 123.881 91.1193 125 92.5 125Z" fill="#FF4F4F"/>
<path d="M107.5 125C108.881 125 110 123.881 110 122.5C110 121.119 108.881 120 107.5 120C106.119 120 105 121.119 105 122.5C105 123.881 106.119 125 107.5 125Z" fill="#FF4F4F"/>
<path d="M2.5 140C3.88071 140 5 138.881 5 137.5C5 136.119 3.88071 135 2.5 135C1.11929 135 0 136.119 0 137.5C0 138.881 1.11929 140 2.5 140Z" fill="#FF4F4F"/>
<path d="M17.5 140C18.8807 140 20 138.881 20 137.5C20 136.119 18.8807 135 17.5 135C16.1193 135 15 136.119 15 137.5C15 138.881 16.1193 140 17.5 140Z" fill="#FF4F4F"/>
<path d="M32.5 140C33.8807 140 35 138.881 35 137.5C35 136.119 33.8807 135 32.5 135C31.1193 135 30 136.119 30 137.5C30 138.881 31.1193 140 32.5 140Z" fill="#FF4F4F"/>
<path d="M47.5 140C48.8807 140 50 138.881 50 137.5C50 136.119 48.8807 135 47.5 135C46.1193 135 45 136.119 45 137.5C45 138.881 46.1193 140 47.5 140Z" fill="#FF4F4F"/>
<path d="M62.5 140C63.8807 140 65 138.881 65 137.5C65 136.119 63.8807 135 62.5 135C61.1193 135 60 136.119 60 137.5C60 138.881 61.1193 140 62.5 140Z" fill="#FF4F4F"/>
<path d="M77.5 140C78.8807 140 80 138.881 80 137.5C80 136.119 78.8807 135 77.5 135C76.1193 135 75 136.119 75 137.5C75 138.881 76.1193 140 77.5 140Z" fill="#FF4F4F"/>
<path d="M92.5 140C93.8807 140 95 138.881 95 137.5C95 136.119 93.8807 135 92.5 135C91.1193 135 90 136.119 90 137.5C90 138.881 91.1193 140 92.5 140Z" fill="#FF4F4F"/>
<path d="M107.5 140C108.881 140 110 138.881 110 137.5C110 136.119 108.881 135 107.5 135C106.119 135 105 136.119 105 137.5C105 138.881 106.119 140 107.5 140Z" fill="#FF4F4F"/>
<path d="M2.5 155C3.88071 155 5 153.881 5 152.5C5 151.119 3.88071 150 2.5 150C1.11929 150 0 151.119 0 152.5C0 153.881 1.11929 155 2.5 155Z" fill="#FF4F4F"/>
<path d="M17.5 155C18.8807 155 20 153.881 20 152.5C20 151.119 18.8807 150 17.5 150C16.1193 150 15 151.119 15 152.5C15 153.881 16.1193 155 17.5 155Z" fill="#FF4F4F"/>
<path d="M32.5 155C33.8807 155 35 153.881 35 152.5C35 151.119 33.8807 150 32.5 150C31.1193 150 30 151.119 30 152.5C30 153.881 31.1193 155 32.5 155Z" fill="#FF4F4F"/>
<path d="M47.5 155C48.8807 155 50 153.881 50 152.5C50 151.119 48.8807 150 47.5 150C46.1193 150 45 151.119 45 152.5C45 153.881 46.1193 155 47.5 155Z" fill="#FF4F4F"/>
<path d="M62.5 155C63.8807 155 65 153.881 65 152.5C65 151.119 63.8807 150 62.5 150C61.1193 150 60 151.119 60 152.5C60 153.881 61.1193 155 62.5 155Z" fill="#FF4F4F"/>
<path d="M77.5 155C78.8807 155 80 153.881 80 152.5C80 151.119 78.8807 150 77.5 150C76.1193 150 75 151.119 75 152.5C75 153.881 76.1193 155 77.5 155Z" fill="#FF4F4F"/>
<path d="M92.5 155C93.8807 155 95 153.881 95 152.5C95 151.119 93.8807 150 92.5 150C91.1193 150 90 151.119 90 152.5C90 153.881 91.1193 155 92.5 155Z" fill="#FF4F4F"/>
<path d="M107.5 155C108.881 155 110 153.881 110 152.5C110 151.119 108.881 150 107.5 150C106.119 150 105 151.119 105 152.5C105 153.881 106.119 155 107.5 155Z" fill="#FF4F4F"/>
<path d="M2.5 170C3.88071 170 5 168.881 5 167.5C5 166.119 3.88071 165 2.5 165C1.11929 165 0 166.119 0 167.5C0 168.881 1.11929 170 2.5 170Z" fill="#FF4F4F"/>
<path d="M17.5 170C18.8807 170 20 168.881 20 167.5C20 166.119 18.8807 165 17.5 165C16.1193 165 15 166.119 15 167.5C15 168.881 16.1193 170 17.5 170Z" fill="#FF4F4F"/>
<path d="M32.5 170C33.8807 170 35 168.881 35 167.5C35 166.119 33.8807 165 32.5 165C31.1193 165 30 166.119 30 167.5C30 168.881 31.1193 170 32.5 170Z" fill="#FF4F4F"/>
<path d="M47.5 170C48.8807 170 50 168.881 50 167.5C50 166.119 48.8807 165 47.5 165C46.1193 165 45 166.119 45 167.5C45 168.881 46.1193 170 47.5 170Z" fill="#FF4F4F"/>
<path d="M62.5 170C63.8807 170 65 168.881 65 167.5C65 166.119 63.8807 165 62.5 165C61.1193 165 60 166.119 60 167.5C60 168.881 61.1193 170 62.5 170Z" fill="#FF4F4F"/>
<path d="M77.5 170C78.8807 170 80 168.881 80 167.5C80 166.119 78.8807 165 77.5 165C76.1193 165 75 166.119 75 167.5C75 168.881 76.1193 170 77.5 170Z" fill="#FF4F4F"/>
<path d="M92.5 170C93.8807 170 95 168.881 95 167.5C95 166.119 93.8807 165 92.5 165C91.1193 165 90 166.119 90 167.5C90 168.881 91.1193 170 92.5 170Z" fill="#FF4F4F"/>
<path d="M107.5 170C108.881 170 110 168.881 110 167.5C110 166.119 108.881 165 107.5 165C106.119 165 105 166.119 105 167.5C105 168.881 106.119 170 107.5 170Z" fill="#FF4F4F"/>
<path d="M498.5 333C499.881 333 501 331.881 501 330.5C501 329.119 499.881 328 498.5 328C497.119 328 496 329.119 496 330.5C496 331.881 497.119 333 498.5 333Z" fill="#FF4F4F"/>
<path d="M513.5 333C514.881 333 516 331.881 516 330.5C516 329.119 514.881 328 513.5 328C512.119 328 511 329.119 511 330.5C511 331.881 512.119 333 513.5 333Z" fill="#FF4F4F"/>
<path d="M528.5 333C529.881 333 531 331.881 531 330.5C531 329.119 529.881 328 528.5 328C527.119 328 526 329.119 526 330.5C526 331.881 527.119 333 528.5 333Z" fill="#FF4F4F"/>
<path d="M543.5 333C544.881 333 546 331.881 546 330.5C546 329.119 544.881 328 543.5 328C542.119 328 541 329.119 541 330.5C541 331.881 542.119 333 543.5 333Z" fill="#FF4F4F"/>
<path d="M558.5 333C559.881 333 561 331.881 561 330.5C561 329.119 559.881 328 558.5 328C557.119 328 556 329.119 556 330.5C556 331.881 557.119 333 558.5 333Z" fill="#FF4F4F"/>
<path d="M573.5 333C574.881 333 576 331.881 576 330.5C576 329.119 574.881 328 573.5 328C572.119 328 571 329.119 571 330.5C571 331.881 572.119 333 573.5 333Z" fill="#FF4F4F"/>
<path d="M588.5 333C589.881 333 591 331.881 591 330.5C591 329.119 589.881 328 588.5 328C587.119 328 586 329.119 586 330.5C586 331.881 587.119 333 588.5 333Z" fill="#FF4F4F"/>
<path d="M603.5 333C604.881 333 606 331.881 606 330.5C606 329.119 604.881 328 603.5 328C602.119 328 601 329.119 601 330.5C601 331.881 602.119 333 603.5 333Z" fill="#FF4F4F"/>
<path d="M498.5 348C499.881 348 501 346.881 501 345.5C501 344.119 499.881 343 498.5 343C497.119 343 496 344.119 496 345.5C496 346.881 497.119 348 498.5 348Z" fill="#FF4F4F"/>
<path d="M513.5 348C514.881 348 516 346.881 516 345.5C516 344.119 514.881 343 513.5 343C512.119 343 511 344.119 511 345.5C511 346.881 512.119 348 513.5 348Z" fill="#FF4F4F"/>
<path d="M528.5 348C529.881 348 531 346.881 531 345.5C531 344.119 529.881 343 528.5 343C527.119 343 526 344.119 526 345.5C526 346.881 527.119 348 528.5 348Z" fill="#FF4F4F"/>
<path d="M543.5 348C544.881 348 546 346.881 546 345.5C546 344.119 544.881 343 543.5 343C542.119 343 541 344.119 541 345.5C541 346.881 542.119 348 543.5 348Z" fill="#FF4F4F"/>
<path d="M558.5 348C559.881 348 561 346.881 561 345.5C561 344.119 559.881 343 558.5 343C557.119 343 556 344.119 556 345.5C556 346.881 557.119 348 558.5 348Z" fill="#FF4F4F"/>
<path d="M573.5 348C574.881 348 576 346.881 576 345.5C576 344.119 574.881 343 573.5 343C572.119 343 571 344.119 571 345.5C571 346.881 572.119 348 573.5 348Z" fill="#FF4F4F"/>
<path d="M588.5 348C589.881 348 591 346.881 591 345.5C591 344.119 589.881 343 588.5 343C587.119 343 586 344.119 586 345.5C586 346.881 587.119 348 588.5 348Z" fill="#FF4F4F"/>
<path d="M603.5 348C604.881 348 606 346.881 606 345.5C606 344.119 604.881 343 603.5 343C602.119 343 601 344.119 601 345.5C601 346.881 602.119 348 603.5 348Z" fill="#FF4F4F"/>
<path d="M498.5 363C499.881 363 501 361.881 501 360.5C501 359.119 499.881 358 498.5 358C497.119 358 496 359.119 496 360.5C496 361.881 497.119 363 498.5 363Z" fill="#FF4F4F"/>
<path d="M513.5 363C514.881 363 516 361.881 516 360.5C516 359.119 514.881 358 513.5 358C512.119 358 511 359.119 511 360.5C511 361.881 512.119 363 513.5 363Z" fill="#FF4F4F"/>
<path d="M528.5 363C529.881 363 531 361.881 531 360.5C531 359.119 529.881 358 528.5 358C527.119 358 526 359.119 526 360.5C526 361.881 527.119 363 528.5 363Z" fill="#FF4F4F"/>
<path d="M543.5 363C544.881 363 546 361.881 546 360.5C546 359.119 544.881 358 543.5 358C542.119 358 541 359.119 541 360.5C541 361.881 542.119 363 543.5 363Z" fill="#FF4F4F"/>
<path d="M558.5 363C559.881 363 561 361.881 561 360.5C561 359.119 559.881 358 558.5 358C557.119 358 556 359.119 556 360.5C556 361.881 557.119 363 558.5 363Z" fill="#FF4F4F"/>
<path d="M573.5 363C574.881 363 576 361.881 576 360.5C576 359.119 574.881 358 573.5 358C572.119 358 571 359.119 571 360.5C571 361.881 572.119 363 573.5 363Z" fill="#FF4F4F"/>
<path d="M588.5 363C589.881 363 591 361.881 591 360.5C591 359.119 589.881 358 588.5 358C587.119 358 586 359.119 586 360.5C586 361.881 587.119 363 588.5 363Z" fill="#FF4F4F"/>
<path d="M603.5 363C604.881 363 606 361.881 606 360.5C606 359.119 604.881 358 603.5 358C602.119 358 601 359.119 601 360.5C601 361.881 602.119 363 603.5 363Z" fill="#FF4F4F"/>
<path d="M498.5 378C499.881 378 501 376.881 501 375.5C501 374.119 499.881 373 498.5 373C497.119 373 496 374.119 496 375.5C496 376.881 497.119 378 498.5 378Z" fill="#FF4F4F"/>
<path d="M513.5 378C514.881 378 516 376.881 516 375.5C516 374.119 514.881 373 513.5 373C512.119 373 511 374.119 511 375.5C511 376.881 512.119 378 513.5 378Z" fill="#FF4F4F"/>
<path d="M528.5 378C529.881 378 531 376.881 531 375.5C531 374.119 529.881 373 528.5 373C527.119 373 526 374.119 526 375.5C526 376.881 527.119 378 528.5 378Z" fill="#FF4F4F"/>
<path d="M543.5 378C544.881 378 546 376.881 546 375.5C546 374.119 544.881 373 543.5 373C542.119 373 541 374.119 541 375.5C541 376.881 542.119 378 543.5 378Z" fill="#FF4F4F"/>
<path d="M558.5 378C559.881 378 561 376.881 561 375.5C561 374.119 559.881 373 558.5 373C557.119 373 556 374.119 556 375.5C556 376.881 557.119 378 558.5 378Z" fill="#FF4F4F"/>
<path d="M573.5 378C574.881 378 576 376.881 576 375.5C576 374.119 574.881 373 573.5 373C572.119 373 571 374.119 571 375.5C571 376.881 572.119 378 573.5 378Z" fill="#FF4F4F"/>
<path d="M588.5 378C589.881 378 591 376.881 591 375.5C591 374.119 589.881 373 588.5 373C587.119 373 586 374.119 586 375.5C586 376.881 587.119 378 588.5 378Z" fill="#FF4F4F"/>
<path d="M603.5 378C604.881 378 606 376.881 606 375.5C606 374.119 604.881 373 603.5 373C602.119 373 601 374.119 601 375.5C601 376.881 602.119 378 603.5 378Z" fill="#FF4F4F"/>
<path d="M498.5 393C499.881 393 501 391.881 501 390.5C501 389.119 499.881 388 498.5 388C497.119 388 496 389.119 496 390.5C496 391.881 497.119 393 498.5 393Z" fill="#FF4F4F"/>
<path d="M513.5 393C514.881 393 516 391.881 516 390.5C516 389.119 514.881 388 513.5 388C512.119 388 511 389.119 511 390.5C511 391.881 512.119 393 513.5 393Z" fill="#FF4F4F"/>
<path d="M528.5 393C529.881 393 531 391.881 531 390.5C531 389.119 529.881 388 528.5 388C527.119 388 526 389.119 526 390.5C526 391.881 527.119 393 528.5 393Z" fill="#FF4F4F"/>
<path d="M543.5 393C544.881 393 546 391.881 546 390.5C546 389.119 544.881 388 543.5 388C542.119 388 541 389.119 541 390.5C541 391.881 542.119 393 543.5 393Z" fill="#FF4F4F"/>
<path d="M558.5 393C559.881 393 561 391.881 561 390.5C561 389.119 559.881 388 558.5 388C557.119 388 556 389.119 556 390.5C556 391.881 557.119 393 558.5 393Z" fill="#FF4F4F"/>
<path d="M573.5 393C574.881 393 576 391.881 576 390.5C576 389.119 574.881 388 573.5 388C572.119 388 571 389.119 571 390.5C571 391.881 572.119 393 573.5 393Z" fill="#FF4F4F"/>
<path d="M588.5 393C589.881 393 591 391.881 591 390.5C591 389.119 589.881 388 588.5 388C587.119 388 586 389.119 586 390.5C586 391.881 587.119 393 588.5 393Z" fill="#FF4F4F"/>
<path d="M603.5 393C604.881 393 606 391.881 606 390.5C606 389.119 604.881 388 603.5 388C602.119 388 601 389.119 601 390.5C601 391.881 602.119 393 603.5 393Z" fill="#FF4F4F"/>
<path d="M498.5 408C499.881 408 501 406.881 501 405.5C501 404.119 499.881 403 498.5 403C497.119 403 496 404.119 496 405.5C496 406.881 497.119 408 498.5 408Z" fill="#FF4F4F"/>
<path d="M513.5 408C514.881 408 516 406.881 516 405.5C516 404.119 514.881 403 513.5 403C512.119 403 511 404.119 511 405.5C511 406.881 512.119 408 513.5 408Z" fill="#FF4F4F"/>
<path d="M528.5 408C529.881 408 531 406.881 531 405.5C531 404.119 529.881 403 528.5 403C527.119 403 526 404.119 526 405.5C526 406.881 527.119 408 528.5 408Z" fill="#FF4F4F"/>
<path d="M543.5 408C544.881 408 546 406.881 546 405.5C546 404.119 544.881 403 543.5 403C542.119 403 541 404.119 541 405.5C541 406.881 542.119 408 543.5 408Z" fill="#FF4F4F"/>
<path d="M558.5 408C559.881 408 561 406.881 561 405.5C561 404.119 559.881 403 558.5 403C557.119 403 556 404.119 556 405.5C556 406.881 557.119 408 558.5 408Z" fill="#FF4F4F"/>
<path d="M573.5 408C574.881 408 576 406.881 576 405.5C576 404.119 574.881 403 573.5 403C572.119 403 571 404.119 571 405.5C571 406.881 572.119 408 573.5 408Z" fill="#FF4F4F"/>
<path d="M588.5 408C589.881 408 591 406.881 591 405.5C591 404.119 589.881 403 588.5 403C587.119 403 586 404.119 586 405.5C586 406.881 587.119 408 588.5 408Z" fill="#FF4F4F"/>
<path d="M603.5 408C604.881 408 606 406.881 606 405.5C606 404.119 604.881 403 603.5 403C602.119 403 601 404.119 601 405.5C601 406.881 602.119 408 603.5 408Z" fill="#FF4F4F"/>
<path d="M498.5 423C499.881 423 501 421.881 501 420.5C501 419.119 499.881 418 498.5 418C497.119 418 496 419.119 496 420.5C496 421.881 497.119 423 498.5 423Z" fill="#FF4F4F"/>
<path d="M513.5 423C514.881 423 516 421.881 516 420.5C516 419.119 514.881 418 513.5 418C512.119 418 511 419.119 511 420.5C511 421.881 512.119 423 513.5 423Z" fill="#FF4F4F"/>
<path d="M528.5 423C529.881 423 531 421.881 531 420.5C531 419.119 529.881 418 528.5 418C527.119 418 526 419.119 526 420.5C526 421.881 527.119 423 528.5 423Z" fill="#FF4F4F"/>
<path d="M543.5 423C544.881 423 546 421.881 546 420.5C546 419.119 544.881 418 543.5 418C542.119 418 541 419.119 541 420.5C541 421.881 542.119 423 543.5 423Z" fill="#FF4F4F"/>
<path d="M558.5 423C559.881 423 561 421.881 561 420.5C561 419.119 559.881 418 558.5 418C557.119 418 556 419.119 556 420.5C556 421.881 557.119 423 558.5 423Z" fill="#FF4F4F"/>
<path d="M573.5 423C574.881 423 576 421.881 576 420.5C576 419.119 574.881 418 573.5 418C572.119 418 571 419.119 571 420.5C571 421.881 572.119 423 573.5 423Z" fill="#FF4F4F"/>
<path d="M588.5 423C589.881 423 591 421.881 591 420.5C591 419.119 589.881 418 588.5 418C587.119 418 586 419.119 586 420.5C586 421.881 587.119 423 588.5 423Z" fill="#FF4F4F"/>
<path d="M603.5 423C604.881 423 606 421.881 606 420.5C606 419.119 604.881 418 603.5 418C602.119 418 601 419.119 601 420.5C601 421.881 602.119 423 603.5 423Z" fill="#FF4F4F"/>
<path d="M498.5 438C499.881 438 501 436.881 501 435.5C501 434.119 499.881 433 498.5 433C497.119 433 496 434.119 496 435.5C496 436.881 497.119 438 498.5 438Z" fill="#FF4F4F"/>
<path d="M513.5 438C514.881 438 516 436.881 516 435.5C516 434.119 514.881 433 513.5 433C512.119 433 511 434.119 511 435.5C511 436.881 512.119 438 513.5 438Z" fill="#FF4F4F"/>
<path d="M528.5 438C529.881 438 531 436.881 531 435.5C531 434.119 529.881 433 528.5 433C527.119 433 526 434.119 526 435.5C526 436.881 527.119 438 528.5 438Z" fill="#FF4F4F"/>
<path d="M543.5 438C544.881 438 546 436.881 546 435.5C546 434.119 544.881 433 543.5 433C542.119 433 541 434.119 541 435.5C541 436.881 542.119 438 543.5 438Z" fill="#FF4F4F"/>
<path d="M558.5 438C559.881 438 561 436.881 561 435.5C561 434.119 559.881 433 558.5 433C557.119 433 556 434.119 556 435.5C556 436.881 557.119 438 558.5 438Z" fill="#FF4F4F"/>
<path d="M573.5 438C574.881 438 576 436.881 576 435.5C576 434.119 574.881 433 573.5 433C572.119 433 571 434.119 571 435.5C571 436.881 572.119 438 573.5 438Z" fill="#FF4F4F"/>
<path d="M588.5 438C589.881 438 591 436.881 591 435.5C591 434.119 589.881 433 588.5 433C587.119 433 586 434.119 586 435.5C586 436.881 587.119 438 588.5 438Z" fill="#FF4F4F"/>
<path d="M603.5 438C604.881 438 606 436.881 606 435.5C606 434.119 604.881 433 603.5 433C602.119 433 601 434.119 601 435.5C601 436.881 602.119 438 603.5 438Z" fill="#FF4F4F"/>
<path d="M498.5 453C499.881 453 501 451.881 501 450.5C501 449.119 499.881 448 498.5 448C497.119 448 496 449.119 496 450.5C496 451.881 497.119 453 498.5 453Z" fill="#FF4F4F"/>
<path d="M513.5 453C514.881 453 516 451.881 516 450.5C516 449.119 514.881 448 513.5 448C512.119 448 511 449.119 511 450.5C511 451.881 512.119 453 513.5 453Z" fill="#FF4F4F"/>
<path d="M528.5 453C529.881 453 531 451.881 531 450.5C531 449.119 529.881 448 528.5 448C527.119 448 526 449.119 526 450.5C526 451.881 527.119 453 528.5 453Z" fill="#FF4F4F"/>
<path d="M543.5 453C544.881 453 546 451.881 546 450.5C546 449.119 544.881 448 543.5 448C542.119 448 541 449.119 541 450.5C541 451.881 542.119 453 543.5 453Z" fill="#FF4F4F"/>
<path d="M558.5 453C559.881 453 561 451.881 561 450.5C561 449.119 559.881 448 558.5 448C557.119 448 556 449.119 556 450.5C556 451.881 557.119 453 558.5 453Z" fill="#FF4F4F"/>
<path d="M573.5 453C574.881 453 576 451.881 576 450.5C576 449.119 574.881 448 573.5 448C572.119 448 571 449.119 571 450.5C571 451.881 572.119 453 573.5 453Z" fill="#FF4F4F"/>
<path d="M588.5 453C589.881 453 591 451.881 591 450.5C591 449.119 589.881 448 588.5 448C587.119 448 586 449.119 586 450.5C586 451.881 587.119 453 588.5 453Z" fill="#FF4F4F"/>
<path d="M603.5 453C604.881 453 606 451.881 606 450.5C606 449.119 604.881 448 603.5 448C602.119 448 601 449.119 601 450.5C601 451.881 602.119 453 603.5 453Z" fill="#FF4F4F"/>
<path d="M498.5 468C499.881 468 501 466.881 501 465.5C501 464.119 499.881 463 498.5 463C497.119 463 496 464.119 496 465.5C496 466.881 497.119 468 498.5 468Z" fill="#FF4F4F"/>
<path d="M513.5 468C514.881 468 516 466.881 516 465.5C516 464.119 514.881 463 513.5 463C512.119 463 511 464.119 511 465.5C511 466.881 512.119 468 513.5 468Z" fill="#FF4F4F"/>
<path d="M528.5 468C529.881 468 531 466.881 531 465.5C531 464.119 529.881 463 528.5 463C527.119 463 526 464.119 526 465.5C526 466.881 527.119 468 528.5 468Z" fill="#FF4F4F"/>
<path d="M543.5 468C544.881 468 546 466.881 546 465.5C546 464.119 544.881 463 543.5 463C542.119 463 541 464.119 541 465.5C541 466.881 542.119 468 543.5 468Z" fill="#FF4F4F"/>
<path d="M558.5 468C559.881 468 561 466.881 561 465.5C561 464.119 559.881 463 558.5 463C557.119 463 556 464.119 556 465.5C556 466.881 557.119 468 558.5 468Z" fill="#FF4F4F"/>
<path d="M573.5 468C574.881 468 576 466.881 576 465.5C576 464.119 574.881 463 573.5 463C572.119 463 571 464.119 571 465.5C571 466.881 572.119 468 573.5 468Z" fill="#FF4F4F"/>
<path d="M588.5 468C589.881 468 591 466.881 591 465.5C591 464.119 589.881 463 588.5 463C587.119 463 586 464.119 586 465.5C586 466.881 587.119 468 588.5 468Z" fill="#FF4F4F"/>
<path d="M603.5 468C604.881 468 606 466.881 606 465.5C606 464.119 604.881 463 603.5 463C602.119 463 601 464.119 601 465.5C601 466.881 602.119 468 603.5 468Z" fill="#FF4F4F"/>
<path d="M498.5 483C499.881 483 501 481.881 501 480.5C501 479.119 499.881 478 498.5 478C497.119 478 496 479.119 496 480.5C496 481.881 497.119 483 498.5 483Z" fill="#FF4F4F"/>
<path d="M513.5 483C514.881 483 516 481.881 516 480.5C516 479.119 514.881 478 513.5 478C512.119 478 511 479.119 511 480.5C511 481.881 512.119 483 513.5 483Z" fill="#FF4F4F"/>
<path d="M528.5 483C529.881 483 531 481.881 531 480.5C531 479.119 529.881 478 528.5 478C527.119 478 526 479.119 526 480.5C526 481.881 527.119 483 528.5 483Z" fill="#FF4F4F"/>
<path d="M543.5 483C544.881 483 546 481.881 546 480.5C546 479.119 544.881 478 543.5 478C542.119 478 541 479.119 541 480.5C541 481.881 542.119 483 543.5 483Z" fill="#FF4F4F"/>
<path d="M558.5 483C559.881 483 561 481.881 561 480.5C561 479.119 559.881 478 558.5 478C557.119 478 556 479.119 556 480.5C556 481.881 557.119 483 558.5 483Z" fill="#FF4F4F"/>
<path d="M573.5 483C574.881 483 576 481.881 576 480.5C576 479.119 574.881 478 573.5 478C572.119 478 571 479.119 571 480.5C571 481.881 572.119 483 573.5 483Z" fill="#FF4F4F"/>
<path d="M588.5 483C589.881 483 591 481.881 591 480.5C591 479.119 589.881 478 588.5 478C587.119 478 586 479.119 586 480.5C586 481.881 587.119 483 588.5 483Z" fill="#FF4F4F"/>
<path d="M603.5 483C604.881 483 606 481.881 606 480.5C606 479.119 604.881 478 603.5 478C602.119 478 601 479.119 601 480.5C601 481.881 602.119 483 603.5 483Z" fill="#FF4F4F"/>
<path d="M498.5 498C499.881 498 501 496.881 501 495.5C501 494.119 499.881 493 498.5 493C497.119 493 496 494.119 496 495.5C496 496.881 497.119 498 498.5 498Z" fill="#FF4F4F"/>
<path d="M513.5 498C514.881 498 516 496.881 516 495.5C516 494.119 514.881 493 513.5 493C512.119 493 511 494.119 511 495.5C511 496.881 512.119 498 513.5 498Z" fill="#FF4F4F"/>
<path d="M528.5 498C529.881 498 531 496.881 531 495.5C531 494.119 529.881 493 528.5 493C527.119 493 526 494.119 526 495.5C526 496.881 527.119 498 528.5 498Z" fill="#FF4F4F"/>
<path d="M543.5 498C544.881 498 546 496.881 546 495.5C546 494.119 544.881 493 543.5 493C542.119 493 541 494.119 541 495.5C541 496.881 542.119 498 543.5 498Z" fill="#FF4F4F"/>
<path d="M558.5 498C559.881 498 561 496.881 561 495.5C561 494.119 559.881 493 558.5 493C557.119 493 556 494.119 556 495.5C556 496.881 557.119 498 558.5 498Z" fill="#FF4F4F"/>
<path d="M573.5 498C574.881 498 576 496.881 576 495.5C576 494.119 574.881 493 573.5 493C572.119 493 571 494.119 571 495.5C571 496.881 572.119 498 573.5 498Z" fill="#FF4F4F"/>
<path d="M588.5 498C589.881 498 591 496.881 591 495.5C591 494.119 589.881 493 588.5 493C587.119 493 586 494.119 586 495.5C586 496.881 587.119 498 588.5 498Z" fill="#FF4F4F"/>
<path d="M603.5 498C604.881 498 606 496.881 606 495.5C606 494.119 604.881 493 603.5 493C602.119 493 601 494.119 601 495.5C601 496.881 602.119 498 603.5 498Z" fill="#FF4F4F"/>
</svg>
