<svg width="646" height="271" viewBox="0 0 646 271" fill="none" xmlns="http://www.w3.org/2000/svg">
<path d="M645.5 210.5C645.5 243.637 618.637 270.5 585.5 270.5C552.363 270.5 525.5 243.637 525.5 210.5C525.5 177.363 552.363 150.5 585.5 150.5C618.637 150.5 645.5 177.363 645.5 210.5Z" stroke="#FF4F4F"/>
<path d="M585.5 266C616.152 266 641 241.152 641 210.5C641 179.848 616.152 155 585.5 155C554.848 155 530 179.848 530 210.5C530 241.152 554.848 266 585.5 266Z" stroke="#FF4F4F" stroke-width="10"/>
<path d="M2.5 5C3.88071 5 5 3.88071 5 2.5C5 1.11929 3.88071 0 2.5 0C1.11929 0 0 1.11929 0 2.5C0 3.88071 1.11929 5 2.5 5Z" fill="#FF4F4F"/>
<path d="M17.5 5C18.8807 5 20 3.88071 20 2.5C20 1.11929 18.8807 0 17.5 0C16.1193 0 15 1.11929 15 2.5C15 3.88071 16.1193 5 17.5 5Z" fill="#FF4F4F"/>
<path d="M32.5 5C33.8807 5 35 3.88071 35 2.5C35 1.11929 33.8807 0 32.5 0C31.1193 0 30 1.11929 30 2.5C30 3.88071 31.1193 5 32.5 5Z" fill="#FF4F4F"/>
<path d="M47.5 5C48.8807 5 50 3.88071 50 2.5C50 1.11929 48.8807 0 47.5 0C46.1193 0 45 1.11929 45 2.5C45 3.88071 46.1193 5 47.5 5Z" fill="#FF4F4F"/>
<path d="M62.5 5C63.8807 5 65 3.88071 65 2.5C65 1.11929 63.8807 0 62.5 0C61.1193 0 60 1.11929 60 2.5C60 3.88071 61.1193 5 62.5 5Z" fill="#FF4F4F"/>
<path d="M77.5 5C78.8807 5 80 3.88071 80 2.5C80 1.11929 78.8807 0 77.5 0C76.1193 0 75 1.11929 75 2.5C75 3.88071 76.1193 5 77.5 5Z" fill="#FF4F4F"/>
<path d="M92.5 5C93.8807 5 95 3.88071 95 2.5C95 1.11929 93.8807 0 92.5 0C91.1193 0 90 1.11929 90 2.5C90 3.88071 91.1193 5 92.5 5Z" fill="#FF4F4F"/>
<path d="M107.5 5C108.881 5 110 3.88071 110 2.5C110 1.11929 108.881 0 107.5 0C106.119 0 105 1.11929 105 2.5C105 3.88071 106.119 5 107.5 5Z" fill="#FF4F4F"/>
<path d="M122.5 5C123.881 5 125 3.88071 125 2.5C125 1.11929 123.881 0 122.5 0C121.119 0 120 1.11929 120 2.5C120 3.88071 121.119 5 122.5 5Z" fill="#FF4F4F"/>
<path d="M137.5 5C138.881 5 140 3.88071 140 2.5C140 1.11929 138.881 0 137.5 0C136.119 0 135 1.11929 135 2.5C135 3.88071 136.119 5 137.5 5Z" fill="#FF4F4F"/>
<path d="M2.5 20C3.88071 20 5 18.8807 5 17.5C5 16.1193 3.88071 15 2.5 15C1.11929 15 0 16.1193 0 17.5C0 18.8807 1.11929 20 2.5 20Z" fill="#FF4F4F"/>
<path d="M17.5 20C18.8807 20 20 18.8807 20 17.5C20 16.1193 18.8807 15 17.5 15C16.1193 15 15 16.1193 15 17.5C15 18.8807 16.1193 20 17.5 20Z" fill="#FF4F4F"/>
<path d="M32.5 20C33.8807 20 35 18.8807 35 17.5C35 16.1193 33.8807 15 32.5 15C31.1193 15 30 16.1193 30 17.5C30 18.8807 31.1193 20 32.5 20Z" fill="#FF4F4F"/>
<path d="M47.5 20C48.8807 20 50 18.8807 50 17.5C50 16.1193 48.8807 15 47.5 15C46.1193 15 45 16.1193 45 17.5C45 18.8807 46.1193 20 47.5 20Z" fill="#FF4F4F"/>
<path d="M62.5 20C63.8807 20 65 18.8807 65 17.5C65 16.1193 63.8807 15 62.5 15C61.1193 15 60 16.1193 60 17.5C60 18.8807 61.1193 20 62.5 20Z" fill="#FF4F4F"/>
<path d="M77.5 20C78.8807 20 80 18.8807 80 17.5C80 16.1193 78.8807 15 77.5 15C76.1193 15 75 16.1193 75 17.5C75 18.8807 76.1193 20 77.5 20Z" fill="#FF4F4F"/>
<path d="M92.5 20C93.8807 20 95 18.8807 95 17.5C95 16.1193 93.8807 15 92.5 15C91.1193 15 90 16.1193 90 17.5C90 18.8807 91.1193 20 92.5 20Z" fill="#FF4F4F"/>
<path d="M107.5 20C108.881 20 110 18.8807 110 17.5C110 16.1193 108.881 15 107.5 15C106.119 15 105 16.1193 105 17.5C105 18.8807 106.119 20 107.5 20Z" fill="#FF4F4F"/>
<path d="M122.5 20C123.881 20 125 18.8807 125 17.5C125 16.1193 123.881 15 122.5 15C121.119 15 120 16.1193 120 17.5C120 18.8807 121.119 20 122.5 20Z" fill="#FF4F4F"/>
<path d="M137.5 20C138.881 20 140 18.8807 140 17.5C140 16.1193 138.881 15 137.5 15C136.119 15 135 16.1193 135 17.5C135 18.8807 136.119 20 137.5 20Z" fill="#FF4F4F"/>
<path d="M2.5 35C3.88071 35 5 33.8807 5 32.5C5 31.1193 3.88071 30 2.5 30C1.11929 30 0 31.1193 0 32.5C0 33.8807 1.11929 35 2.5 35Z" fill="#FF4F4F"/>
<path d="M17.5 35C18.8807 35 20 33.8807 20 32.5C20 31.1193 18.8807 30 17.5 30C16.1193 30 15 31.1193 15 32.5C15 33.8807 16.1193 35 17.5 35Z" fill="#FF4F4F"/>
<path d="M32.5 35C33.8807 35 35 33.8807 35 32.5C35 31.1193 33.8807 30 32.5 30C31.1193 30 30 31.1193 30 32.5C30 33.8807 31.1193 35 32.5 35Z" fill="#FF4F4F"/>
<path d="M47.5 35C48.8807 35 50 33.8807 50 32.5C50 31.1193 48.8807 30 47.5 30C46.1193 30 45 31.1193 45 32.5C45 33.8807 46.1193 35 47.5 35Z" fill="#FF4F4F"/>
<path d="M62.5 35C63.8807 35 65 33.8807 65 32.5C65 31.1193 63.8807 30 62.5 30C61.1193 30 60 31.1193 60 32.5C60 33.8807 61.1193 35 62.5 35Z" fill="#FF4F4F"/>
<path d="M77.5 35C78.8807 35 80 33.8807 80 32.5C80 31.1193 78.8807 30 77.5 30C76.1193 30 75 31.1193 75 32.5C75 33.8807 76.1193 35 77.5 35Z" fill="#FF4F4F"/>
<path d="M92.5 35C93.8807 35 95 33.8807 95 32.5C95 31.1193 93.8807 30 92.5 30C91.1193 30 90 31.1193 90 32.5C90 33.8807 91.1193 35 92.5 35Z" fill="#FF4F4F"/>
<path d="M107.5 35C108.881 35 110 33.8807 110 32.5C110 31.1193 108.881 30 107.5 30C106.119 30 105 31.1193 105 32.5C105 33.8807 106.119 35 107.5 35Z" fill="#FF4F4F"/>
<path d="M122.5 35C123.881 35 125 33.8807 125 32.5C125 31.1193 123.881 30 122.5 30C121.119 30 120 31.1193 120 32.5C120 33.8807 121.119 35 122.5 35Z" fill="#FF4F4F"/>
<path d="M137.5 35C138.881 35 140 33.8807 140 32.5C140 31.1193 138.881 30 137.5 30C136.119 30 135 31.1193 135 32.5C135 33.8807 136.119 35 137.5 35Z" fill="#FF4F4F"/>
<path d="M2.5 50C3.88071 50 5 48.8807 5 47.5C5 46.1193 3.88071 45 2.5 45C1.11929 45 0 46.1193 0 47.5C0 48.8807 1.11929 50 2.5 50Z" fill="#FF4F4F"/>
<path d="M17.5 50C18.8807 50 20 48.8807 20 47.5C20 46.1193 18.8807 45 17.5 45C16.1193 45 15 46.1193 15 47.5C15 48.8807 16.1193 50 17.5 50Z" fill="#FF4F4F"/>
<path d="M32.5 50C33.8807 50 35 48.8807 35 47.5C35 46.1193 33.8807 45 32.5 45C31.1193 45 30 46.1193 30 47.5C30 48.8807 31.1193 50 32.5 50Z" fill="#FF4F4F"/>
<path d="M47.5 50C48.8807 50 50 48.8807 50 47.5C50 46.1193 48.8807 45 47.5 45C46.1193 45 45 46.1193 45 47.5C45 48.8807 46.1193 50 47.5 50Z" fill="#FF4F4F"/>
<path d="M62.5 50C63.8807 50 65 48.8807 65 47.5C65 46.1193 63.8807 45 62.5 45C61.1193 45 60 46.1193 60 47.5C60 48.8807 61.1193 50 62.5 50Z" fill="#FF4F4F"/>
<path d="M77.5 50C78.8807 50 80 48.8807 80 47.5C80 46.1193 78.8807 45 77.5 45C76.1193 45 75 46.1193 75 47.5C75 48.8807 76.1193 50 77.5 50Z" fill="#FF4F4F"/>
<path d="M92.5 50C93.8807 50 95 48.8807 95 47.5C95 46.1193 93.8807 45 92.5 45C91.1193 45 90 46.1193 90 47.5C90 48.8807 91.1193 50 92.5 50Z" fill="#FF4F4F"/>
<path d="M107.5 50C108.881 50 110 48.8807 110 47.5C110 46.1193 108.881 45 107.5 45C106.119 45 105 46.1193 105 47.5C105 48.8807 106.119 50 107.5 50Z" fill="#FF4F4F"/>
<path d="M122.5 50C123.881 50 125 48.8807 125 47.5C125 46.1193 123.881 45 122.5 45C121.119 45 120 46.1193 120 47.5C120 48.8807 121.119 50 122.5 50Z" fill="#FF4F4F"/>
<path d="M137.5 50C138.881 50 140 48.8807 140 47.5C140 46.1193 138.881 45 137.5 45C136.119 45 135 46.1193 135 47.5C135 48.8807 136.119 50 137.5 50Z" fill="#FF4F4F"/>
<path d="M2.5 65C3.88071 65 5 63.8807 5 62.5C5 61.1193 3.88071 60 2.5 60C1.11929 60 0 61.1193 0 62.5C0 63.8807 1.11929 65 2.5 65Z" fill="#FF4F4F"/>
<path d="M17.5 65C18.8807 65 20 63.8807 20 62.5C20 61.1193 18.8807 60 17.5 60C16.1193 60 15 61.1193 15 62.5C15 63.8807 16.1193 65 17.5 65Z" fill="#FF4F4F"/>
<path d="M32.5 65C33.8807 65 35 63.8807 35 62.5C35 61.1193 33.8807 60 32.5 60C31.1193 60 30 61.1193 30 62.5C30 63.8807 31.1193 65 32.5 65Z" fill="#FF4F4F"/>
<path d="M47.5 65C48.8807 65 50 63.8807 50 62.5C50 61.1193 48.8807 60 47.5 60C46.1193 60 45 61.1193 45 62.5C45 63.8807 46.1193 65 47.5 65Z" fill="#FF4F4F"/>
<path d="M62.5 65C63.8807 65 65 63.8807 65 62.5C65 61.1193 63.8807 60 62.5 60C61.1193 60 60 61.1193 60 62.5C60 63.8807 61.1193 65 62.5 65Z" fill="#FF4F4F"/>
<path d="M77.5 65C78.8807 65 80 63.8807 80 62.5C80 61.1193 78.8807 60 77.5 60C76.1193 60 75 61.1193 75 62.5C75 63.8807 76.1193 65 77.5 65Z" fill="#FF4F4F"/>
<path d="M92.5 65C93.8807 65 95 63.8807 95 62.5C95 61.1193 93.8807 60 92.5 60C91.1193 60 90 61.1193 90 62.5C90 63.8807 91.1193 65 92.5 65Z" fill="#FF4F4F"/>
<path d="M107.5 65C108.881 65 110 63.8807 110 62.5C110 61.1193 108.881 60 107.5 60C106.119 60 105 61.1193 105 62.5C105 63.8807 106.119 65 107.5 65Z" fill="#FF4F4F"/>
<path d="M122.5 65C123.881 65 125 63.8807 125 62.5C125 61.1193 123.881 60 122.5 60C121.119 60 120 61.1193 120 62.5C120 63.8807 121.119 65 122.5 65Z" fill="#FF4F4F"/>
<path d="M137.5 65C138.881 65 140 63.8807 140 62.5C140 61.1193 138.881 60 137.5 60C136.119 60 135 61.1193 135 62.5C135 63.8807 136.119 65 137.5 65Z" fill="#FF4F4F"/>
<path d="M2.5 80C3.88071 80 5 78.8807 5 77.5C5 76.1193 3.88071 75 2.5 75C1.11929 75 0 76.1193 0 77.5C0 78.8807 1.11929 80 2.5 80Z" fill="#FF4F4F"/>
<path d="M17.5 80C18.8807 80 20 78.8807 20 77.5C20 76.1193 18.8807 75 17.5 75C16.1193 75 15 76.1193 15 77.5C15 78.8807 16.1193 80 17.5 80Z" fill="#FF4F4F"/>
<path d="M32.5 80C33.8807 80 35 78.8807 35 77.5C35 76.1193 33.8807 75 32.5 75C31.1193 75 30 76.1193 30 77.5C30 78.8807 31.1193 80 32.5 80Z" fill="#FF4F4F"/>
<path d="M47.5 80C48.8807 80 50 78.8807 50 77.5C50 76.1193 48.8807 75 47.5 75C46.1193 75 45 76.1193 45 77.5C45 78.8807 46.1193 80 47.5 80Z" fill="#FF4F4F"/>
<path d="M62.5 80C63.8807 80 65 78.8807 65 77.5C65 76.1193 63.8807 75 62.5 75C61.1193 75 60 76.1193 60 77.5C60 78.8807 61.1193 80 62.5 80Z" fill="#FF4F4F"/>
<path d="M77.5 80C78.8807 80 80 78.8807 80 77.5C80 76.1193 78.8807 75 77.5 75C76.1193 75 75 76.1193 75 77.5C75 78.8807 76.1193 80 77.5 80Z" fill="#FF4F4F"/>
<path d="M92.5 80C93.8807 80 95 78.8807 95 77.5C95 76.1193 93.8807 75 92.5 75C91.1193 75 90 76.1193 90 77.5C90 78.8807 91.1193 80 92.5 80Z" fill="#FF4F4F"/>
<path d="M107.5 80C108.881 80 110 78.8807 110 77.5C110 76.1193 108.881 75 107.5 75C106.119 75 105 76.1193 105 77.5C105 78.8807 106.119 80 107.5 80Z" fill="#FF4F4F"/>
<path d="M122.5 80C123.881 80 125 78.8807 125 77.5C125 76.1193 123.881 75 122.5 75C121.119 75 120 76.1193 120 77.5C120 78.8807 121.119 80 122.5 80Z" fill="#FF4F4F"/>
<path d="M137.5 80C138.881 80 140 78.8807 140 77.5C140 76.1193 138.881 75 137.5 75C136.119 75 135 76.1193 135 77.5C135 78.8807 136.119 80 137.5 80Z" fill="#FF4F4F"/>
</svg>
