<svg width="108" height="70" viewBox="0 0 108 70" fill="none" xmlns="http://www.w3.org/2000/svg">
<g id="Decoration">
<g id="Group 7">
<g id="Group 1">
<rect id="Rectangle 4" x="2.82837" y="60.5356" width="1" height="9" transform="rotate(-45 2.82837 60.5356)" fill="#C4C4C4"/>
<rect id="Rectangle 5" x="3.53564" y="66.8995" width="1" height="9" transform="rotate(-135 3.53564 66.8995)" fill="#C4C4C4"/>
</g>
<g id="Group 2">
<rect id="Rectangle 4_2" x="21.8284" y="60.5356" width="1" height="9" transform="rotate(-45 21.8284 60.5356)" fill="#C4C4C4"/>
<rect id="Rectangle 5_2" x="22.5356" y="66.8995" width="1" height="9" transform="rotate(-135 22.5356 66.8995)" fill="#C4C4C4"/>
</g>
<g id="Group 3">
<rect id="Rectangle 4_3" x="40.8284" y="60.5356" width="1" height="9" transform="rotate(-45 40.8284 60.5356)" fill="#C4C4C4"/>
<rect id="Rectangle 5_3" x="41.5356" y="66.8995" width="1" height="9" transform="rotate(-135 41.5356 66.8995)" fill="#C4C4C4"/>
</g>
<g id="Group 4">
<rect id="Rectangle 4_4" x="59.8284" y="60.5356" width="1" height="9" transform="rotate(-45 59.8284 60.5356)" fill="#C4C4C4"/>
<rect id="Rectangle 5_4" x="60.5356" y="66.8995" width="1" height="9" transform="rotate(-135 60.5356 66.8995)" fill="#C4C4C4"/>
</g>
<g id="Group 5">
<rect id="Rectangle 4_5" x="78.8284" y="60.5356" width="1" height="9" transform="rotate(-45 78.8284 60.5356)" fill="#C4C4C4"/>
<rect id="Rectangle 5_5" x="79.5356" y="66.8995" width="1" height="9" transform="rotate(-135 79.5356 66.8995)" fill="#C4C4C4"/>
</g>
<g id="Group 6">
<rect id="Rectangle 4_6" x="97.8284" y="60.5356" width="1" height="9" transform="rotate(-45 97.8284 60.5356)" fill="#C4C4C4"/>
<rect id="Rectangle 5_6" x="98.5356" y="66.8995" width="1" height="9" transform="rotate(-135 98.5356 66.8995)" fill="#C4C4C4"/>
</g>
</g>
<g id="Group 8">
<g id="Group 1_2">
<rect id="Rectangle 4_7" x="2.82837" y="41.5356" width="1" height="9" transform="rotate(-45 2.82837 41.5356)" fill="#C4C4C4"/>
<rect id="Rectangle 5_7" x="3.53564" y="47.8995" width="1" height="9" transform="rotate(-135 3.53564 47.8995)" fill="#C4C4C4"/>
</g>
<g id="Group 2_2">
<rect id="Rectangle 4_8" x="21.8284" y="41.5356" width="1" height="9" transform="rotate(-45 21.8284 41.5356)" fill="#C4C4C4"/>
<rect id="Rectangle 5_8" x="22.5356" y="47.8995" width="1" height="9" transform="rotate(-135 22.5356 47.8995)" fill="#C4C4C4"/>
</g>
<g id="Group 3_2">
<rect id="Rectangle 4_9" x="40.8284" y="41.5356" width="1" height="9" transform="rotate(-45 40.8284 41.5356)" fill="#C4C4C4"/>
<rect id="Rectangle 5_9" x="41.5356" y="47.8995" width="1" height="9" transform="rotate(-135 41.5356 47.8995)" fill="#C4C4C4"/>
</g>
<g id="Group 4_2">
<rect id="Rectangle 4_10" x="59.8284" y="41.5356" width="1" height="9" transform="rotate(-45 59.8284 41.5356)" fill="#C4C4C4"/>
<rect id="Rectangle 5_10" x="60.5356" y="47.8995" width="1" height="9" transform="rotate(-135 60.5356 47.8995)" fill="#C4C4C4"/>
</g>
<g id="Group 5_2">
<rect id="Rectangle 4_11" x="78.8284" y="41.5356" width="1" height="9" transform="rotate(-45 78.8284 41.5356)" fill="#C4C4C4"/>
<rect id="Rectangle 5_11" x="79.5356" y="47.8995" width="1" height="9" transform="rotate(-135 79.5356 47.8995)" fill="#C4C4C4"/>
</g>
<g id="Group 6_2">
<rect id="Rectangle 4_12" x="97.8284" y="41.5356" width="1" height="9" transform="rotate(-45 97.8284 41.5356)" fill="#C4C4C4"/>
<rect id="Rectangle 5_12" x="98.5356" y="47.8995" width="1" height="9" transform="rotate(-135 98.5356 47.8995)" fill="#C4C4C4"/>
</g>
</g>
<g id="Group 9">
<g id="Group 1_3">
<rect id="Rectangle 4_13" x="2.82837" y="22.5356" width="1" height="9" transform="rotate(-45 2.82837 22.5356)" fill="#C4C4C4"/>
<rect id="Rectangle 5_13" x="3.53564" y="28.8995" width="1" height="9" transform="rotate(-135 3.53564 28.8995)" fill="#C4C4C4"/>
</g>
<g id="Group 2_3">
<rect id="Rectangle 4_14" x="21.8284" y="22.5356" width="1" height="9" transform="rotate(-45 21.8284 22.5356)" fill="#C4C4C4"/>
<rect id="Rectangle 5_14" x="22.5356" y="28.8995" width="1" height="9" transform="rotate(-135 22.5356 28.8995)" fill="#C4C4C4"/>
</g>
<g id="Group 3_3">
<rect id="Rectangle 4_15" x="40.8284" y="22.5356" width="1" height="9" transform="rotate(-45 40.8284 22.5356)" fill="#C4C4C4"/>
<rect id="Rectangle 5_15" x="41.5356" y="28.8995" width="1" height="9" transform="rotate(-135 41.5356 28.8995)" fill="#C4C4C4"/>
</g>
<g id="Group 4_3">
<rect id="Rectangle 4_16" x="59.8284" y="22.5356" width="1" height="9" transform="rotate(-45 59.8284 22.5356)" fill="#C4C4C4"/>
<rect id="Rectangle 5_16" x="60.5356" y="28.8995" width="1" height="9" transform="rotate(-135 60.5356 28.8995)" fill="#C4C4C4"/>
</g>
<g id="Group 5_3">
<rect id="Rectangle 4_17" x="78.8284" y="22.5356" width="1" height="9" transform="rotate(-45 78.8284 22.5356)" fill="#C4C4C4"/>
<rect id="Rectangle 5_17" x="79.5356" y="28.8995" width="1" height="9" transform="rotate(-135 79.5356 28.8995)" fill="#C4C4C4"/>
</g>
<g id="Group 6_3">
<rect id="Rectangle 4_18" x="97.8284" y="22.5356" width="1" height="9" transform="rotate(-45 97.8284 22.5356)" fill="#C4C4C4"/>
<rect id="Rectangle 5_18" x="98.5356" y="28.8995" width="1" height="9" transform="rotate(-135 98.5356 28.8995)" fill="#C4C4C4"/>
</g>
</g>
<g id="Group 10">
<g id="Group 1_4">
<rect id="Rectangle 4_19" x="2.82837" y="3.53564" width="1" height="9" transform="rotate(-45 2.82837 3.53564)" fill="#C4C4C4"/>
<rect id="Rectangle 5_19" x="3.53564" y="9.89954" width="1" height="9" transform="rotate(-135 3.53564 9.89954)" fill="#C4C4C4"/>
</g>
<g id="Group 2_4">
<rect id="Rectangle 4_20" x="21.8284" y="3.53564" width="1" height="9" transform="rotate(-45 21.8284 3.53564)" fill="#C4C4C4"/>
<rect id="Rectangle 5_20" x="22.5356" y="9.89954" width="1" height="9" transform="rotate(-135 22.5356 9.89954)" fill="#C4C4C4"/>
</g>
<g id="Group 3_4">
<rect id="Rectangle 4_21" x="40.8284" y="3.53564" width="1" height="9" transform="rotate(-45 40.8284 3.53564)" fill="#C4C4C4"/>
<rect id="Rectangle 5_21" x="41.5356" y="9.89954" width="1" height="9" transform="rotate(-135 41.5356 9.89954)" fill="#C4C4C4"/>
</g>
<g id="Group 4_4">
<rect id="Rectangle 4_22" x="59.8284" y="3.53564" width="1" height="9" transform="rotate(-45 59.8284 3.53564)" fill="#C4C4C4"/>
<rect id="Rectangle 5_22" x="60.5356" y="9.89954" width="1" height="9" transform="rotate(-135 60.5356 9.89954)" fill="#C4C4C4"/>
</g>
<g id="Group 5_4">
<rect id="Rectangle 4_23" x="78.8284" y="3.53564" width="1" height="9" transform="rotate(-45 78.8284 3.53564)" fill="#C4C4C4"/>
<rect id="Rectangle 5_23" x="79.5356" y="9.89954" width="1" height="9" transform="rotate(-135 79.5356 9.89954)" fill="#C4C4C4"/>
</g>
<g id="Group 6_4">
<rect id="Rectangle 4_24" x="97.8284" y="3.53564" width="1" height="9" transform="rotate(-45 97.8284 3.53564)" fill="#C4C4C4"/>
<rect id="Rectangle 5_24" x="98.5356" y="9.89954" width="1" height="9" transform="rotate(-135 98.5356 9.89954)" fill="#C4C4C4"/>
</g>
</g>
</g>
</svg>
