<svg width="12" height="12" viewBox="0 0 12 12" fill="none" xmlns="http://www.w3.org/2000/svg">
<path d="M6 2.323C5.54056 2.323 5.09143 2.45924 4.70941 2.7145C4.3274 2.96975 4.02965 3.33255 3.85383 3.75703C3.67801 4.1815 3.632 4.64858 3.72164 5.09919C3.81127 5.54981 4.03252 5.96373 4.35739 6.28861C4.68227 6.61349 5.09619 6.83473 5.54681 6.92436C5.99743 7.014 6.4645 6.96799 6.88898 6.79217C7.31345 6.61635 7.67625 6.3186 7.93151 5.93659C8.18676 5.55457 8.323 5.10545 8.323 4.646C8.323 4.0299 8.07826 3.43904 7.64261 3.00339C7.20696 2.56774 6.6161 2.323 6 2.323ZM6 5.807C5.77038 5.807 5.54591 5.73891 5.35499 5.61134C5.16406 5.48376 5.01525 5.30244 4.92738 5.0903C4.83951 4.87815 4.81651 4.64471 4.86131 4.4195C4.90611 4.19429 5.01668 3.98742 5.17905 3.82505C5.34142 3.66268 5.54829 3.55211 5.7735 3.50731C5.99871 3.46251 6.23215 3.4855 6.4443 3.57338C6.65644 3.66125 6.83777 3.81006 6.96534 4.00098C7.09291 4.19191 7.161 4.41638 7.161 4.646C7.16047 4.95366 7.03795 5.24856 6.82031 5.46601C6.60266 5.68347 6.30766 5.80574 6 5.806V5.807ZM6 0C4.81331 0 3.65328 0.351894 2.66658 1.01118C1.67989 1.67047 0.910851 2.60754 0.456726 3.7039C0.00259972 4.80026 -0.11622 6.00666 0.115291 7.17054C0.346802 8.33443 0.918247 9.40353 1.75736 10.2426C2.59648 11.0818 3.66558 11.6532 4.82946 11.8847C5.99335 12.1162 7.19975 11.9974 8.2961 11.5433C9.39246 11.0892 10.3295 10.3201 10.9888 9.33342C11.6481 8.34673 12 7.18669 12 6C12 4.4087 11.3679 2.88258 10.2426 1.75736C9.11742 0.632141 7.5913 0 6 0ZM6 10.839C4.84407 10.8395 3.72658 10.4238 2.852 9.668C3.03438 9.38427 3.2829 9.14905 3.57622 8.98253C3.86954 8.81601 4.1989 8.72318 4.536 8.712C5.00949 8.86279 5.50309 8.94101 6 8.944C6.49701 8.9422 6.99079 8.86395 7.464 8.712C7.801 8.72368 8.13016 8.81673 8.4234 8.9832C8.71664 9.14967 8.96525 9.38462 9.148 9.668C8.27342 10.4238 7.15594 10.8395 6 10.839ZM9.936 8.8C9.63671 8.40978 9.25173 8.09358 8.8108 7.8758C8.36987 7.65802 7.88478 7.5445 7.393 7.544C6.93748 7.66811 6.47094 7.74748 6 7.781C5.52893 7.74893 5.06207 7.67123 4.606 7.549C4.1149 7.54959 3.63046 7.66265 3.18982 7.8795C2.74919 8.09635 2.36407 8.41123 2.064 8.8C1.62224 8.17976 1.33318 7.46396 1.22037 6.71089C1.10756 5.95781 1.17418 5.18873 1.41481 4.46627C1.65543 3.74381 2.06327 3.08838 2.60511 2.55334C3.14695 2.0183 3.80748 1.61878 4.53292 1.3873C5.25837 1.15582 6.02822 1.09892 6.77982 1.22124C7.53141 1.34356 8.2435 1.64163 8.8581 2.0912C9.47271 2.54077 9.97247 3.12912 10.3167 3.80836C10.6609 4.48759 10.8399 5.23852 10.839 6C10.8385 7.00484 10.5227 7.98419 9.936 8.8Z" fill="#FF4F4F"/>
</svg>
