<svg width="18" height="16" viewBox="0 0 18 16" fill="none" xmlns="http://www.w3.org/2000/svg">
<path d="M17.7422 4.00024C17.6641 5.70336 16.4766 8.03539 14.1719 10.9963C11.793 14.0901 9.78125 15.637 8.13281 15.637C7.11328 15.637 6.25 14.6955 5.54297 12.8127C4.16797 7.76586 3.58203 4.80883 2.44531 4.80883C2.3125 4.80883 1.85547 5.08617 1.07031 5.63305L0.25 4.57055C2.26562 2.80102 4.19141 0.832269 5.39844 0.722894C6.76172 0.590081 7.59766 1.52367 7.91406 3.51586C9.03516 10.6057 9.53125 11.676 11.5703 8.46508C12.3008 7.30883 12.6953 6.42993 12.75 5.82446C12.9375 4.03149 11.3516 4.15258 10.2773 4.61352C11.1367 1.79711 12.7812 0.429925 15.207 0.50805C16.9961 0.554925 17.8437 1.72289 17.7422 4.00024Z" fill="#444444"/>
</svg>
