<svg width="14" height="11" viewBox="0 0 14 11" fill="none" xmlns="http://www.w3.org/2000/svg">
<path d="M12.688 1.75H7.438L5.944 0.255997C5.86269 0.174763 5.76618 0.110347 5.65997 0.0664219C5.55376 0.0224967 5.43993 -7.35815e-05 5.325 3.81092e-07H1.313C1.14062 -0.000131005 0.969907 0.0337115 0.810613 0.0995869C0.651318 0.165462 0.506566 0.262076 0.38463 0.383919C0.262693 0.505763 0.165963 0.650441 0.099966 0.809685C0.0339693 0.96893 3.31352e-07 1.13962 3.81423e-07 1.312V9.187C-0.000131119 9.35946 0.0337409 9.53026 0.0996787 9.68962C0.165617 9.84898 0.262326 9.99377 0.384276 10.1157C0.506225 10.2377 0.651022 10.3344 0.810381 10.4003C0.969741 10.4663 1.14054 10.5001 1.313 10.5H12.688C12.8604 10.5 13.0311 10.466 13.1903 10.4C13.3496 10.334 13.4942 10.2373 13.6161 10.1154C13.7379 9.99343 13.8345 9.84868 13.9004 9.68938C13.9663 9.53009 14.0001 9.35938 14 9.187V3.062C14 2.71403 13.8618 2.38033 13.6157 2.13428C13.3697 1.88823 13.036 1.75 12.688 1.75ZM12.688 9.188H1.313V1.312H5.144L6.638 2.806C6.71931 2.88723 6.81582 2.95165 6.92203 2.99558C7.02824 3.0395 7.14207 3.06207 7.257 3.062H12.688V9.188Z" fill="#FF4F4F"/>
</svg>
