<svg width="150" height="40" viewBox="0 0 150 40" fill="none" xmlns="http://www.w3.org/2000/svg">
<rect width="150" height="40" rx="20" fill="#444444"/>
<path d="M27.296 15.44H23.568V26H27.296C30.608 26 32.544 24.112 32.544 20.72C32.544 17.328 30.608 15.44 27.296 15.44ZM27.296 24.544H25.28V16.896H27.296C29.52 16.896 30.752 18.288 30.752 20.72C30.752 23.152 29.52 24.544 27.296 24.544ZM40.3796 18V22.32C40.3796 24.016 39.3556 24.752 38.1396 24.752C37.1316 24.752 36.4916 24.304 36.4916 22.816V18H34.7796V23.264C34.7796 25.344 36.0596 26.16 37.6596 26.16C38.9556 26.16 39.9476 25.712 40.4916 24.704L40.5716 26H42.0916V18H40.3796ZM48.8779 17.84C47.6459 17.84 46.7979 18.384 46.3659 19.424L46.2059 18H44.7499V26H46.4619V21.76C46.4619 20.128 47.5179 19.36 48.4779 19.36C48.9099 19.36 49.2619 19.44 49.4859 19.568L49.7579 18C49.5339 17.888 49.1979 17.84 48.8779 17.84ZM58.115 24.88C57.683 24.88 57.523 24.688 57.523 24.288V20.672C57.523 18.752 56.147 17.84 54.147 17.84C52.403 17.84 51.171 18.656 50.787 19.92L52.115 20.624C52.451 19.616 53.187 19.184 54.179 19.184C55.219 19.184 55.811 19.808 55.811 20.768V21.184L53.779 21.552C51.683 21.92 50.659 22.832 50.659 24.064C50.659 25.456 51.763 26.16 53.267 26.16C54.451 26.16 55.475 25.728 55.971 24.96C56.147 25.84 56.739 26.16 57.603 26.16C58.003 26.16 58.339 26.08 58.595 25.968L58.707 24.816C58.531 24.864 58.323 24.88 58.115 24.88ZM53.635 24.864C52.883 24.864 52.435 24.544 52.435 23.952C52.435 23.312 52.979 22.944 54.067 22.736L55.811 22.384V23.344C55.811 24.304 54.707 24.864 53.635 24.864ZM64.7995 24.224C64.4475 24.544 64.0475 24.736 63.5035 24.736C62.7995 24.736 62.3355 24.384 62.3355 23.6V19.344H65.1355V18H62.3355V15.648L60.6235 16.128V18H59.1035V19.344H60.6235V23.888C60.6395 25.536 61.6955 26.16 63.0715 26.16C63.9355 26.16 64.6875 25.904 65.1995 25.472L64.7995 24.224ZM67.6608 16.656C68.3968 16.656 68.7968 16.256 68.7968 15.584C68.7968 14.912 68.3968 14.528 67.6608 14.528C66.9248 14.528 66.5088 14.912 66.5088 15.584C66.5088 16.256 66.9248 16.656 67.6608 16.656ZM68.5088 18H66.7968V26H68.5088V18ZM74.7074 17.84C72.2114 17.84 70.7234 19.392 70.7234 22C70.7234 24.608 72.2114 26.16 74.7074 26.16C77.2034 26.16 78.6914 24.608 78.6914 22C78.6914 19.392 77.2034 17.84 74.7074 17.84ZM74.7074 19.184C76.1474 19.184 76.9794 20.192 76.9794 22C76.9794 23.808 76.1474 24.816 74.7074 24.816C73.2674 24.816 72.4514 23.808 72.4514 22C72.4514 20.192 73.2674 19.184 74.7074 19.184ZM85.1945 17.84C84.0425 17.84 83.0345 18.288 82.4905 19.344L82.4105 18H80.8905V26H82.6025V21.76C82.6025 19.92 83.7225 19.248 84.7785 19.248C85.7545 19.248 86.4905 19.776 86.4905 21.36V26H88.2025V20.816C88.2025 18.816 86.8905 17.84 85.1945 17.84ZM99.3599 15.28C97.6159 15.28 96.2239 16.128 95.7599 17.68L97.3279 18.32C97.5199 17.328 98.1919 16.752 99.3279 16.752C100.448 16.752 101.088 17.328 101.072 18.432C101.056 19.504 100.4 20.016 99.0879 20.016H98.6559V21.376H99.1359C100.592 21.376 101.296 21.776 101.312 22.928C101.328 23.968 100.576 24.688 99.2639 24.688C97.8879 24.688 97.2799 24.016 96.9759 22.848L95.4079 23.6C96.0319 25.312 97.2799 26.16 99.1999 26.16C101.504 26.16 103.04 24.896 103.04 23.152C103.04 21.648 102.016 20.688 100.816 20.688V20.656C101.744 20.656 102.8 19.68 102.8 18.096C102.8 16.544 101.6 15.28 99.3599 15.28ZM106.431 17.84C105.695 17.84 105.215 18.288 105.215 18.992C105.215 19.696 105.695 20.16 106.431 20.16C107.167 20.16 107.631 19.696 107.631 18.992C107.631 18.288 107.167 17.84 106.431 17.84ZM106.431 23.84C105.695 23.84 105.215 24.288 105.215 24.992C105.215 25.696 105.695 26.16 106.431 26.16C107.167 26.16 107.631 25.696 107.631 24.992C107.631 24.288 107.167 23.84 106.431 23.84ZM109.933 26H117.277V24.528H113.949C113.516 24.528 112.605 24.56 112.205 24.592V24.56C115.709 22.32 117.085 20.624 117.085 18.608C117.085 16.752 115.757 15.28 113.421 15.28C111.197 15.28 109.805 16.56 109.597 18.56L111.085 19.248C111.197 17.712 111.997 16.768 113.325 16.768C114.573 16.768 115.325 17.552 115.325 18.672C115.325 20.432 113.981 21.888 109.933 24.736V26ZM122.955 15.28C120.619 15.28 119.179 16.608 119.179 18.752C119.179 20.832 120.635 22.16 122.683 22.16C123.867 22.16 125.179 21.696 125.499 20.352H125.563V20.528C125.563 23.088 124.891 24.688 122.939 24.688C121.563 24.688 121.131 24.032 120.827 23.04L119.211 23.792C119.835 25.36 121.003 26.16 122.939 26.16C125.627 26.16 127.131 24.352 127.131 20.736C127.131 17.408 125.659 15.28 122.955 15.28ZM122.955 16.784C124.187 16.784 125.019 17.568 125.019 18.768C125.019 19.92 124.187 20.704 122.955 20.704C121.643 20.704 120.891 19.968 120.891 18.768C120.891 17.52 121.643 16.784 122.955 16.784Z" fill="white"/>
</svg>
