<svg width="73" height="83" viewBox="0 0 73 83" fill="none" xmlns="http://www.w3.org/2000/svg">
<g id="Group 325">
<g id="Group 314">
<circle id="Ellipse 64" cx="1.5" cy="1.5" r="1.5" fill="#387EFA"/>
<circle id="Ellipse 65" cx="11.5" cy="1.5" r="1.5" fill="#387EFA"/>
<circle id="Ellipse 66" cx="21.5" cy="1.5" r="1.5" fill="#387EFA"/>
<circle id="Ellipse 67" cx="31.5" cy="1.5" r="1.5" fill="#387EFA"/>
<circle id="Ellipse 68" cx="41.5" cy="1.5" r="1.5" fill="#387EFA"/>
<circle id="Ellipse 69" cx="51.5" cy="1.5" r="1.5" fill="#387EFA"/>
<circle id="Ellipse 70" cx="61.5" cy="1.5" r="1.5" fill="#387EFA"/>
<circle id="Ellipse 71" cx="71.5" cy="1.5" r="1.5" fill="#387EFA"/>
</g>
<g id="Group 315">
<circle id="Ellipse 64_2" cx="1.5" cy="9.5" r="1.5" fill="#387EFA"/>
<circle id="Ellipse 65_2" cx="11.5" cy="9.5" r="1.5" fill="#387EFA"/>
<circle id="Ellipse 66_2" cx="21.5" cy="9.5" r="1.5" fill="#387EFA"/>
<circle id="Ellipse 67_2" cx="31.5" cy="9.5" r="1.5" fill="#387EFA"/>
<circle id="Ellipse 68_2" cx="41.5" cy="9.5" r="1.5" fill="#387EFA"/>
<circle id="Ellipse 69_2" cx="51.5" cy="9.5" r="1.5" fill="#387EFA"/>
<circle id="Ellipse 70_2" cx="61.5" cy="9.5" r="1.5" fill="#387EFA"/>
<circle id="Ellipse 71_2" cx="71.5" cy="9.5" r="1.5" fill="#387EFA"/>
</g>
<g id="Group 316">
<circle id="Ellipse 64_3" cx="1.5" cy="17.5" r="1.5" fill="#387EFA"/>
<circle id="Ellipse 65_3" cx="11.5" cy="17.5" r="1.5" fill="#387EFA"/>
<circle id="Ellipse 66_3" cx="21.5" cy="17.5" r="1.5" fill="#387EFA"/>
<circle id="Ellipse 67_3" cx="31.5" cy="17.5" r="1.5" fill="#387EFA"/>
<circle id="Ellipse 68_3" cx="41.5" cy="17.5" r="1.5" fill="#387EFA"/>
<circle id="Ellipse 69_3" cx="51.5" cy="17.5" r="1.5" fill="#387EFA"/>
<circle id="Ellipse 70_3" cx="61.5" cy="17.5" r="1.5" fill="#387EFA"/>
<circle id="Ellipse 71_3" cx="71.5" cy="17.5" r="1.5" fill="#387EFA"/>
</g>
<g id="Group 317">
<circle id="Ellipse 64_4" cx="1.5" cy="25.5" r="1.5" fill="#387EFA"/>
<circle id="Ellipse 65_4" cx="11.5" cy="25.5" r="1.5" fill="#387EFA"/>
<circle id="Ellipse 66_4" cx="21.5" cy="25.5" r="1.5" fill="#387EFA"/>
<circle id="Ellipse 67_4" cx="31.5" cy="25.5" r="1.5" fill="#387EFA"/>
<circle id="Ellipse 68_4" cx="41.5" cy="25.5" r="1.5" fill="#387EFA"/>
<circle id="Ellipse 69_4" cx="51.5" cy="25.5" r="1.5" fill="#387EFA"/>
<circle id="Ellipse 70_4" cx="61.5" cy="25.5" r="1.5" fill="#387EFA"/>
<circle id="Ellipse 71_4" cx="71.5" cy="25.5" r="1.5" fill="#387EFA"/>
</g>
<g id="Group 318">
<circle id="Ellipse 64_5" cx="1.5" cy="33.5" r="1.5" fill="#387EFA"/>
<circle id="Ellipse 65_5" cx="11.5" cy="33.5" r="1.5" fill="#387EFA"/>
<circle id="Ellipse 66_5" cx="21.5" cy="33.5" r="1.5" fill="#387EFA"/>
<circle id="Ellipse 67_5" cx="31.5" cy="33.5" r="1.5" fill="#387EFA"/>
<circle id="Ellipse 68_5" cx="41.5" cy="33.5" r="1.5" fill="#387EFA"/>
<circle id="Ellipse 69_5" cx="51.5" cy="33.5" r="1.5" fill="#387EFA"/>
<circle id="Ellipse 70_5" cx="61.5" cy="33.5" r="1.5" fill="#387EFA"/>
<circle id="Ellipse 71_5" cx="71.5" cy="33.5" r="1.5" fill="#387EFA"/>
</g>
<g id="Group 319">
<circle id="Ellipse 64_6" cx="1.5" cy="41.5" r="1.5" fill="#387EFA"/>
<circle id="Ellipse 65_6" cx="11.5" cy="41.5" r="1.5" fill="#387EFA"/>
<circle id="Ellipse 66_6" cx="21.5" cy="41.5" r="1.5" fill="#387EFA"/>
<circle id="Ellipse 67_6" cx="31.5" cy="41.5" r="1.5" fill="#387EFA"/>
<circle id="Ellipse 68_6" cx="41.5" cy="41.5" r="1.5" fill="#387EFA"/>
<circle id="Ellipse 69_6" cx="51.5" cy="41.5" r="1.5" fill="#387EFA"/>
<circle id="Ellipse 70_6" cx="61.5" cy="41.5" r="1.5" fill="#387EFA"/>
<circle id="Ellipse 71_6" cx="71.5" cy="41.5" r="1.5" fill="#387EFA"/>
</g>
<g id="Group 320">
<circle id="Ellipse 64_7" cx="1.5" cy="49.5" r="1.5" fill="#387EFA"/>
<circle id="Ellipse 65_7" cx="11.5" cy="49.5" r="1.5" fill="#387EFA"/>
<circle id="Ellipse 66_7" cx="21.5" cy="49.5" r="1.5" fill="#387EFA"/>
<circle id="Ellipse 67_7" cx="31.5" cy="49.5" r="1.5" fill="#387EFA"/>
<circle id="Ellipse 68_7" cx="41.5" cy="49.5" r="1.5" fill="#387EFA"/>
<circle id="Ellipse 69_7" cx="51.5" cy="49.5" r="1.5" fill="#387EFA"/>
<circle id="Ellipse 70_7" cx="61.5" cy="49.5" r="1.5" fill="#387EFA"/>
<circle id="Ellipse 71_7" cx="71.5" cy="49.5" r="1.5" fill="#387EFA"/>
</g>
<g id="Group 321">
<circle id="Ellipse 64_8" cx="1.5" cy="57.5" r="1.5" fill="#387EFA"/>
<circle id="Ellipse 65_8" cx="11.5" cy="57.5" r="1.5" fill="#387EFA"/>
<circle id="Ellipse 66_8" cx="21.5" cy="57.5" r="1.5" fill="#387EFA"/>
<circle id="Ellipse 67_8" cx="31.5" cy="57.5" r="1.5" fill="#387EFA"/>
<circle id="Ellipse 68_8" cx="41.5" cy="57.5" r="1.5" fill="#387EFA"/>
<circle id="Ellipse 69_8" cx="51.5" cy="57.5" r="1.5" fill="#387EFA"/>
<circle id="Ellipse 70_8" cx="61.5" cy="57.5" r="1.5" fill="#387EFA"/>
<circle id="Ellipse 71_8" cx="71.5" cy="57.5" r="1.5" fill="#387EFA"/>
</g>
<g id="Group 322">
<circle id="Ellipse 64_9" cx="1.5" cy="65.5" r="1.5" fill="#387EFA"/>
<circle id="Ellipse 65_9" cx="11.5" cy="65.5" r="1.5" fill="#387EFA"/>
<circle id="Ellipse 66_9" cx="21.5" cy="65.5" r="1.5" fill="#387EFA"/>
<circle id="Ellipse 67_9" cx="31.5" cy="65.5" r="1.5" fill="#387EFA"/>
<circle id="Ellipse 68_9" cx="41.5" cy="65.5" r="1.5" fill="#387EFA"/>
<circle id="Ellipse 69_9" cx="51.5" cy="65.5" r="1.5" fill="#387EFA"/>
<circle id="Ellipse 70_9" cx="61.5" cy="65.5" r="1.5" fill="#387EFA"/>
<circle id="Ellipse 71_9" cx="71.5" cy="65.5" r="1.5" fill="#387EFA"/>
</g>
<g id="Group 323">
<circle id="Ellipse 64_10" cx="1.5" cy="73.5" r="1.5" fill="#387EFA"/>
<circle id="Ellipse 65_10" cx="11.5" cy="73.5" r="1.5" fill="#387EFA"/>
<circle id="Ellipse 66_10" cx="21.5" cy="73.5" r="1.5" fill="#387EFA"/>
<circle id="Ellipse 67_10" cx="31.5" cy="73.5" r="1.5" fill="#387EFA"/>
<circle id="Ellipse 68_10" cx="41.5" cy="73.5" r="1.5" fill="#387EFA"/>
<circle id="Ellipse 69_10" cx="51.5" cy="73.5" r="1.5" fill="#387EFA"/>
<circle id="Ellipse 70_10" cx="61.5" cy="73.5" r="1.5" fill="#387EFA"/>
<circle id="Ellipse 71_10" cx="71.5" cy="73.5" r="1.5" fill="#387EFA"/>
</g>
<g id="Group 324">
<circle id="Ellipse 64_11" cx="1.5" cy="81.5" r="1.5" fill="#387EFA"/>
<circle id="Ellipse 65_11" cx="11.5" cy="81.5" r="1.5" fill="#387EFA"/>
<circle id="Ellipse 66_11" cx="21.5" cy="81.5" r="1.5" fill="#387EFA"/>
<circle id="Ellipse 67_11" cx="31.5" cy="81.5" r="1.5" fill="#387EFA"/>
<circle id="Ellipse 68_11" cx="41.5" cy="81.5" r="1.5" fill="#387EFA"/>
<circle id="Ellipse 69_11" cx="51.5" cy="81.5" r="1.5" fill="#387EFA"/>
<circle id="Ellipse 70_11" cx="61.5" cy="81.5" r="1.5" fill="#387EFA"/>
<circle id="Ellipse 71_11" cx="71.5" cy="81.5" r="1.5" fill="#387EFA"/>
</g>
</g>
</svg>
