<svg width="122" height="134" viewBox="0 0 122 134" fill="none" xmlns="http://www.w3.org/2000/svg">
<g id="Group 9613">
<g id="Group 9602">
<rect id="Rectangle 1320" width="2" height="2" fill="white"/>
<rect id="Rectangle 1321" y="12" width="2" height="2" fill="white"/>
<rect id="Rectangle 1322" y="24" width="2" height="2" fill="white"/>
<rect id="Rectangle 1323" y="36" width="2" height="2" fill="white"/>
<rect id="Rectangle 1324" y="48" width="2" height="2" fill="white"/>
<rect id="Rectangle 1325" y="60" width="2" height="2" fill="white"/>
<rect id="Rectangle 1326" y="72" width="2" height="2" fill="white"/>
<rect id="Rectangle 1327" y="84" width="2" height="2" fill="white"/>
<rect id="Rectangle 1328" y="96" width="2" height="2" fill="white"/>
<rect id="Rectangle 1329" y="108" width="2" height="2" fill="white"/>
<rect id="Rectangle 1330" y="120" width="2" height="2" fill="white"/>
<rect id="Rectangle 1331" y="132" width="2" height="2" fill="white"/>
</g>
<g id="Group 9603">
<rect id="Rectangle 1320_2" x="12" width="2" height="2" fill="white"/>
<rect id="Rectangle 1321_2" x="12" y="12" width="2" height="2" fill="white"/>
<rect id="Rectangle 1322_2" x="12" y="24" width="2" height="2" fill="white"/>
<rect id="Rectangle 1323_2" x="12" y="36" width="2" height="2" fill="white"/>
<rect id="Rectangle 1324_2" x="12" y="48" width="2" height="2" fill="white"/>
<rect id="Rectangle 1325_2" x="12" y="60" width="2" height="2" fill="white"/>
<rect id="Rectangle 1326_2" x="12" y="72" width="2" height="2" fill="white"/>
<rect id="Rectangle 1327_2" x="12" y="84" width="2" height="2" fill="white"/>
<rect id="Rectangle 1328_2" x="12" y="96" width="2" height="2" fill="white"/>
<rect id="Rectangle 1329_2" x="12" y="108" width="2" height="2" fill="white"/>
<rect id="Rectangle 1330_2" x="12" y="120" width="2" height="2" fill="white"/>
<rect id="Rectangle 1331_2" x="12" y="132" width="2" height="2" fill="white"/>
</g>
<g id="Group 9604">
<rect id="Rectangle 1320_3" x="24" width="2" height="2" fill="white"/>
<rect id="Rectangle 1321_3" x="24" y="12" width="2" height="2" fill="white"/>
<rect id="Rectangle 1322_3" x="24" y="24" width="2" height="2" fill="white"/>
<rect id="Rectangle 1323_3" x="24" y="36" width="2" height="2" fill="white"/>
<rect id="Rectangle 1324_3" x="24" y="48" width="2" height="2" fill="white"/>
<rect id="Rectangle 1325_3" x="24" y="60" width="2" height="2" fill="white"/>
<rect id="Rectangle 1326_3" x="24" y="72" width="2" height="2" fill="white"/>
<rect id="Rectangle 1327_3" x="24" y="84" width="2" height="2" fill="white"/>
<rect id="Rectangle 1328_3" x="24" y="96" width="2" height="2" fill="white"/>
<rect id="Rectangle 1329_3" x="24" y="108" width="2" height="2" fill="white"/>
<rect id="Rectangle 1330_3" x="24" y="120" width="2" height="2" fill="white"/>
<rect id="Rectangle 1331_3" x="24" y="132" width="2" height="2" fill="white"/>
</g>
<g id="Group 9605">
<rect id="Rectangle 1320_4" x="36" width="2" height="2" fill="white"/>
<rect id="Rectangle 1321_4" x="36" y="12" width="2" height="2" fill="white"/>
<rect id="Rectangle 1322_4" x="36" y="24" width="2" height="2" fill="white"/>
<rect id="Rectangle 1323_4" x="36" y="36" width="2" height="2" fill="white"/>
<rect id="Rectangle 1324_4" x="36" y="48" width="2" height="2" fill="white"/>
<rect id="Rectangle 1325_4" x="36" y="60" width="2" height="2" fill="white"/>
<rect id="Rectangle 1326_4" x="36" y="72" width="2" height="2" fill="white"/>
<rect id="Rectangle 1327_4" x="36" y="84" width="2" height="2" fill="white"/>
<rect id="Rectangle 1328_4" x="36" y="96" width="2" height="2" fill="white"/>
<rect id="Rectangle 1329_4" x="36" y="108" width="2" height="2" fill="white"/>
<rect id="Rectangle 1330_4" x="36" y="120" width="2" height="2" fill="white"/>
<rect id="Rectangle 1331_4" x="36" y="132" width="2" height="2" fill="white"/>
</g>
<g id="Group 9606">
<rect id="Rectangle 1320_5" x="48" width="2" height="2" fill="white"/>
<rect id="Rectangle 1321_5" x="48" y="12" width="2" height="2" fill="white"/>
<rect id="Rectangle 1322_5" x="48" y="24" width="2" height="2" fill="white"/>
<rect id="Rectangle 1323_5" x="48" y="36" width="2" height="2" fill="white"/>
<rect id="Rectangle 1324_5" x="48" y="48" width="2" height="2" fill="white"/>
<rect id="Rectangle 1325_5" x="48" y="60" width="2" height="2" fill="white"/>
<rect id="Rectangle 1326_5" x="48" y="72" width="2" height="2" fill="white"/>
<rect id="Rectangle 1327_5" x="48" y="84" width="2" height="2" fill="white"/>
<rect id="Rectangle 1328_5" x="48" y="96" width="2" height="2" fill="white"/>
<rect id="Rectangle 1329_5" x="48" y="108" width="2" height="2" fill="white"/>
<rect id="Rectangle 1330_5" x="48" y="120" width="2" height="2" fill="white"/>
<rect id="Rectangle 1331_5" x="48" y="132" width="2" height="2" fill="white"/>
</g>
<g id="Group 9607">
<rect id="Rectangle 1320_6" x="60" width="2" height="2" fill="white"/>
<rect id="Rectangle 1321_6" x="60" y="12" width="2" height="2" fill="white"/>
<rect id="Rectangle 1322_6" x="60" y="24" width="2" height="2" fill="white"/>
<rect id="Rectangle 1323_6" x="60" y="36" width="2" height="2" fill="white"/>
<rect id="Rectangle 1324_6" x="60" y="48" width="2" height="2" fill="white"/>
<rect id="Rectangle 1325_6" x="60" y="60" width="2" height="2" fill="white"/>
<rect id="Rectangle 1326_6" x="60" y="72" width="2" height="2" fill="white"/>
<rect id="Rectangle 1327_6" x="60" y="84" width="2" height="2" fill="white"/>
<rect id="Rectangle 1328_6" x="60" y="96" width="2" height="2" fill="white"/>
<rect id="Rectangle 1329_6" x="60" y="108" width="2" height="2" fill="white"/>
<rect id="Rectangle 1330_6" x="60" y="120" width="2" height="2" fill="white"/>
<rect id="Rectangle 1331_6" x="60" y="132" width="2" height="2" fill="white"/>
</g>
<g id="Group 9608">
<rect id="Rectangle 1320_7" x="72" width="2" height="2" fill="white"/>
<rect id="Rectangle 1321_7" x="72" y="12" width="2" height="2" fill="white"/>
<rect id="Rectangle 1322_7" x="72" y="24" width="2" height="2" fill="white"/>
<rect id="Rectangle 1323_7" x="72" y="36" width="2" height="2" fill="white"/>
<rect id="Rectangle 1324_7" x="72" y="48" width="2" height="2" fill="white"/>
<rect id="Rectangle 1325_7" x="72" y="60" width="2" height="2" fill="white"/>
<rect id="Rectangle 1326_7" x="72" y="72" width="2" height="2" fill="white"/>
<rect id="Rectangle 1327_7" x="72" y="84" width="2" height="2" fill="white"/>
<rect id="Rectangle 1328_7" x="72" y="96" width="2" height="2" fill="white"/>
<rect id="Rectangle 1329_7" x="72" y="108" width="2" height="2" fill="white"/>
<rect id="Rectangle 1330_7" x="72" y="120" width="2" height="2" fill="white"/>
<rect id="Rectangle 1331_7" x="72" y="132" width="2" height="2" fill="white"/>
</g>
<g id="Group 9609">
<rect id="Rectangle 1320_8" x="84" width="2" height="2" fill="white"/>
<rect id="Rectangle 1321_8" x="84" y="12" width="2" height="2" fill="white"/>
<rect id="Rectangle 1322_8" x="84" y="24" width="2" height="2" fill="white"/>
<rect id="Rectangle 1323_8" x="84" y="36" width="2" height="2" fill="white"/>
<rect id="Rectangle 1324_8" x="84" y="48" width="2" height="2" fill="white"/>
<rect id="Rectangle 1325_8" x="84" y="60" width="2" height="2" fill="white"/>
<rect id="Rectangle 1326_8" x="84" y="72" width="2" height="2" fill="white"/>
<rect id="Rectangle 1327_8" x="84" y="84" width="2" height="2" fill="white"/>
<rect id="Rectangle 1328_8" x="84" y="96" width="2" height="2" fill="white"/>
<rect id="Rectangle 1329_8" x="84" y="108" width="2" height="2" fill="white"/>
<rect id="Rectangle 1330_8" x="84" y="120" width="2" height="2" fill="white"/>
<rect id="Rectangle 1331_8" x="84" y="132" width="2" height="2" fill="white"/>
</g>
<g id="Group 9610">
<rect id="Rectangle 1320_9" x="96" width="2" height="2" fill="white"/>
<rect id="Rectangle 1321_9" x="96" y="12" width="2" height="2" fill="white"/>
<rect id="Rectangle 1322_9" x="96" y="24" width="2" height="2" fill="white"/>
<rect id="Rectangle 1323_9" x="96" y="36" width="2" height="2" fill="white"/>
<rect id="Rectangle 1324_9" x="96" y="48" width="2" height="2" fill="white"/>
<rect id="Rectangle 1325_9" x="96" y="60" width="2" height="2" fill="white"/>
<rect id="Rectangle 1326_9" x="96" y="72" width="2" height="2" fill="white"/>
<rect id="Rectangle 1327_9" x="96" y="84" width="2" height="2" fill="white"/>
<rect id="Rectangle 1328_9" x="96" y="96" width="2" height="2" fill="white"/>
<rect id="Rectangle 1329_9" x="96" y="108" width="2" height="2" fill="white"/>
<rect id="Rectangle 1330_9" x="96" y="120" width="2" height="2" fill="white"/>
<rect id="Rectangle 1331_9" x="96" y="132" width="2" height="2" fill="white"/>
</g>
<g id="Group 9611">
<rect id="Rectangle 1320_10" x="108" width="2" height="2" fill="white"/>
<rect id="Rectangle 1321_10" x="108" y="12" width="2" height="2" fill="white"/>
<rect id="Rectangle 1322_10" x="108" y="24" width="2" height="2" fill="white"/>
<rect id="Rectangle 1323_10" x="108" y="36" width="2" height="2" fill="white"/>
<rect id="Rectangle 1324_10" x="108" y="48" width="2" height="2" fill="white"/>
<rect id="Rectangle 1325_10" x="108" y="60" width="2" height="2" fill="white"/>
<rect id="Rectangle 1326_10" x="108" y="72" width="2" height="2" fill="white"/>
<rect id="Rectangle 1327_10" x="108" y="84" width="2" height="2" fill="white"/>
<rect id="Rectangle 1328_10" x="108" y="96" width="2" height="2" fill="white"/>
<rect id="Rectangle 1329_10" x="108" y="108" width="2" height="2" fill="white"/>
<rect id="Rectangle 1330_10" x="108" y="120" width="2" height="2" fill="white"/>
<rect id="Rectangle 1331_10" x="108" y="132" width="2" height="2" fill="white"/>
</g>
<g id="Group 9612">
<rect id="Rectangle 1320_11" x="120" width="2" height="2" fill="white"/>
<rect id="Rectangle 1321_11" x="120" y="12" width="2" height="2" fill="white"/>
<rect id="Rectangle 1322_11" x="120" y="24" width="2" height="2" fill="white"/>
<rect id="Rectangle 1323_11" x="120" y="36" width="2" height="2" fill="white"/>
<rect id="Rectangle 1324_11" x="120" y="48" width="2" height="2" fill="white"/>
<rect id="Rectangle 1325_11" x="120" y="60" width="2" height="2" fill="white"/>
<rect id="Rectangle 1326_11" x="120" y="72" width="2" height="2" fill="white"/>
<rect id="Rectangle 1327_11" x="120" y="84" width="2" height="2" fill="white"/>
<rect id="Rectangle 1328_11" x="120" y="96" width="2" height="2" fill="white"/>
<rect id="Rectangle 1329_11" x="120" y="108" width="2" height="2" fill="white"/>
<rect id="Rectangle 1330_11" x="120" y="120" width="2" height="2" fill="white"/>
<rect id="Rectangle 1331_11" x="120" y="132" width="2" height="2" fill="white"/>
</g>
</g>
</svg>
