<svg width="550" height="364" viewBox="0 0 550 364" fill="none" xmlns="http://www.w3.org/2000/svg">
<g filter="url(#filter0_d_10_200)">
<path d="M473.543 70.5067H76.4571C72.8909 70.5067 70 73.4519 70 77.085V286.437C70 290.07 72.8909 293.015 76.4571 293.015H473.543C477.109 293.015 480 290.07 480 286.437V77.085C480 73.4519 477.109 70.5067 473.543 70.5067Z" fill="white"/>
</g>
<g opacity="0.85">
<g opacity="0.85">
<path opacity="0.79" d="M450.7 98.808H176.515" stroke="#D9E4F2" stroke-linecap="square"/>
<path opacity="0.79" d="M450.699 131.865H176.514" stroke="#D9E4F2" stroke-linecap="square"/>
<path opacity="0.79" d="M450.699 164.922H176.514" stroke="#D9E4F2" stroke-linecap="square"/>
<path opacity="0.79" d="M450.699 199.357H176.514" stroke="#D9E4F2" stroke-linecap="square"/>
<path opacity="0.79" d="M450.699 232.414H176.514" stroke="#D9E4F2" stroke-linecap="square"/>
<path opacity="0.79" d="M452.698 265.471H176.514" stroke="#D9E4F2" stroke-linecap="square"/>
</g>
<g opacity="0.85">
<path opacity="0.79" d="M404.802 265.471V98.8083" stroke="#D9E4F2" stroke-linecap="square"/>
<path opacity="0.79" d="M450.782 265.471V98.8083" stroke="#D9E4F2" stroke-linecap="square"/>
<path opacity="0.79" d="M359.778 265.471V98.8083" stroke="#D9E4F2" stroke-linecap="square"/>
<path opacity="0.79" d="M313.797 265.471V98.8083" stroke="#D9E4F2" stroke-linecap="square"/>
<path opacity="0.79" d="M267.815 265.471V98.8083" stroke="#D9E4F2" stroke-linecap="square"/>
<path opacity="0.79" d="M222.792 265.471V98.8083" stroke="#D9E4F2" stroke-linecap="square"/>
<path opacity="0.79" d="M176.811 265.471V98.8083" stroke="#D9E4F2" stroke-linecap="square"/>
</g>
</g>
<path d="M219.439 178.833V265.069H229.018V178.833H219.439Z" fill="#2D4C9F"/>
<path d="M228.716 210.063V265.129H238.295V210.063H228.716Z" fill="#FF4F4F"/>
<path d="M304.696 214.942V265.558H314.275V214.942H304.696Z" fill="#2D4C9F"/>
<path d="M314.277 168.098V265.344H323.856V168.098H314.277Z" fill="#FF4F4F"/>
<path d="M176.332 214.942V265.558H185.911V214.942H176.332Z" fill="#2D4C9F"/>
<path d="M185.913 168.098V265.344H195.492V168.098H185.913Z" fill="#FF4F4F"/>
<path d="M389.953 214.942V265.558H399.532V214.942H389.953Z" fill="#2D4C9F"/>
<path d="M399.535 168.098V265.344H409.114V168.098H399.535Z" fill="#FF4F4F"/>
<path d="M347.804 188.592V264.714H357.383V188.592H347.804Z" fill="#2D4C9F"/>
<path d="M357.152 218.435V265.409H366.731V218.435H357.152Z" fill="#FF4F4F"/>
<path d="M442.45 164.195V265.354H452.029V164.195H442.45Z" fill="#2D4C9F"/>
<path d="M433.061 264.65V120.278H442.64V264.65H433.061Z" fill="#FF4F4F"/>
<path d="M271.329 143.7V264.925H280.908V143.7H271.329Z" fill="#2D4C9F"/>
<path d="M261.589 216.894V265.348H271.168V216.894H261.589Z" fill="#FF4F4F"/>
<path d="M105.169 152.844V155.946H94.0496V153.653L100.139 147.18C100.466 146.847 100.776 146.495 101.065 146.127C101.307 145.802 101.52 145.454 101.701 145.089C101.886 144.737 101.986 144.343 101.992 143.943C102.009 143.65 101.965 143.356 101.862 143.082C101.76 142.808 101.601 142.559 101.397 142.352C100.893 141.937 100.254 141.735 99.6092 141.785C98.9318 141.743 98.2654 141.976 97.756 142.432C97.53 142.666 97.3543 142.945 97.2403 143.251C97.1264 143.558 97.0766 143.885 97.0942 144.213H93.9173C93.9101 143.477 94.0498 142.747 94.3279 142.068C94.5938 141.424 94.9855 140.842 95.4792 140.358C95.9928 139.859 96.601 139.473 97.2666 139.224C98.0167 138.945 98.8107 138.807 99.6092 138.819C100.423 138.805 101.234 138.933 102.005 139.197C102.663 139.425 103.27 139.783 103.792 140.249C104.279 140.688 104.663 141.231 104.918 141.84C105.176 142.463 105.306 143.133 105.301 143.809C105.297 144.473 105.133 145.126 104.825 145.71C104.523 146.304 104.169 146.867 103.766 147.394C103.305 147.989 102.8 148.548 102.257 149.066L98.6826 152.844H105.169ZM113.641 144.348C114.424 144.339 115.202 144.486 115.931 144.78C116.604 145.052 117.217 145.46 117.731 145.98C118.242 146.504 118.642 147.128 118.91 147.814C119.198 148.557 119.342 149.349 119.333 150.147C119.34 150.953 119.186 151.751 118.881 152.494C118.591 153.198 118.163 153.835 117.625 154.367C117.071 154.908 116.419 155.334 115.705 155.622C114.922 155.936 114.086 156.093 113.243 156.082C112.466 156.091 111.694 155.953 110.967 155.676C110.315 155.428 109.711 155.068 109.18 154.61C108.686 154.181 108.277 153.659 107.975 153.073C107.678 152.498 107.489 151.871 107.419 151.225H110.596C110.643 151.452 110.733 151.667 110.861 151.859C111.012 152.095 111.2 152.305 111.417 152.479C111.659 152.677 111.932 152.832 112.224 152.94C112.551 153.06 112.896 153.119 113.243 153.115C113.631 153.131 114.017 153.066 114.379 152.925C114.741 152.783 115.07 152.568 115.348 152.292C115.619 152.009 115.83 151.673 115.969 151.305C116.107 150.936 116.171 150.542 116.155 150.147C116.171 149.753 116.107 149.359 115.969 148.99C115.83 148.622 115.619 148.286 115.348 148.003C115.07 147.727 114.741 147.512 114.379 147.371C114.017 147.229 113.631 147.165 113.243 147.181C112.82 147.168 112.401 147.266 112.026 147.464C111.726 147.626 111.449 147.831 111.205 148.071C110.957 148.323 110.752 148.614 110.596 148.934H107.816L108.875 138.954H118.141V142.056H111.523L111.125 145.157C111.372 145.004 111.628 144.869 111.893 144.753C112.123 144.663 112.387 144.573 112.687 144.483C112.997 144.392 113.318 144.346 113.641 144.348ZM121.053 154.327C121.053 154.098 121.098 153.87 121.187 153.659C121.276 153.448 121.406 153.258 121.57 153.1C121.725 152.934 121.911 152.801 122.119 152.71C122.326 152.62 122.549 152.574 122.774 152.574C123 152.573 123.223 152.62 123.43 152.71C123.637 152.801 123.824 152.934 123.979 153.1C124.143 153.258 124.273 153.448 124.362 153.659C124.451 153.87 124.496 154.098 124.496 154.327C124.496 154.557 124.451 154.784 124.362 154.996C124.273 155.207 124.143 155.397 123.979 155.555C123.824 155.722 123.637 155.854 123.43 155.945C123.223 156.036 123 156.082 122.774 156.081C122.549 156.082 122.326 156.035 122.119 155.945C121.911 155.854 121.725 155.722 121.57 155.555C121.406 155.397 121.276 155.207 121.187 154.996C121.098 154.784 121.053 154.557 121.053 154.327ZM132.702 144.348C133.485 144.339 134.263 144.486 134.992 144.78C135.665 145.052 136.278 145.46 136.792 145.98C137.302 146.504 137.703 147.128 137.97 147.814C138.259 148.557 138.402 149.349 138.394 150.147C138.401 150.953 138.247 151.751 137.942 152.494C137.652 153.198 137.225 153.835 136.687 154.367C136.133 154.908 135.481 155.334 134.768 155.622C133.984 155.936 133.148 156.093 132.306 156.082C131.529 156.091 130.756 155.954 130.028 155.676C129.377 155.428 128.772 155.068 128.241 154.61C127.747 154.181 127.338 153.659 127.036 153.073C126.739 152.498 126.551 151.871 126.48 151.225H129.657C129.704 151.452 129.794 151.667 129.922 151.859C130.073 152.095 130.261 152.305 130.478 152.479C130.721 152.677 130.993 152.832 131.285 152.94C131.612 153.06 131.957 153.119 132.304 153.115C132.691 153.131 133.078 153.066 133.44 152.925C133.802 152.783 134.131 152.568 134.409 152.292C134.68 152.01 134.892 151.674 135.032 151.305C135.171 150.936 135.236 150.542 135.22 150.147C135.236 149.752 135.172 149.358 135.034 148.99C134.895 148.621 134.683 148.285 134.412 148.002C134.135 147.727 133.805 147.511 133.443 147.37C133.082 147.229 132.695 147.164 132.308 147.18C131.884 147.167 131.464 147.264 131.088 147.464C130.788 147.626 130.511 147.83 130.267 148.07C130.019 148.322 129.814 148.614 129.658 148.933H126.878L127.937 138.954H137.202V142.056H130.584L130.187 145.157C130.433 145.004 130.69 144.869 130.955 144.753C131.184 144.663 131.449 144.573 131.749 144.483C132.059 144.392 132.379 144.346 132.702 144.348ZM150.042 155.946L144.086 148.259V155.946H140.909V138.954H144.086V146.506L149.645 138.954H153.352L147.13 147.315L153.752 155.946H150.042Z" fill="#FF4F4F"/>
<path d="M100.139 207.269V224.26H96.962V211.449L94.9764 212.798L93.3879 210.37L97.7562 207.269H100.139ZM108.611 224.395C107.777 224.406 106.948 224.264 106.163 223.977C105.472 223.723 104.835 223.339 104.284 222.844C103.778 222.388 103.368 221.833 103.079 221.212C102.797 220.605 102.653 219.941 102.655 219.27C102.635 218.59 102.776 217.914 103.066 217.301C103.297 216.821 103.606 216.383 103.98 216.006C104.368 215.629 104.815 215.319 105.303 215.089C104.934 214.856 104.595 214.575 104.297 214.253C104.029 213.933 103.803 213.579 103.622 213.201C103.409 212.737 103.305 212.229 103.318 211.717C103.316 211.116 103.448 210.521 103.703 209.978C103.962 209.425 104.326 208.93 104.774 208.522C105.263 208.081 105.829 207.738 106.442 207.51C107.137 207.251 107.873 207.123 108.613 207.132C109.353 207.123 110.089 207.251 110.784 207.51C111.397 207.738 111.963 208.081 112.452 208.522C112.901 208.93 113.265 209.426 113.524 209.979C113.779 210.522 113.91 211.117 113.908 211.719C113.921 212.232 113.812 212.741 113.589 213.202C113.401 213.579 113.17 213.933 112.901 214.255C112.608 214.572 112.279 214.853 111.921 215.091C112.409 215.32 112.856 215.63 113.245 216.008C113.618 216.384 113.927 216.822 114.159 217.302C114.448 217.916 114.589 218.591 114.569 219.271C114.571 219.943 114.426 220.606 114.145 221.213C113.855 221.834 113.446 222.389 112.94 222.845C112.389 223.34 111.751 223.724 111.06 223.977C110.275 224.265 109.445 224.406 108.611 224.395ZM108.611 216.708C107.868 216.665 107.137 216.916 106.572 217.41C106.334 217.626 106.145 217.892 106.017 218.19C105.889 218.488 105.825 218.811 105.831 219.136C105.825 219.461 105.889 219.783 106.017 220.081C106.145 220.379 106.334 220.645 106.572 220.862C107.137 221.355 107.868 221.606 108.611 221.563C109.354 221.606 110.084 221.355 110.649 220.862C110.888 220.646 111.078 220.379 111.206 220.082C111.335 219.784 111.399 219.461 111.394 219.136C111.399 218.811 111.336 218.488 111.208 218.19C111.08 217.892 110.89 217.626 110.652 217.41C110.086 216.915 109.355 216.664 108.611 216.708ZM108.611 214.011C108.908 214.024 109.205 213.978 109.484 213.874C109.763 213.769 110.02 213.61 110.238 213.405C110.434 213.226 110.59 213.008 110.698 212.764C110.805 212.52 110.86 212.256 110.86 211.988C110.86 211.721 110.805 211.457 110.698 211.213C110.59 210.969 110.434 210.75 110.238 210.572C110.02 210.367 109.763 210.207 109.484 210.103C109.205 209.999 108.908 209.952 108.611 209.966C108.313 209.952 108.016 209.999 107.737 210.103C107.457 210.207 107.201 210.367 106.982 210.572C106.787 210.75 106.63 210.969 106.523 211.213C106.416 211.457 106.36 211.721 106.36 211.988C106.36 212.256 106.416 212.52 106.523 212.764C106.63 213.008 106.787 213.226 106.982 213.405C107.201 213.61 107.457 213.77 107.737 213.874C108.016 213.978 108.313 214.025 108.611 214.011ZM119.597 215.764C119.584 216.576 119.691 217.386 119.917 218.165C120.098 218.784 120.38 219.368 120.751 219.891C121.063 220.331 121.471 220.691 121.943 220.943C122.363 221.17 122.83 221.29 123.306 221.294C123.781 221.29 124.248 221.17 124.669 220.943C125.14 220.691 125.548 220.331 125.86 219.891C126.232 219.368 126.514 218.784 126.694 218.165C126.919 217.386 127.026 216.576 127.012 215.764C127.026 214.952 126.919 214.143 126.694 213.364C126.513 212.745 126.23 212.161 125.858 211.638C125.545 211.198 125.138 210.838 124.666 210.585C124.246 210.359 123.778 210.239 123.303 210.235C122.828 210.239 122.36 210.359 121.94 210.585C121.469 210.838 121.061 211.198 120.749 211.638C120.378 212.161 120.097 212.745 119.917 213.364C119.691 214.143 119.584 214.952 119.597 215.764ZM130.187 215.764C130.205 216.997 130.017 218.224 129.631 219.392C129.304 220.383 128.797 221.303 128.136 222.102C127.531 222.822 126.782 223.401 125.938 223.8C125.113 224.192 124.214 224.394 123.304 224.392C122.389 224.397 121.485 224.195 120.656 223.8C119.819 223.398 119.074 222.819 118.473 222.102C117.811 221.303 117.303 220.383 116.976 219.392C116.59 218.224 116.402 216.997 116.42 215.764C116.402 214.532 116.59 213.305 116.976 212.137C117.303 211.146 117.811 210.226 118.473 209.426C119.074 208.708 119.818 208.129 120.656 207.727C121.485 207.332 122.389 207.13 123.304 207.135C124.214 207.133 125.113 207.335 125.938 207.727C126.781 208.127 127.53 208.706 128.134 209.426C128.795 210.226 129.303 211.146 129.63 212.137C130.016 213.305 130.205 214.532 130.187 215.764ZM135.482 215.764C135.468 216.576 135.576 217.386 135.801 218.165C135.982 218.784 136.264 219.367 136.635 219.891C136.947 220.331 137.355 220.691 137.826 220.943C138.247 221.17 138.715 221.29 139.19 221.294C139.666 221.29 140.133 221.17 140.553 220.943C141.025 220.691 141.432 220.331 141.745 219.891C142.116 219.368 142.398 218.784 142.579 218.165C142.804 217.386 142.911 216.576 142.897 215.764C142.911 214.952 142.804 214.143 142.579 213.364C142.397 212.745 142.115 212.161 141.742 211.638C141.43 211.198 141.022 210.838 140.551 210.585C140.13 210.359 139.663 210.239 139.188 210.235C138.712 210.239 138.244 210.359 137.824 210.585C137.352 210.838 136.945 211.198 136.633 211.638C136.262 212.161 135.981 212.745 135.801 213.364C135.576 214.143 135.468 214.952 135.482 215.764ZM146.072 215.764C146.09 216.997 145.902 218.224 145.516 219.392C145.189 220.383 144.681 221.303 144.02 222.102C143.415 222.822 142.666 223.401 141.823 223.8C140.998 224.192 140.099 224.394 139.189 224.392C138.274 224.397 137.37 224.195 136.541 223.8C135.703 223.398 134.959 222.82 134.357 222.102C133.696 221.303 133.188 220.383 132.861 219.392C132.475 218.224 132.287 216.997 132.305 215.764C132.287 214.532 132.475 213.305 132.861 212.137C133.188 211.146 133.695 210.226 134.356 209.426C134.958 208.708 135.702 208.129 136.54 207.727C137.369 207.332 138.273 207.13 139.188 207.135C140.098 207.133 140.997 207.335 141.821 207.727C142.664 208.127 143.413 208.706 144.017 209.426C144.678 210.226 145.186 211.146 145.512 212.137C145.9 213.305 146.089 214.532 146.072 215.764Z" fill="#2D4C9F"/>
<path d="M93.47 171.671H129.872" stroke="#2D4C9F" stroke-width="8"/>
<path d="M93.47 239.985H129.729" stroke="#2D4C9F" stroke-width="8"/>
<defs>
<filter id="filter0_d_10_200" x="0" y="0.506714" width="550" height="362.508" filterUnits="userSpaceOnUse" color-interpolation-filters="sRGB">
<feFlood flood-opacity="0" result="BackgroundImageFix"/>
<feColorMatrix in="SourceAlpha" type="matrix" values="0 0 0 0 0 0 0 0 0 0 0 0 0 0 0 0 0 0 127 0" result="hardAlpha"/>
<feOffset/>
<feGaussianBlur stdDeviation="35"/>
<feColorMatrix type="matrix" values="0 0 0 0 0.796078 0 0 0 0 0.807843 0 0 0 0 0.933333 0 0 0 0.5 0"/>
<feBlend mode="normal" in2="BackgroundImageFix" result="effect1_dropShadow_10_200"/>
<feBlend mode="normal" in="SourceGraphic" in2="effect1_dropShadow_10_200" result="shape"/>
</filter>
</defs>
</svg>
