<svg width="31" height="85" viewBox="0 0 31 85" fill="none" xmlns="http://www.w3.org/2000/svg">
<circle cx="2" cy="2" r="2" fill="#FF4F4F"/>
<circle cx="11" cy="2" r="2" fill="#FF4F4F"/>
<circle cx="20" cy="2" r="2" fill="#FF4F4F"/>
<circle cx="29" cy="2" r="2" fill="#FF4F4F"/>
<circle cx="2" cy="11" r="2" fill="#FF4F4F"/>
<circle cx="11" cy="11" r="2" fill="#FF4F4F"/>
<circle cx="20" cy="11" r="2" fill="#FF4F4F"/>
<circle cx="29" cy="11" r="2" fill="#FF4F4F"/>
<circle cx="2" cy="20" r="2" fill="#FF4F4F"/>
<circle cx="11" cy="20" r="2" fill="#FF4F4F"/>
<circle cx="20" cy="20" r="2" fill="#FF4F4F"/>
<circle cx="29" cy="20" r="2" fill="#FF4F4F"/>
<circle cx="2" cy="29" r="2" fill="#FF4F4F"/>
<circle cx="11" cy="29" r="2" fill="#FF4F4F"/>
<circle cx="20" cy="29" r="2" fill="#FF4F4F"/>
<circle cx="29" cy="29" r="2" fill="#FF4F4F"/>
<circle cx="2" cy="38" r="2" fill="#FF4F4F"/>
<circle cx="11" cy="38" r="2" fill="#FF4F4F"/>
<circle cx="20" cy="38" r="2" fill="#FF4F4F"/>
<circle cx="29" cy="38" r="2" fill="#FF4F4F"/>
<circle cx="2" cy="47" r="2" fill="#FF4F4F"/>
<circle cx="11" cy="47" r="2" fill="#FF4F4F"/>
<circle cx="20" cy="47" r="2" fill="#FF4F4F"/>
<circle cx="29" cy="47" r="2" fill="#FF4F4F"/>
<circle cx="2" cy="56" r="2" fill="#FF4F4F"/>
<circle cx="11" cy="56" r="2" fill="#FF4F4F"/>
<circle cx="20" cy="56" r="2" fill="#FF4F4F"/>
<circle cx="29" cy="56" r="2" fill="#FF4F4F"/>
<circle cx="2" cy="65" r="2" fill="#FF4F4F"/>
<circle cx="11" cy="65" r="2" fill="#FF4F4F"/>
<circle cx="20" cy="65" r="2" fill="#FF4F4F"/>
<circle cx="29" cy="65" r="2" fill="#FF4F4F"/>
<circle cx="2" cy="74" r="2" fill="#FF4F4F"/>
<circle cx="11" cy="74" r="2" fill="#FF4F4F"/>
<circle cx="20" cy="74" r="2" fill="#FF4F4F"/>
<circle cx="29" cy="74" r="2" fill="#FF4F4F"/>
<circle cx="2" cy="83" r="2" fill="#FF4F4F"/>
<circle cx="11" cy="83" r="2" fill="#FF4F4F"/>
<circle cx="20" cy="83" r="2" fill="#FF4F4F"/>
<circle cx="29" cy="83" r="2" fill="#FF4F4F"/>
</svg>
