<svg width="280" height="160" viewBox="0 0 280 160" fill="none" xmlns="http://www.w3.org/2000/svg">
<g filter="url(#filter0_d_19_23)">
<rect x="50" y="35" width="180" height="60" rx="5" fill="white"/>
</g>
<path d="M136.4 49.22V59.8H133.7V49.22H136.4ZM140.06 53.28V55.72H130.02V53.28H140.06ZM153.333 61C152.466 61 151.646 60.9067 150.873 60.72C150.113 60.52 149.42 60.2467 148.793 59.9C148.166 59.5533 147.64 59.1533 147.213 58.7L148.833 56.46C149.153 56.9 149.566 57.2733 150.073 57.58C150.593 57.8867 151.153 58.12 151.753 58.28C152.366 58.44 152.953 58.52 153.513 58.52C154.22 58.52 154.773 58.4133 155.173 58.2C155.573 57.9867 155.773 57.6667 155.773 57.24C155.773 56.96 155.653 56.7267 155.413 56.54C155.173 56.3533 154.76 56.1933 154.173 56.06L151.473 55.42C150.753 55.2467 150.113 55.0133 149.553 54.72C149.006 54.4267 148.573 54.0533 148.253 53.6C147.946 53.1333 147.793 52.5867 147.793 51.96C147.793 51.1467 148.013 50.4267 148.453 49.8C148.893 49.1733 149.526 48.6867 150.353 48.34C151.18 47.98 152.173 47.8 153.333 47.8C154.52 47.8 155.566 47.98 156.473 48.34C157.393 48.7 158.186 49.2467 158.853 49.98L157.293 52C156.746 51.4133 156.133 50.9733 155.453 50.68C154.786 50.3733 154.02 50.22 153.153 50.22C152.62 50.22 152.186 50.28 151.853 50.4C151.52 50.5067 151.273 50.66 151.113 50.86C150.953 51.0467 150.873 51.26 150.873 51.5C150.873 51.7 150.92 51.88 151.013 52.04C151.12 52.2 151.313 52.3467 151.593 52.48C151.886 52.6 152.313 52.7267 152.873 52.86L155.053 53.34C156.32 53.62 157.253 54.0333 157.853 54.58C158.453 55.1133 158.753 55.8533 158.753 56.8C158.753 57.7067 158.52 58.4733 158.053 59.1C157.586 59.7267 156.94 60.2 156.113 60.52C155.3 60.84 154.373 61 153.333 61ZM152.293 62.76V46.04H154.393V62.76H152.293ZM166.905 61V58.1H160.465V55.94C160.585 55.7267 160.739 55.4667 160.925 55.16C161.125 54.8533 161.359 54.5 161.625 54.1L165.925 47.8H169.945V55.74H171.965V58.1H169.945V61H166.905ZM163.225 55.74H166.945V51.74C166.945 51.4733 166.952 51.2 166.965 50.92C166.979 50.6267 166.992 50.3333 167.005 50.04H166.965C166.832 50.32 166.672 50.6133 166.485 50.92C166.312 51.2133 166.145 51.48 165.985 51.72L163.645 55.14C163.579 55.2467 163.512 55.3467 163.445 55.44C163.379 55.5333 163.305 55.6333 163.225 55.74ZM178.255 61.2C177.108 61.2 176.108 60.98 175.255 60.54C174.415 60.0867 173.708 59.3533 173.135 58.34L176.155 56.84C176.302 57.3733 176.535 57.8 176.855 58.12C177.188 58.44 177.682 58.6 178.335 58.6C178.748 58.6 179.102 58.5267 179.395 58.38C179.688 58.2333 179.915 58.02 180.075 57.74C180.248 57.4467 180.335 57.0933 180.335 56.68C180.335 56.28 180.255 55.9467 180.095 55.68C179.948 55.4133 179.728 55.2133 179.435 55.08C179.142 54.9333 178.775 54.86 178.335 54.86C178.015 54.86 177.728 54.8933 177.475 54.96C177.222 55.0133 176.988 55.1 176.775 55.22C176.575 55.3267 176.388 55.4667 176.215 55.64L173.615 55.16L174.455 47.8H182.775V50.46H176.955L176.615 53.1L176.555 53.42H176.575C176.842 53.1133 177.215 52.88 177.695 52.72C178.175 52.56 178.708 52.48 179.295 52.48C180.162 52.48 180.902 52.6533 181.515 53C182.128 53.3467 182.602 53.82 182.935 54.42C183.268 55.02 183.435 55.7067 183.435 56.48C183.435 57.2933 183.295 58 183.015 58.6C182.748 59.1867 182.368 59.6733 181.875 60.06C181.395 60.4467 180.842 60.7333 180.215 60.92C179.602 61.1067 178.948 61.2 178.255 61.2ZM190.635 61.2C188.835 61.2 187.469 60.6267 186.535 59.48C185.615 58.3333 185.155 56.64 185.155 54.4C185.155 52.16 185.615 50.4667 186.535 49.32C187.469 48.1733 188.835 47.6 190.635 47.6C192.435 47.6 193.795 48.1733 194.715 49.32C195.649 50.4667 196.115 52.16 196.115 54.4C196.115 56.64 195.649 58.3333 194.715 59.48C193.795 60.6267 192.435 61.2 190.635 61.2ZM190.635 58.52C191.129 58.52 191.529 58.3867 191.835 58.12C192.142 57.84 192.362 57.4 192.495 56.8C192.642 56.1867 192.715 55.3867 192.715 54.4C192.715 53.4133 192.642 52.62 192.495 52.02C192.362 51.4067 192.142 50.9667 191.835 50.7C191.529 50.42 191.129 50.28 190.635 50.28C190.155 50.28 189.755 50.42 189.435 50.7C189.129 50.9667 188.902 51.4067 188.755 52.02C188.622 52.62 188.555 53.4133 188.555 54.4C188.555 55.3867 188.622 56.1867 188.755 56.8C188.902 57.4 189.129 57.84 189.435 58.12C189.755 58.3867 190.155 58.52 190.635 58.52ZM203.506 61.2C201.706 61.2 200.34 60.6267 199.406 59.48C198.486 58.3333 198.026 56.64 198.026 54.4C198.026 52.16 198.486 50.4667 199.406 49.32C200.34 48.1733 201.706 47.6 203.506 47.6C205.306 47.6 206.666 48.1733 207.586 49.32C208.52 50.4667 208.986 52.16 208.986 54.4C208.986 56.64 208.52 58.3333 207.586 59.48C206.666 60.6267 205.306 61.2 203.506 61.2ZM203.506 58.52C204 58.52 204.4 58.3867 204.706 58.12C205.013 57.84 205.233 57.4 205.366 56.8C205.513 56.1867 205.586 55.3867 205.586 54.4C205.586 53.4133 205.513 52.62 205.366 52.02C205.233 51.4067 205.013 50.9667 204.706 50.7C204.4 50.42 204 50.28 203.506 50.28C203.026 50.28 202.626 50.42 202.306 50.7C202 50.9667 201.773 51.4067 201.626 52.02C201.493 52.62 201.426 53.4133 201.426 54.4C201.426 55.3867 201.493 56.1867 201.626 56.8C201.773 57.4 202 57.84 202.306 58.12C202.626 58.3867 203.026 58.52 203.506 58.52Z" fill="#444444"/>
<path d="M122.751 76.74C123.242 76.74 123.668 76.8317 124.027 77.015C124.394 77.191 124.68 77.444 124.885 77.774C125.09 78.104 125.193 78.4963 125.193 78.951C125.193 79.4057 125.09 79.798 124.885 80.128C124.68 80.458 124.394 80.7147 124.027 80.898C123.668 81.074 123.242 81.162 122.751 81.162H121.068V84H120.188V76.74H122.751ZM122.619 80.337C123.191 80.337 123.609 80.2197 123.873 79.985C124.137 79.743 124.269 79.3983 124.269 78.951C124.269 78.4963 124.137 78.1517 123.873 77.917C123.609 77.6823 123.191 77.565 122.619 77.565H121.068V80.337H122.619ZM129.652 76.74C130.393 76.74 130.987 76.9307 131.434 77.312C131.881 77.6933 132.105 78.2103 132.105 78.863C132.105 79.5157 131.878 80.0253 131.423 80.392C130.976 80.7513 130.382 80.931 129.641 80.931L129.564 80.986H127.782V84H126.902V76.74H129.652ZM129.641 80.161C130.162 80.161 130.547 80.0547 130.796 79.842C131.053 79.622 131.181 79.2957 131.181 78.863C131.181 78.4303 131.053 78.1077 130.796 77.895C130.547 77.675 130.162 77.565 129.641 77.565H127.782V80.161H129.641ZM130.147 80.337L132.545 84H131.5L129.41 80.821L130.147 80.337ZM137.079 76.63C137.768 76.63 138.362 76.784 138.861 77.092C139.367 77.3927 139.756 77.8217 140.027 78.379C140.306 78.9363 140.445 79.6 140.445 80.37C140.445 81.14 140.306 81.8037 140.027 82.361C139.756 82.9183 139.367 83.351 138.861 83.659C138.362 83.9597 137.768 84.11 137.079 84.11C136.39 84.11 135.792 83.9597 135.286 83.659C134.787 83.351 134.399 82.9183 134.12 82.361C133.849 81.8037 133.713 81.14 133.713 80.37C133.713 79.6 133.849 78.9363 134.12 78.379C134.399 77.8217 134.787 77.3927 135.286 77.092C135.792 76.784 136.39 76.63 137.079 76.63ZM137.079 77.455C136.58 77.455 136.148 77.5723 135.781 77.807C135.414 78.0343 135.132 78.368 134.934 78.808C134.736 79.2407 134.637 79.7613 134.637 80.37C134.637 80.9787 134.736 81.503 134.934 81.943C135.132 82.3757 135.414 82.7093 135.781 82.944C136.148 83.1713 136.58 83.285 137.079 83.285C137.585 83.285 138.018 83.1713 138.377 82.944C138.744 82.7093 139.026 82.3757 139.224 81.943C139.422 81.503 139.521 80.9787 139.521 80.37C139.521 79.7613 139.422 79.2407 139.224 78.808C139.026 78.368 138.744 78.0343 138.377 77.807C138.018 77.5723 137.585 77.455 137.079 77.455ZM147.463 77.565H143.261V79.908H146.539V80.733H143.261V84H142.381V76.74H147.463V77.565ZM149.975 76.74V84H149.095V76.74H149.975ZM157.454 76.74V77.565H154.924V84H154.044V77.565H151.514V76.74H157.454ZM165.363 84.11C164.674 84.11 164.076 83.9597 163.57 83.659C163.071 83.351 162.683 82.9183 162.404 82.361C162.133 81.8037 161.997 81.14 161.997 80.37C161.997 79.6 162.14 78.9363 162.426 78.379C162.719 77.8217 163.126 77.3927 163.647 77.092C164.168 76.784 164.765 76.63 165.44 76.63C166.159 76.63 166.742 76.7657 167.189 77.037C167.644 77.3083 168.01 77.7263 168.289 78.291L167.486 78.731C167.325 78.313 167.068 77.9977 166.716 77.785C166.371 77.565 165.946 77.455 165.44 77.455C164.949 77.455 164.512 77.5723 164.131 77.807C163.757 78.0343 163.46 78.368 163.24 78.808C163.027 79.2407 162.921 79.7613 162.921 80.37C162.921 80.9787 163.013 81.503 163.196 81.943C163.387 82.3757 163.665 82.7093 164.032 82.944C164.406 83.1713 164.861 83.285 165.396 83.285C165.697 83.285 165.975 83.2483 166.232 83.175C166.496 83.0943 166.723 82.977 166.914 82.823C167.112 82.669 167.266 82.4747 167.376 82.24C167.486 82.0053 167.541 81.7303 167.541 81.415V81.162H165.231V80.337H168.344V84H167.651L167.607 82.647L167.794 82.68C167.603 83.1347 167.303 83.4867 166.892 83.736C166.481 83.9853 165.972 84.11 165.363 84.11ZM173.147 76.74C173.888 76.74 174.482 76.9307 174.929 77.312C175.376 77.6933 175.6 78.2103 175.6 78.863C175.6 79.5157 175.373 80.0253 174.918 80.392C174.471 80.7513 173.877 80.931 173.136 80.931L173.059 80.986H171.277V84H170.397V76.74H173.147ZM173.136 80.161C173.657 80.161 174.042 80.0547 174.291 79.842C174.548 79.622 174.676 79.2957 174.676 78.863C174.676 78.4303 174.548 78.1077 174.291 77.895C174.042 77.675 173.657 77.565 173.136 77.565H171.277V80.161H173.136ZM173.642 80.337L176.04 84H174.995L172.905 80.821L173.642 80.337ZM180.574 76.63C181.263 76.63 181.857 76.784 182.356 77.092C182.862 77.3927 183.251 77.8217 183.522 78.379C183.801 78.9363 183.94 79.6 183.94 80.37C183.94 81.14 183.801 81.8037 183.522 82.361C183.251 82.9183 182.862 83.351 182.356 83.659C181.857 83.9597 181.263 84.11 180.574 84.11C179.885 84.11 179.287 83.9597 178.781 83.659C178.282 83.351 177.894 82.9183 177.615 82.361C177.344 81.8037 177.208 81.14 177.208 80.37C177.208 79.6 177.344 78.9363 177.615 78.379C177.894 77.8217 178.282 77.3927 178.781 77.092C179.287 76.784 179.885 76.63 180.574 76.63ZM180.574 77.455C180.075 77.455 179.643 77.5723 179.276 77.807C178.909 78.0343 178.627 78.368 178.429 78.808C178.231 79.2407 178.132 79.7613 178.132 80.37C178.132 80.9787 178.231 81.503 178.429 81.943C178.627 82.3757 178.909 82.7093 179.276 82.944C179.643 83.1713 180.075 83.285 180.574 83.285C181.08 83.285 181.513 83.1713 181.872 82.944C182.239 82.7093 182.521 82.3757 182.719 81.943C182.917 81.503 183.016 80.9787 183.016 80.37C183.016 79.7613 182.917 79.2407 182.719 78.808C182.521 78.368 182.239 78.0343 181.872 77.807C181.513 77.5723 181.08 77.455 180.574 77.455ZM187.144 84L184.999 76.74H185.912L187.705 83.197L189.41 76.74H190.411L192.116 83.219L193.909 76.74H194.778L192.644 84H191.555L190.268 79.292L189.894 77.653H189.883L189.509 79.292L188.233 84H187.144ZM201.465 76.74V77.565H198.935V84H198.055V77.565H195.525V76.74H201.465ZM208.698 76.74V84H207.818V76.74H208.698ZM203.88 76.74V84H203V76.74H203.88ZM208.225 79.908V80.733H203.462V79.908H208.225Z" fill="#707070"/>
<circle cx="91" cy="65" r="21" fill="url(#paint0_linear_19_23)"/>
<path d="M90.5642 57.5707L88.4958 61.8124L83.8679 62.4948C83.038 62.6165 82.7054 63.6513 83.3073 64.244L86.6554 67.5438L85.8635 72.2052C85.721 73.0478 86.5984 73.6789 87.3333 73.2849L91.4733 71.0839L95.6133 73.2849C96.3482 73.6757 97.2256 73.0478 97.0831 72.2052L96.2912 67.5438L99.6393 64.244C100.241 63.6513 99.9085 62.6165 99.0786 62.4948L94.4508 61.8124L92.3824 57.5707C92.0118 56.8146 90.938 56.805 90.5642 57.5707Z" fill="white"/>
<defs>
<filter id="filter0_d_19_23" x="0" y="0" width="280" height="160" filterUnits="userSpaceOnUse" color-interpolation-filters="sRGB">
<feFlood flood-opacity="0" result="BackgroundImageFix"/>
<feColorMatrix in="SourceAlpha" type="matrix" values="0 0 0 0 0 0 0 0 0 0 0 0 0 0 0 0 0 0 127 0" result="hardAlpha"/>
<feOffset dy="15"/>
<feGaussianBlur stdDeviation="25"/>
<feComposite in2="hardAlpha" operator="out"/>
<feColorMatrix type="matrix" values="0 0 0 0 0 0 0 0 0 0 0 0 0 0 0 0 0 0 0.15 0"/>
<feBlend mode="normal" in2="BackgroundImageFix" result="effect1_dropShadow_19_23"/>
<feBlend mode="normal" in="SourceGraphic" in2="effect1_dropShadow_19_23" result="shape"/>
</filter>
<linearGradient id="paint0_linear_19_23" x1="91" y1="44" x2="91" y2="86" gradientUnits="userSpaceOnUse">
<stop stop-color="#FF4F4F"/>
<stop offset="1" stop-color="#FFCFCF"/>
</linearGradient>
</defs>
</svg>
