<?xml version="1.0" encoding="utf-8"?>
<!-- Generator: Adobe Illustrator 26.0.1, SVG Export Plug-In . SVG Version: 6.00 Build 0)  -->
<svg version="1.1" id="Layer_1" xmlns="http://www.w3.org/2000/svg" xmlns:xlink="http://www.w3.org/1999/xlink" x="0px" y="0px"
	 viewBox="0 0 180 61.3" style="enable-background:new 0 0 180 61.3;" xml:space="preserve">
<style type="text/css">
	.st0{fill:#FFFFFF;}
	.st1{fill:#444444;}
	.st2{fill:#707070;}
	.st3{fill:url(#SVGID_1_);}
</style>
<g>
	<path class="st0" d="M5,1.3h170c2.8,0,5,2.2,5,5v50c0,2.8-2.2,5-5,5H5c-2.8,0-5-2.2-5-5v-50C0,3.5,2.2,1.3,5,1.3z"/>
</g>
<path class="st1" d="M86.4,15.5v10.6h-2.7V15.5H86.4z M90.1,19.6V22H80v-2.4H90.1z M103.3,27.3c-0.9,0-1.7-0.1-2.5-0.3
	c-0.8-0.2-1.5-0.5-2.1-0.8c-0.6-0.3-1.2-0.7-1.6-1.2l1.6-2.2c0.3,0.4,0.7,0.8,1.2,1.1c0.5,0.3,1.1,0.5,1.7,0.7
	c0.6,0.2,1.2,0.2,1.8,0.2c0.7,0,1.3-0.1,1.7-0.3c0.4-0.2,0.6-0.5,0.6-1c0-0.3-0.1-0.5-0.4-0.7c-0.2-0.2-0.7-0.3-1.2-0.5l-2.7-0.6
	c-0.7-0.2-1.4-0.4-1.9-0.7c-0.5-0.3-1-0.7-1.3-1.1c-0.3-0.5-0.5-1-0.5-1.6c0-0.8,0.2-1.5,0.7-2.2c0.4-0.6,1.1-1.1,1.9-1.5
	c0.8-0.4,1.8-0.5,3-0.5c1.2,0,2.2,0.2,3.1,0.5c0.9,0.4,1.7,0.9,2.4,1.6l-1.6,2c-0.5-0.6-1.2-1-1.8-1.3c-0.7-0.3-1.4-0.5-2.3-0.5
	c-0.5,0-1,0.1-1.3,0.2c-0.3,0.1-0.6,0.3-0.7,0.5c-0.2,0.2-0.2,0.4-0.2,0.6c0,0.2,0,0.4,0.1,0.5c0.1,0.2,0.3,0.3,0.6,0.4
	c0.3,0.1,0.7,0.2,1.3,0.4l2.2,0.5c1.3,0.3,2.2,0.7,2.8,1.2c0.6,0.5,0.9,1.3,0.9,2.2c0,0.9-0.2,1.7-0.7,2.3c-0.5,0.6-1.1,1.1-1.9,1.4
	C105.3,27.1,104.4,27.3,103.3,27.3z M102.3,29.1V12.3h2.1v16.7H102.3z M116.9,27.3v-2.9h-6.4v-2.2c0.1-0.2,0.3-0.5,0.5-0.8
	c0.2-0.3,0.4-0.7,0.7-1.1l4.3-6.3h4V22h2v2.4h-2v2.9H116.9z M113.2,22h3.7v-4c0-0.3,0-0.5,0-0.8c0-0.3,0-0.6,0-0.9h0
	c-0.1,0.3-0.3,0.6-0.5,0.9c-0.2,0.3-0.3,0.6-0.5,0.8l-2.3,3.4c-0.1,0.1-0.1,0.2-0.2,0.3C113.4,21.8,113.3,21.9,113.2,22z
	 M128.3,27.5c-1.1,0-2.1-0.2-3-0.7c-0.8-0.5-1.5-1.2-2.1-2.2l3-1.5c0.1,0.5,0.4,1,0.7,1.3c0.3,0.3,0.8,0.5,1.5,0.5
	c0.4,0,0.8-0.1,1.1-0.2c0.3-0.1,0.5-0.4,0.7-0.6c0.2-0.3,0.3-0.6,0.3-1.1c0-0.4-0.1-0.7-0.2-1c-0.1-0.3-0.4-0.5-0.7-0.6
	c-0.3-0.1-0.7-0.2-1.1-0.2c-0.3,0-0.6,0-0.9,0.1c-0.3,0.1-0.5,0.1-0.7,0.3c-0.2,0.1-0.4,0.2-0.6,0.4l-2.6-0.5l0.8-7.4h8.3v2.7H127
	l-0.3,2.6l-0.1,0.3h0c0.3-0.3,0.6-0.5,1.1-0.7c0.5-0.2,1-0.2,1.6-0.2c0.9,0,1.6,0.2,2.2,0.5s1.1,0.8,1.4,1.4
	c0.3,0.6,0.5,1.3,0.5,2.1c0,0.8-0.1,1.5-0.4,2.1c-0.3,0.6-0.6,1.1-1.1,1.5c-0.5,0.4-1,0.7-1.7,0.9C129.6,27.4,128.9,27.5,128.3,27.5
	z M140.6,27.5c-1.8,0-3.2-0.6-4.1-1.7c-0.9-1.1-1.4-2.8-1.4-5.1c0-2.2,0.5-3.9,1.4-5.1c0.9-1.1,2.3-1.7,4.1-1.7
	c1.8,0,3.2,0.6,4.1,1.7c0.9,1.1,1.4,2.8,1.4,5.1c0,2.2-0.5,3.9-1.4,5.1C143.8,26.9,142.4,27.5,140.6,27.5z M140.6,24.8
	c0.5,0,0.9-0.1,1.2-0.4c0.3-0.3,0.5-0.7,0.7-1.3c0.1-0.6,0.2-1.4,0.2-2.4c0-1-0.1-1.8-0.2-2.4c-0.1-0.6-0.4-1.1-0.7-1.3
	c-0.3-0.3-0.7-0.4-1.2-0.4c-0.5,0-0.9,0.1-1.2,0.4c-0.3,0.3-0.5,0.7-0.7,1.3c-0.1,0.6-0.2,1.4-0.2,2.4c0,1,0.1,1.8,0.2,2.4
	c0.1,0.6,0.4,1,0.7,1.3C139.8,24.7,140.2,24.8,140.6,24.8z M153.5,27.5c-1.8,0-3.2-0.6-4.1-1.7c-0.9-1.1-1.4-2.8-1.4-5.1
	c0-2.2,0.5-3.9,1.4-5.1c0.9-1.1,2.3-1.7,4.1-1.7s3.2,0.6,4.1,1.7c0.9,1.1,1.4,2.8,1.4,5.1c0,2.2-0.5,3.9-1.4,5.1
	C156.7,26.9,155.3,27.5,153.5,27.5z M153.5,24.8c0.5,0,0.9-0.1,1.2-0.4c0.3-0.3,0.5-0.7,0.7-1.3c0.1-0.6,0.2-1.4,0.2-2.4
	c0-1-0.1-1.8-0.2-2.4c-0.1-0.6-0.4-1.1-0.7-1.3c-0.3-0.3-0.7-0.4-1.2-0.4c-0.5,0-0.9,0.1-1.2,0.4c-0.3,0.3-0.5,0.7-0.7,1.3
	c-0.1,0.6-0.2,1.4-0.2,2.4c0,1,0.1,1.8,0.2,2.4c0.1,0.6,0.4,1,0.7,1.3C152.6,24.7,153,24.8,153.5,24.8z"/>
<path class="st2" d="M72.8,43c0.5,0,0.9,0.1,1.3,0.3c0.4,0.2,0.7,0.4,0.9,0.8c0.2,0.3,0.3,0.7,0.3,1.2c0,0.5-0.1,0.8-0.3,1.2
	c-0.2,0.3-0.5,0.6-0.9,0.8c-0.4,0.2-0.8,0.3-1.3,0.3h-1.7v2.8h-0.9V43H72.8z M72.6,46.6c0.6,0,1-0.1,1.3-0.4c0.3-0.2,0.4-0.6,0.4-1
	c0-0.5-0.1-0.8-0.4-1s-0.7-0.4-1.3-0.4h-1.6v2.8H72.6z M79.7,43c0.7,0,1.3,0.2,1.8,0.6c0.4,0.4,0.7,0.9,0.7,1.6s-0.2,1.2-0.7,1.5
	c-0.4,0.4-1,0.5-1.8,0.5l-0.1,0.1h-1.8v3h-0.9V43H79.7z M79.6,46.5c0.5,0,0.9-0.1,1.2-0.3c0.3-0.2,0.4-0.5,0.4-1s-0.1-0.8-0.4-1
	c-0.2-0.2-0.6-0.3-1.2-0.3h-1.9v2.6H79.6z M80.1,46.6l2.4,3.7h-1l-2.1-3.2L80.1,46.6z M87.1,42.9c0.7,0,1.3,0.2,1.8,0.5
	c0.5,0.3,0.9,0.7,1.2,1.3c0.3,0.6,0.4,1.2,0.4,2c0,0.8-0.1,1.4-0.4,2c-0.3,0.6-0.7,1-1.2,1.3c-0.5,0.3-1.1,0.5-1.8,0.5
	c-0.7,0-1.3-0.2-1.8-0.5c-0.5-0.3-0.9-0.7-1.2-1.3c-0.3-0.6-0.4-1.2-0.4-2c0-0.8,0.1-1.4,0.4-2c0.3-0.6,0.7-1,1.2-1.3
	C85.8,43.1,86.4,42.9,87.1,42.9z M87.1,43.8c-0.5,0-0.9,0.1-1.3,0.4c-0.4,0.2-0.6,0.6-0.8,1c-0.2,0.4-0.3,1-0.3,1.6
	c0,0.6,0.1,1.1,0.3,1.6c0.2,0.4,0.5,0.8,0.8,1c0.4,0.2,0.8,0.3,1.3,0.3c0.5,0,0.9-0.1,1.3-0.3c0.4-0.2,0.6-0.6,0.8-1
	c0.2-0.4,0.3-1,0.3-1.6c0-0.6-0.1-1.1-0.3-1.6c-0.2-0.4-0.5-0.8-0.8-1C88,43.9,87.6,43.8,87.1,43.8z M97.5,43.9h-4.2v2.3h3.3V47
	h-3.3v3.3h-0.9V43h5.1V43.9z M100,43v7.3h-0.9V43H100z M107.5,43v0.8h-2.5v6.4H104v-6.4h-2.5V43H107.5z M115.4,50.4
	c-0.7,0-1.3-0.2-1.8-0.5c-0.5-0.3-0.9-0.7-1.2-1.3c-0.3-0.6-0.4-1.2-0.4-2c0-0.8,0.1-1.4,0.4-2c0.3-0.6,0.7-1,1.2-1.3
	c0.5-0.3,1.1-0.5,1.8-0.5c0.7,0,1.3,0.1,1.7,0.4c0.5,0.3,0.8,0.7,1.1,1.3l-0.8,0.4c-0.2-0.4-0.4-0.7-0.8-0.9
	c-0.3-0.2-0.8-0.3-1.3-0.3c-0.5,0-0.9,0.1-1.3,0.4c-0.4,0.2-0.7,0.6-0.9,1c-0.2,0.4-0.3,1-0.3,1.6c0,0.6,0.1,1.1,0.3,1.6
	c0.2,0.4,0.5,0.8,0.8,1c0.4,0.2,0.8,0.3,1.4,0.3c0.3,0,0.6,0,0.8-0.1c0.3-0.1,0.5-0.2,0.7-0.4c0.2-0.2,0.4-0.3,0.5-0.6
	c0.1-0.2,0.2-0.5,0.2-0.8v-0.3h-2.3v-0.8h3.1v3.7h-0.7l0-1.4l0.2,0c-0.2,0.5-0.5,0.8-0.9,1.1S116,50.4,115.4,50.4z M123.1,43
	c0.7,0,1.3,0.2,1.8,0.6c0.4,0.4,0.7,0.9,0.7,1.6s-0.2,1.2-0.7,1.5c-0.4,0.4-1,0.5-1.8,0.5l-0.1,0.1h-1.8v3h-0.9V43H123.1z
	 M123.1,46.5c0.5,0,0.9-0.1,1.2-0.3c0.3-0.2,0.4-0.5,0.4-1s-0.1-0.8-0.4-1c-0.2-0.2-0.6-0.3-1.2-0.3h-1.9v2.6H123.1z M123.6,46.6
	l2.4,3.7h-1l-2.1-3.2L123.6,46.6z M130.6,42.9c0.7,0,1.3,0.2,1.8,0.5c0.5,0.3,0.9,0.7,1.2,1.3c0.3,0.6,0.4,1.2,0.4,2
	c0,0.8-0.1,1.4-0.4,2c-0.3,0.6-0.7,1-1.2,1.3c-0.5,0.3-1.1,0.5-1.8,0.5c-0.7,0-1.3-0.2-1.8-0.5c-0.5-0.3-0.9-0.7-1.2-1.3
	c-0.3-0.6-0.4-1.2-0.4-2c0-0.8,0.1-1.4,0.4-2c0.3-0.6,0.7-1,1.2-1.3C129.3,43.1,129.9,42.9,130.6,42.9z M130.6,43.8
	c-0.5,0-0.9,0.1-1.3,0.4c-0.4,0.2-0.6,0.6-0.8,1c-0.2,0.4-0.3,1-0.3,1.6c0,0.6,0.1,1.1,0.3,1.6c0.2,0.4,0.5,0.8,0.8,1
	c0.4,0.2,0.8,0.3,1.3,0.3c0.5,0,0.9-0.1,1.3-0.3c0.4-0.2,0.6-0.6,0.8-1c0.2-0.4,0.3-1,0.3-1.6c0-0.6-0.1-1.1-0.3-1.6
	c-0.2-0.4-0.5-0.8-0.8-1C131.5,43.9,131.1,43.8,130.6,43.8z M137.1,50.3L135,43h0.9l1.8,6.5l1.7-6.5h1l1.7,6.5l1.8-6.5h0.9l-2.1,7.3
	h-1.1l-1.3-4.7l-0.4-1.6h0l-0.4,1.6l-1.3,4.7H137.1z M151.5,43v0.8h-2.5v6.4h-0.9v-6.4h-2.5V43H151.5z M158.7,43v7.3h-0.9V43H158.7z
	 M153.9,43v7.3H153V43H153.9z M158.2,46.2V47h-4.8v-0.8H158.2z"/>
<linearGradient id="SVGID_1_" gradientUnits="userSpaceOnUse" x1="41" y1="83.3078" x2="41" y2="41.3078" gradientTransform="matrix(1 0 0 -1 0 93.6157)">
	<stop  offset="0" style="stop-color:#FF4F4F"/>
	<stop  offset="1" style="stop-color:#FFCFCF"/>
</linearGradient>
<circle class="st3" cx="41" cy="31.3" r="21"/>
<path class="st0" d="M40.6,23.9l-2.1,4.2l-4.6,0.7c-0.8,0.1-1.2,1.2-0.6,1.7l3.3,3.3l-0.8,4.7c-0.1,0.8,0.7,1.5,1.5,1.1l4.1-2.2
	l4.1,2.2c0.7,0.4,1.6-0.2,1.5-1.1l-0.8-4.7l3.3-3.3c0.6-0.6,0.3-1.6-0.6-1.7l-4.6-0.7l-2.1-4.2C42,23.1,40.9,23.1,40.6,23.9z"/>
</svg>
