<?xml version="1.0" encoding="utf-8"?>
<!-- Generator: Adobe Illustrator 26.0.1, SVG Export Plug-In . SVG Version: 6.00 Build 0)  -->
<svg version="1.1" id="Layer_1" xmlns="http://www.w3.org/2000/svg" xmlns:xlink="http://www.w3.org/1999/xlink" x="0px" y="0px"
	 viewBox="0 0 140 44" style="enable-background:new 0 0 140 44;" xml:space="preserve">
<style type="text/css">
	.st0{fill:#FFFFFF;}
	.st1{fill:#FDB31E;}
</style>
<g>
	<path class="st0" d="M5,0h130c2.8,0,5,2.2,5,5v34c0,2.8-2.2,5-5,5H5c-2.8,0-5-2.2-5-5V5C0,2.2,2.2,0,5,0z"/>
</g>
<path class="st1" d="M25.6,14.6l-2.1,4.2l-4.6,0.7c-0.8,0.1-1.2,1.2-0.6,1.7l3.3,3.3l-0.8,4.7c-0.1,0.8,0.7,1.5,1.5,1.1l4.1-2.2
	l4.1,2.2c0.7,0.4,1.6-0.2,1.5-1.1l-0.8-4.7l3.3-3.3c0.6-0.6,0.3-1.6-0.6-1.7l-4.6-0.7l-2.1-4.2C27,13.8,25.9,13.8,25.6,14.6z"/>
<path class="st1" d="M47.6,14.6l-2.1,4.2l-4.6,0.7c-0.8,0.1-1.2,1.2-0.6,1.7l3.3,3.3l-0.8,4.7c-0.1,0.8,0.7,1.5,1.5,1.1l4.1-2.2
	l4.1,2.2c0.7,0.4,1.6-0.2,1.5-1.1l-0.8-4.7l3.3-3.3c0.6-0.6,0.3-1.6-0.6-1.7l-4.6-0.7l-2.1-4.2C49,13.8,47.9,13.8,47.6,14.6z"/>
<path class="st1" d="M69.6,14.6l-2.1,4.2l-4.6,0.7c-0.8,0.1-1.2,1.2-0.6,1.7l3.3,3.3l-0.8,4.7c-0.1,0.8,0.7,1.5,1.5,1.1l4.1-2.2
	l4.1,2.2c0.7,0.4,1.6-0.2,1.5-1.1l-0.8-4.7l3.3-3.3c0.6-0.6,0.3-1.6-0.6-1.7l-4.6-0.7l-2.1-4.2C71,13.8,69.9,13.8,69.6,14.6z"/>
<path class="st1" d="M91.6,14.6l-2.1,4.2l-4.6,0.7c-0.8,0.1-1.2,1.2-0.6,1.7l3.3,3.3l-0.8,4.7c-0.1,0.8,0.7,1.5,1.5,1.1l4.1-2.2
	l4.1,2.2c0.7,0.4,1.6-0.2,1.5-1.1l-0.8-4.7l3.3-3.3c0.6-0.6,0.3-1.6-0.6-1.7l-4.6-0.7l-2.1-4.2C93,13.8,91.9,13.8,91.6,14.6z"/>
<path class="st1" d="M113.6,14.6l-2.1,4.2l-4.6,0.7c-0.8,0.1-1.2,1.2-0.6,1.7l3.3,3.3l-0.8,4.7c-0.1,0.8,0.7,1.5,1.5,1.1l4.1-2.2
	l4.1,2.2c0.7,0.4,1.6-0.2,1.5-1.1l-0.8-4.7l3.3-3.3c0.6-0.6,0.3-1.6-0.6-1.7l-4.6-0.7l-2.1-4.2C115,13.8,113.9,13.8,113.6,14.6z"/>
</svg>
