<svg width="240" height="144" viewBox="0 0 240 144" fill="none" xmlns="http://www.w3.org/2000/svg">
<g filter="url(#filter0_d_19_32)">
<rect x="50" y="40" width="140" height="44" rx="5" fill="white"/>
</g>
<path d="M75.5642 54.5707L73.4958 58.8124L68.8679 59.4948C68.038 59.6165 67.7054 60.6513 68.3073 61.244L71.6554 64.5438L70.8635 69.2052C70.721 70.0478 71.5984 70.6789 72.3333 70.2849L76.4733 68.0839L80.6133 70.2849C81.3482 70.6757 82.2256 70.0478 82.0831 69.2052L81.2912 64.5438L84.6393 61.244C85.2412 60.6513 84.9086 59.6165 84.0787 59.4948L79.4508 58.8124L77.3824 54.5707C77.0118 53.8146 75.938 53.805 75.5642 54.5707Z" fill="#FDB31E"/>
<path d="M97.5642 54.5707L95.4958 58.8124L90.8679 59.4948C90.038 59.6165 89.7054 60.6513 90.3073 61.244L93.6554 64.5438L92.8635 69.2052C92.721 70.0478 93.5984 70.6789 94.3333 70.2849L98.4733 68.0839L102.613 70.2849C103.348 70.6757 104.226 70.0478 104.083 69.2052L103.291 64.5438L106.639 61.244C107.241 60.6513 106.909 59.6165 106.079 59.4948L101.451 58.8124L99.3824 54.5707C99.0118 53.8146 97.938 53.805 97.5642 54.5707Z" fill="#FDB31E"/>
<path d="M119.564 54.5707L117.496 58.8124L112.868 59.4948C112.038 59.6165 111.705 60.6513 112.307 61.244L115.655 64.5438L114.864 69.2052C114.721 70.0478 115.598 70.6789 116.333 70.2849L120.473 68.0839L124.613 70.2849C125.348 70.6757 126.226 70.0478 126.083 69.2052L125.291 64.5438L128.639 61.244C129.241 60.6513 128.909 59.6165 128.079 59.4948L123.451 58.8124L121.382 54.5707C121.012 53.8146 119.938 53.805 119.564 54.5707Z" fill="#FDB31E"/>
<path d="M141.564 54.5707L139.496 58.8124L134.868 59.4948C134.038 59.6165 133.705 60.6513 134.307 61.244L137.655 64.5438L136.864 69.2052C136.721 70.0478 137.598 70.6789 138.333 70.2849L142.473 68.0839L146.613 70.2849C147.348 70.6757 148.226 70.0478 148.083 69.2052L147.291 64.5438L150.639 61.244C151.241 60.6513 150.909 59.6165 150.079 59.4948L145.451 58.8124L143.382 54.5707C143.012 53.8146 141.938 53.805 141.564 54.5707Z" fill="#FDB31E"/>
<path d="M163.564 54.5707L161.496 58.8124L156.868 59.4948C156.038 59.6165 155.705 60.6513 156.307 61.244L159.655 64.5438L158.864 69.2052C158.721 70.0478 159.598 70.6789 160.333 70.2849L164.473 68.0839L168.613 70.2849C169.348 70.6757 170.226 70.0478 170.083 69.2052L169.291 64.5438L172.639 61.244C173.241 60.6513 172.909 59.6165 172.079 59.4948L167.451 58.8124L165.382 54.5707C165.012 53.8146 163.938 53.805 163.564 54.5707Z" fill="#FDB31E"/>
<defs>
<filter id="filter0_d_19_32" x="0" y="0" width="240" height="144" filterUnits="userSpaceOnUse" color-interpolation-filters="sRGB">
<feFlood flood-opacity="0" result="BackgroundImageFix"/>
<feColorMatrix in="SourceAlpha" type="matrix" values="0 0 0 0 0 0 0 0 0 0 0 0 0 0 0 0 0 0 127 0" result="hardAlpha"/>
<feOffset dy="10"/>
<feGaussianBlur stdDeviation="25"/>
<feComposite in2="hardAlpha" operator="out"/>
<feColorMatrix type="matrix" values="0 0 0 0 0 0 0 0 0 0 0 0 0 0 0 0 0 0 0.1 0"/>
<feBlend mode="normal" in2="BackgroundImageFix" result="effect1_dropShadow_19_32"/>
<feBlend mode="normal" in="SourceGraphic" in2="effect1_dropShadow_19_32" result="shape"/>
</filter>
</defs>
</svg>
