<svg width="683" height="771" viewBox="0 0 683 771" fill="none" xmlns="http://www.w3.org/2000/svg">
<path d="M5.21912 771H682.524C682.683 545.986 683 76.7675 683 0C602.142 18.5268 586.446 62.2311 559.335 102.61C532.223 142.989 481.806 131.113 416.168 173.392C350.531 215.671 314.382 356.285 266.819 445.118C219.255 533.952 137.01 502.599 43.27 599.508C5.26528 638.798 -8.57432 729.671 5.21912 771Z" fill="#C0CEF5"/>
<path d="M130.906 771H308.188H493.503C616.281 648.855 624.887 546.207 601.938 421.194C578.989 296.181 487.766 227.94 429.245 190.092C370.725 152.245 274.338 110.956 309.909 245.144C345.481 379.332 199.177 459.042 130.906 565.704C110.336 597.841 103.94 722.83 130.906 771Z" fill="#FF4F4F"/>
</svg>
