<svg width="40" height="37" viewBox="0 0 40 37" fill="none" xmlns="http://www.w3.org/2000/svg">
<path d="M18.3749 26.6634L1.06205 8.45557C0.730003 8.75138 0.463565 9.11579 0.280452 9.52457C0.0973386 9.93336 0.00173649 10.3772 0 10.8265V33.8141C0.00277199 34.6582 0.333196 35.4669 0.919174 36.0637C1.50515 36.6606 2.29912 36.9972 3.12781 37H36.8722C37.701 36.9977 38.4953 36.6613 39.0814 36.0643C39.6675 35.4673 39.9977 34.6583 40 33.8141V10.8265C39.9964 10.0726 39.7282 9.34497 39.2439 8.77494L21.6547 26.6907C21.4393 26.9113 21.1828 27.0859 20.9002 27.2042C20.6176 27.3226 20.3147 27.3822 20.0092 27.3797C19.7037 27.3771 19.4017 27.3125 19.1211 27.1895C18.8405 27.0665 18.5868 26.8876 18.3749 26.6634Z" fill="#95A6D1"/>
<path d="M36.8692 7.63965H3.12483C2.36069 7.64263 1.62461 7.93324 1.05811 8.45559L18.371 26.6634C18.5828 26.8872 18.8363 27.0657 19.1167 27.1884C19.3971 27.3111 19.6987 27.3757 20.0038 27.3782C20.309 27.3807 20.6116 27.3212 20.8939 27.2032C21.1762 27.0851 21.4325 26.9109 21.6479 26.6907L39.2371 8.77496C38.9471 8.42182 38.585 8.13729 38.1761 7.94122C37.7672 7.74515 37.3212 7.64224 36.8692 7.63965Z" fill="#4F6BB6"/>
<path d="M25.3628 14.111H23.8916L20.8259 17.1899C20.7185 17.2975 20.5909 17.3822 20.4509 17.4389C20.3108 17.4956 20.1611 17.5232 20.0104 17.5201C19.8597 17.5171 19.7111 17.4833 19.5734 17.4209C19.4357 17.3585 19.3116 17.2687 19.2085 17.1568L16.4057 14.111H14.6382C13.7305 14.1071 12.861 13.7381 12.2191 13.0843C11.5772 12.4305 11.215 11.5449 11.2112 10.6202V3.48879C11.2155 2.56451 11.578 1.67935 12.2198 1.02596C12.8616 0.372573 13.7308 0.00384095 14.6382 0H25.3637C26.2712 0.00384095 27.1403 0.372573 27.7822 1.02596C28.424 1.67935 28.7865 2.56451 28.7908 3.48879V10.6212C28.7867 11.5458 28.4242 12.4314 27.7822 13.085C27.1401 13.7386 26.2705 14.1074 25.3628 14.111Z" fill="#FF4F4F"/>
</svg>
