<svg width="38" height="38" viewBox="0 0 38 38" fill="none" xmlns="http://www.w3.org/2000/svg">
<path d="M35.4056 10.2176C34.9247 9.27991 34.3678 8.3854 33.7407 7.54356C32.3182 5.60021 30.5381 3.96189 28.5013 2.72128C25.1749 0.685075 21.3106 -0.231317 17.4508 0.100716C13.5909 0.432749 9.92926 1.99653 6.97968 4.57261C5.18962 6.15884 3.70296 8.07311 2.59567 10.2176C0.929082 13.4538 0.217966 17.1183 0.549312 20.7627C0.880658 24.4071 2.24011 27.8733 4.46132 30.7374C5.98907 32.7403 7.89503 34.4063 10.0651 35.6356C13.2856 37.4614 16.964 38.2589 20.6291 37.9261C24.2941 37.5932 27.7789 36.1451 30.6368 33.7673C32.7854 31.9897 34.5183 29.7405 35.7083 27.1853C36.8982 24.63 37.5148 21.8335 37.5129 19.0015C37.5138 15.9417 36.7907 12.9274 35.4056 10.2176Z" fill="#95A6D1"/>
<path d="M35.2421 28.1203C35.0122 27.7954 34.7677 27.4555 34.491 27.0736C34.0672 26.4868 33.5772 25.8091 33.0063 25.0024C29.4358 20.3433 25.4726 16.0158 21.1626 12.0698C21.299 11.9498 21.4364 11.8269 21.5718 11.7099C24.5265 9.0699 27.6871 6.68274 31.0218 4.57239C31.503 4.27249 31.9785 3.9726 32.4578 3.6727C33.7808 2.84899 34.6819 2.844 34.9372 3.03393C35.094 3.14989 35.1846 3.61873 35.0142 4.37147C34.7778 5.49803 34.3466 6.57198 33.7408 7.54237C34.368 8.38422 34.9249 9.27874 35.4058 10.2165C36.5798 8.69854 37.4016 6.92638 37.8092 5.03423C38.2369 3.13489 37.8034 1.53544 36.6197 0.652748C35.2421 -0.3699 33.1319 -0.182975 30.9692 1.15756C30.1693 1.65739 29.3597 2.15722 28.4985 2.72003C25.4195 4.75101 22.4851 7.00427 19.7178 9.46271C19.4791 9.66964 19.2385 9.88455 18.9969 10.0985C18.7563 9.88455 18.5098 9.66964 18.276 9.46271C15.5089 7.00402 12.5745 4.75075 9.49528 2.72003C8.63406 2.15822 7.82545 1.65439 7.02561 1.15756C4.86673 -0.182975 2.75655 -0.37091 1.3751 0.657736C0.19044 1.53743 -0.242117 3.13389 0.185568 5.03823C0.593093 6.93039 1.41499 8.70256 2.58899 10.2204C3.07031 9.283 3.62723 8.38851 4.25394 7.54637C3.64788 6.57605 3.21629 5.50209 2.97965 4.37546C2.81014 3.62272 2.90171 3.15489 3.05661 3.03793C3.31283 2.84899 4.21205 2.85298 5.53894 3.6767C6.01729 3.9766 6.4927 4.2695 6.97397 4.5764C10.3087 6.68677 13.4692 9.07393 16.424 11.7139C16.5584 11.8309 16.6967 11.9539 16.8322 12.0738C12.5227 16.02 8.55989 20.3476 4.98948 25.0064C4.41761 25.8141 3.92757 26.4928 3.50378 27.0786C3.22807 27.4615 2.98354 27.8004 2.75362 28.1243C1.62444 29.5534 0.771959 31.1909 0.242072 32.9486C-0.0188158 33.6385 -0.0702185 34.3932 0.0946138 35.1137C0.259446 35.8341 0.632801 36.4865 1.16564 36.9852C1.92551 37.6098 2.87978 37.9314 3.85256 37.8909C5.41845 37.8173 6.94555 37.367 8.31062 36.5764C8.92568 36.2545 9.50859 35.9426 10.0594 35.6407C9.107 35.1002 8.2027 34.475 7.35685 33.7723L7.011 33.9543C4.77028 35.1249 3.39174 35.0649 3.01667 34.738C2.78383 34.5381 2.92802 33.9892 2.97771 33.8253C3.29568 32.7185 3.7955 31.6755 4.4556 30.7414C4.80827 30.2156 5.23499 29.6178 5.80588 28.831C6.23552 28.2312 6.73042 27.5505 7.30911 26.7318C10.8319 22.1505 14.7442 17.8993 18.9998 14.0281C23.2557 17.899 27.168 22.1503 30.6905 26.7318C31.2683 27.5485 31.7622 28.2312 32.1928 28.831C32.7617 29.6178 33.1914 30.2165 33.544 30.7424C34.2046 31.6765 34.7041 32.7199 35.021 33.8273C35.0707 33.9902 35.2158 34.5381 34.983 34.74C34.6079 35.0649 33.2294 35.1259 30.9887 33.9553L30.6428 33.7733C29.7972 34.4763 28.8929 35.1015 27.9403 35.6417C28.4917 35.9436 29.0743 36.2555 29.6881 36.5774C31.0534 37.3681 32.5809 37.8184 34.1471 37.8919C35.1198 37.9321 36.074 37.6105 36.834 36.9862C37.3671 36.4877 37.7406 35.8353 37.9054 35.1148C38.0703 34.3943 38.0187 33.6395 37.7576 32.9496C37.2277 31.1896 36.3738 29.5502 35.2421 28.1203Z" fill="#FF4F4F"/>
</svg>
