<svg width="40" height="38" viewBox="0 0 40 38" fill="none" xmlns="http://www.w3.org/2000/svg">
<path d="M38.8015 11.938H21.8666C21.8666 11.978 21.8725 12.018 21.8725 12.0589C21.8624 12.4585 21.6986 12.8382 21.4159 13.1172C21.1333 13.3961 20.7542 13.5523 20.3595 13.5523C19.9647 13.5523 19.5856 13.3961 19.303 13.1172C19.0203 12.8382 18.8565 12.4585 18.8464 12.0589C18.8464 12.018 18.8464 11.978 18.8524 11.938H16.3841C16.3841 11.978 16.3901 12.018 16.3901 12.0589C16.3903 12.3885 16.2855 12.7092 16.0912 12.9736C15.8969 13.238 15.6236 13.4318 15.3118 13.5262C15 13.6207 14.6664 13.6107 14.3607 13.4978C14.0549 13.3849 13.7933 13.1751 13.6148 12.8996C13.5972 12.9824 13.5883 13.0669 13.5881 13.1516V32.1308C13.5889 32.4525 13.7155 32.7607 13.9401 32.9881C14.1647 33.2155 14.4691 33.3436 14.7867 33.3444H30.6366L38.2022 37.8348C38.3839 37.9425 38.5905 37.9996 38.801 38.0004C39.0115 38.0012 39.2184 37.9456 39.4009 37.8394C39.5834 37.7332 39.7349 37.58 39.8401 37.3954C39.9454 37.2108 40.0005 37.0013 40.0001 36.7882V13.1516C39.9993 12.8299 39.8728 12.5217 39.6482 12.2943C39.4236 12.0669 39.1192 11.9388 38.8015 11.938Z" fill="#FF4F4F"/>
<path d="M28.4192 1.32901e-05H1.34867C1.17134 -0.000780566 0.995618 0.0339975 0.831639 0.102339C0.667661 0.17068 0.518677 0.271232 0.393288 0.398188C0.2679 0.525144 0.16859 0.67599 0.101093 0.842017C0.0335951 1.00804 -0.000753788 1.18596 3.02696e-05 1.36551V27.9706C-0.00156209 28.2108 0.0596979 28.4472 0.177581 28.6557C0.295464 28.8641 0.465765 29.0373 0.671174 29.1575C0.876584 29.2778 1.10977 29.3408 1.34704 29.3402C1.5843 29.3396 1.81718 29.2754 2.022 29.1541L10.564 24.103H28.4192C28.5953 24.1042 28.7699 24.0702 28.933 24.003C29.0961 23.9358 29.2445 23.8367 29.3698 23.7114C29.4951 23.586 29.5947 23.4369 29.663 23.2726C29.7313 23.1082 29.7669 22.9318 29.7678 22.7535V1.36151C29.7681 1.1823 29.7333 1.00481 29.6656 0.839247C29.5979 0.673682 29.4985 0.52331 29.3731 0.396779C29.2478 0.270248 29.099 0.170055 28.9353 0.101963C28.7715 0.0338712 28.5961 -0.000777518 28.4192 1.32901e-05ZM9.40791 13.5949C9.10856 13.5949 8.81594 13.5051 8.56705 13.3367C8.31815 13.1683 8.12416 12.929 8.0096 12.649C7.89505 12.3689 7.86508 12.0608 7.92348 11.7636C7.98188 11.4663 8.12602 11.1932 8.33769 10.9789C8.54936 10.7646 8.81905 10.6187 9.11264 10.5595C9.40623 10.5004 9.71055 10.5308 9.98711 10.6467C10.2637 10.7627 10.5 10.9591 10.6664 11.2111C10.8327 11.4632 10.9214 11.7594 10.9214 12.0625C10.9201 12.4685 10.7602 12.8576 10.4767 13.1447C10.1931 13.4318 9.80892 13.5936 9.40791 13.5949ZM14.8765 13.5949C14.5773 13.5951 14.2847 13.5055 14.0358 13.3374C13.7868 13.1694 13.5927 12.9303 13.4779 12.6506C13.3631 12.3708 13.3327 12.0629 13.3907 11.7656C13.4487 11.4684 13.5923 11.1953 13.8036 10.9807C14.0148 10.7661 14.2841 10.6198 14.5775 10.5601C14.8708 10.5004 15.1751 10.5302 15.4518 10.6455C15.7284 10.7608 15.9651 10.9566 16.132 11.2081C16.2988 11.4596 16.3882 11.7556 16.389 12.0585C16.3888 12.4651 16.2295 12.8549 15.946 13.1429C15.6626 13.4308 15.278 13.5934 14.8765 13.5949ZM20.3599 13.5949C20.0606 13.5949 19.7679 13.5051 19.519 13.3367C19.2701 13.1683 19.0762 12.929 18.9616 12.649C18.847 12.3689 18.8171 12.0608 18.8755 11.7636C18.9339 11.4663 19.078 11.1932 19.2897 10.9789C19.5014 10.7646 19.771 10.6187 20.0646 10.5595C20.3582 10.5004 20.6625 10.5308 20.9391 10.6467C21.2157 10.7627 21.452 10.9591 21.6184 11.2111C21.7847 11.4632 21.8734 11.7594 21.8734 12.0625C21.8721 12.4687 21.7121 12.8579 21.4283 13.145C21.1446 13.4321 20.7601 13.5939 20.3589 13.5949H20.3599Z" fill="#95A6D1"/>
</svg>
