<svg width="14" height="13" viewBox="0 0 14 13" fill="none" xmlns="http://www.w3.org/2000/svg">
<path d="M13.9937 2.79995C13.9312 4.16245 12.9812 6.02807 11.1375 8.39682C9.23437 10.8718 7.625 12.1093 6.30625 12.1093C5.49062 12.1093 4.8 11.3562 4.23437 9.84995C3.13437 5.81245 2.66562 3.44682 1.75625 3.44682C1.65 3.44682 1.28437 3.6687 0.65625 4.1062L0 3.2562C1.6125 1.84057 3.15312 0.265571 4.11875 0.178071C5.20937 0.0718208 5.87812 0.818696 6.13125 2.41245C7.02812 8.08432 7.425 8.94057 9.05625 6.37182C9.64062 5.44682 9.95625 4.7437 10 4.25932C10.15 2.82495 8.88125 2.92182 8.02187 3.29057C8.70937 1.03745 10.025 -0.0563042 11.9656 0.00619583C13.3969 0.0436958 14.075 0.978071 13.9937 2.79995Z" fill="#FF4F4F"/>
</svg>
