<svg width="40" height="40" viewBox="0 0 40 40" fill="none" xmlns="http://www.w3.org/2000/svg">
<g id="Linkedin">
<g id="Ellipse 4">
<path id="Vector" d="M20 39.5C30.7696 39.5 39.5 30.7696 39.5 20C39.5 9.23045 30.7696 0.5 20 0.5C9.23045 0.5 0.5 9.23045 0.5 20C0.5 30.7696 9.23045 39.5 20 39.5Z" stroke="#FF4F4F"/>
</g>
<path id="Linkedin-In Icon" d="M16.9098 28H14.2148V17.99H16.9148L16.9098 28ZM15.5608 16.619C15.1144 16.5807 14.7009 16.3688 14.409 16.0289C14.1171 15.6889 13.9702 15.2481 13.9998 14.801C13.9704 14.3557 14.1178 13.9168 14.4101 13.5796C14.7023 13.2423 15.1159 13.0341 15.5608 13C16.0056 13.0341 16.419 13.2422 16.7113 13.5792C17.0035 13.9162 17.1511 14.3549 17.1218 14.8C17.1518 15.2472 17.005 15.6884 16.7131 16.0285C16.4212 16.3687 16.0075 16.5807 15.5608 16.619V16.619ZM26.9998 28H24.3078V23.125C24.3078 21.963 24.2878 20.473 22.9078 20.473C21.5078 20.473 21.2918 21.735 21.2918 23.041V28H18.5998V17.99H21.1828V19.351H21.2208C21.4458 18.8651 21.8059 18.4543 22.2581 18.1676C22.7103 17.8808 23.2354 17.7303 23.7708 17.734C26.4998 17.734 26.9998 19.807 26.9998 22.499V27.999V28Z" fill="#FF4F4F"/>
</g>
</svg>
