<svg width="40" height="40" viewBox="0 0 40 40" fill="none" xmlns="http://www.w3.org/2000/svg">
<g id="Instagram">
<g id="Ellipse 2">
<path id="Vector" d="M20 39.5C30.7696 39.5 39.5 30.7696 39.5 20C39.5 9.23045 30.7696 0.5 20 0.5C9.23045 0.5 0.5 9.23045 0.5 20C0.5 30.7696 9.23045 39.5 20 39.5Z" stroke="#FF4F4F"/>
</g>
<path id="Instagram Icon" d="M20.5008 16.1668C19.8415 16.1666 19.197 16.3619 18.6488 16.728C18.1005 17.0941 17.6732 17.6146 17.4207 18.2236C17.1683 18.8326 17.1022 19.5028 17.2307 20.1494C17.3592 20.796 17.6765 21.39 18.1426 21.8562C18.6087 22.3224 19.2026 22.6399 19.8491 22.7686C20.4957 22.8973 21.1659 22.8314 21.775 22.5791C22.3841 22.3269 22.9047 21.8997 23.271 21.3516C23.6372 20.8034 23.8328 20.159 23.8328 19.4998C23.8335 19.0619 23.7479 18.6282 23.5807 18.2236C23.4136 17.8189 23.1682 17.4512 22.8587 17.1416C22.5491 16.8319 22.1815 16.5864 21.7769 16.4191C21.3722 16.2519 20.9386 16.1661 20.5008 16.1668V16.1668ZM20.5008 21.6667C20.0721 21.6669 19.653 21.54 19.2966 21.302C18.9401 21.064 18.6622 20.7257 18.498 20.3297C18.3338 19.9338 18.2908 19.498 18.3743 19.0776C18.4578 18.6572 18.6641 18.271 18.9671 17.9678C19.2701 17.6646 19.6562 17.4582 20.0766 17.3745C20.497 17.2908 20.9328 17.3336 21.3288 17.4976C21.7248 17.6616 22.0633 17.9393 22.3015 18.2957C22.5396 18.6521 22.6667 19.0711 22.6667 19.4998C22.6657 20.074 22.4372 20.6244 22.0312 21.0305C21.6253 21.4367 21.075 21.6654 20.5008 21.6667ZM24.7467 16.0307C24.7467 16.1844 24.7012 16.3347 24.6158 16.4624C24.5304 16.5902 24.4091 16.6898 24.2671 16.7486C24.1251 16.8074 23.9689 16.8228 23.8182 16.7928C23.6674 16.7628 23.529 16.6888 23.4203 16.5802C23.3117 16.4715 23.2377 16.3331 23.2077 16.1823C23.1777 16.0316 23.1931 15.8754 23.2519 15.7334C23.3107 15.5914 23.4103 15.4701 23.5381 15.3847C23.6658 15.2993 23.8161 15.2537 23.9698 15.2537C24.0718 15.2536 24.1729 15.2736 24.2673 15.3126C24.3616 15.3516 24.4473 15.4089 24.5195 15.481C24.5916 15.5532 24.6489 15.6389 24.6879 15.7332C24.7269 15.8276 24.7469 15.9287 24.7467 16.0307ZM26.9537 16.8198C26.9751 15.8091 26.598 14.8306 25.9038 14.0958C25.1678 13.4039 24.1906 13.0271 23.1807 13.0457C22.1077 12.9847 18.8917 12.9847 17.8187 13.0457C16.8092 13.0257 15.8319 13.4015 15.0957 14.0927C14.4026 14.8283 14.0256 15.8063 14.0457 16.8167C13.9847 17.8897 13.9847 21.1067 14.0457 22.1807C14.0244 23.1914 14.4015 24.1699 15.0957 24.9047C15.832 25.5961 16.8089 25.9729 17.8187 25.9547C18.8917 26.0157 22.1077 26.0157 23.1807 25.9547C24.1911 25.9761 25.1693 25.5989 25.9038 24.9047C26.5957 24.1685 26.9725 23.191 26.9537 22.1807C27.0147 21.1067 27.0147 17.8928 26.9537 16.8198V16.8198ZM25.5677 23.3318C25.4575 23.6114 25.291 23.8654 25.0786 24.078C24.8662 24.2906 24.6123 24.4573 24.3328 24.5678C23.0733 24.8263 21.7847 24.9141 20.5017 24.8287C19.2202 24.9124 17.9331 24.8246 16.6747 24.5678C16.3943 24.4579 16.1395 24.2914 15.9261 24.0788C15.7128 23.8662 15.5455 23.6119 15.4347 23.3318C15.1765 22.0719 15.0891 20.783 15.1747 19.4998C15.0907 18.2165 15.1785 16.9278 15.4357 15.6677C15.5464 15.3877 15.7135 15.1335 15.9267 14.9209C16.1398 14.7082 16.3945 14.5417 16.6747 14.4317C17.9328 14.175 19.2197 14.0885 20.5008 14.1747C21.7837 14.0907 23.0721 14.1785 24.3317 14.4358C24.6113 14.5462 24.8652 14.7129 25.0776 14.9255C25.29 15.1381 25.4565 15.3921 25.5667 15.6718C25.8253 16.9316 25.9131 18.2205 25.8278 19.5037C25.9132 20.7856 25.8257 22.0732 25.5677 23.3318V23.3318Z" fill="#FF4F4F"/>
</g>
</svg>
