<svg width="40" height="40" viewBox="0 0 40 40" fill="none" xmlns="http://www.w3.org/2000/svg">
<g id="Twitter">
<g id="Ellipse 3">
<path id="Vector" d="M20 39.5C30.7696 39.5 39.5 30.7696 39.5 20C39.5 9.23045 30.7696 0.5 20 0.5C9.23045 0.5 0.5 9.23045 0.5 20C0.5 30.7696 9.23045 39.5 20 39.5Z" stroke="#FF4F4F"/>
</g>
<path id="Twitter Icon" d="M26.458 17.24C26.468 17.382 26.468 17.524 26.468 17.667C26.468 22.004 23.375 27.001 17.721 27.001C16.0341 27.0008 14.3873 26.4866 13 25.527C13.2462 25.5561 13.4941 25.5698 13.742 25.568C15.1398 25.5669 16.492 25.0709 17.559 24.168C16.9008 24.1417 16.268 23.9073 15.7515 23.4985C15.2351 23.0897 14.8616 22.5275 14.685 21.893C14.877 21.9255 15.0713 21.9425 15.266 21.944C15.5395 21.943 15.8116 21.9053 16.075 21.832C15.3586 21.6566 14.7237 21.2418 14.2753 20.6562C13.827 20.0705 13.5923 19.3493 13.61 18.612V18.571C14.0315 18.8232 14.5093 18.9661 15 18.987C14.5704 18.6736 14.2218 18.2623 13.9832 17.7871C13.7446 17.3119 13.6228 16.7867 13.628 16.255C13.6257 15.6768 13.7698 15.1074 14.047 14.6C14.7908 15.5983 15.7432 16.4226 16.838 17.0154C17.9327 17.6083 19.1435 17.9555 20.386 18.033C20.3366 17.7853 20.3112 17.5335 20.31 17.281C20.2833 16.4386 20.592 15.62 21.1684 15.005C21.7448 14.39 22.5416 14.0289 23.384 14.001C23.8107 14.0028 24.232 14.0963 24.6195 14.275C25.007 14.4538 25.3516 14.7136 25.63 15.037C26.323 14.8936 26.9842 14.6253 27.581 14.245C27.3615 14.9902 26.8817 15.6318 26.229 16.053C26.8425 15.9778 27.4402 15.806 28 15.544C27.5846 16.1917 27.0634 16.765 26.458 17.24V17.24Z" fill="#FF4F4F"/>
</g>
</svg>
