<svg width="40" height="40" viewBox="0 0 40 40" fill="none" xmlns="http://www.w3.org/2000/svg">
<g id="Facebook">
<path id="Ellipse 1" d="M20 40C31.0457 40 40 31.0457 40 20C40 8.9543 31.0457 0 20 0C8.9543 0 0 8.9543 0 20C0 31.0457 8.9543 40 20 40Z" fill="#FF4F4F"/>
<path id="Facebook-f Icon" d="M24.41 21.438L24.877 18.723H21.959V16.961C21.959 16.218 22.367 15.494 23.674 15.494H25V13.183C24.2198 13.0707 23.4332 13.0096 22.645 13C20.245 13 18.671 14.3 18.671 16.654V18.723H16V21.438H18.671V28H21.959V21.438H24.41Z" fill="white"/>
</g>
</svg>
