<svg width="60" height="60" viewBox="0 0 60 60" fill="none" xmlns="http://www.w3.org/2000/svg">
<path d="M17.1193 25.3989L23.2248 19.3351C27.7718 14.8192 23.3869 10.9169 20.1659 7.72247L15.1968 2.78729C11.624 -0.76106 6.91482 3.14273 5.16055 4.88349C3.40628 6.62425 -3.34924 11.6582 2.04204 17.0111L42.8353 57.5255C43.5268 58.3025 44.3766 58.9246 45.3284 59.3508C46.2803 59.7769 47.3125 59.9973 48.3566 59.9973C49.4007 59.9973 50.4329 59.7769 51.3847 59.3508C52.3366 58.9246 53.1864 58.3025 53.8779 57.5255L58.4249 53.0096C61.6734 49.7832 58.1649 45.0106 56.3464 42.9463C54.5248 40.9294 52.5721 39.0332 50.5009 37.2698C49.7983 36.6568 48.9793 36.1897 48.092 35.8962C47.2048 35.6027 46.2673 35.4887 45.335 35.5609C44.4027 35.6331 43.4943 35.8901 42.6636 36.3166C41.8329 36.7432 41.0967 37.3307 40.4983 38.0445C38.7743 39.867 36.9065 41.5498 34.9128 43.0769L17.1193 25.3989Z" fill="#2D4C9F"/>
<path d="M44.048 25.6238C43.0401 20.6005 38.9213 16.9959 32.6109 15.638C32.0979 15.5307 31.6446 15.2349 31.3417 14.8099C31.0388 14.3849 30.9087 13.862 30.9774 13.3458C31.015 13.0653 31.1103 12.7956 31.2575 12.5533C31.4047 12.3111 31.6006 12.1015 31.8329 11.9378C32.0652 11.774 32.3291 11.6596 32.6079 11.6015C32.8867 11.5435 33.1746 11.5431 33.4536 11.6005C41.4388 13.3185 46.8224 18.2005 48.1362 24.8688C48.1957 25.1611 48.1912 25.4626 48.1229 25.7529C48.0546 26.0432 47.9242 26.3155 47.7404 26.5513C47.5567 26.7871 47.3241 26.9808 47.0583 27.1193C46.7924 27.2578 46.4997 27.3378 46.1999 27.3539C45.6912 27.3728 45.1929 27.2079 44.7972 26.8898C44.4015 26.5717 44.1354 26.1219 44.048 25.6238Z" fill="#FF4F4F"/>
<path d="M55.8554 26.9104C54.3795 15.2035 44.8342 6.65316 30.3412 4.09063C29.8177 3.99405 29.352 3.7005 29.0411 3.27119C28.7303 2.84188 28.5982 2.30995 28.6726 1.78633C28.7115 1.50894 28.8066 1.24224 28.952 1.0023C29.0975 0.762366 29.2904 0.55416 29.519 0.390232C29.7477 0.226304 30.0074 0.110045 30.2825 0.0484621C30.5576 -0.0131212 30.8424 -0.0187545 31.1197 0.0319015C47.5062 2.93469 58.3086 12.8218 59.9879 26.4122C60.0214 26.694 59.9962 26.9797 59.9138 27.2515C59.8314 27.5233 59.6936 27.7753 59.509 27.992C59.3244 28.2086 59.0969 28.3853 58.8407 28.511C58.5845 28.6366 58.305 28.7087 58.0195 28.7225C57.4949 28.7482 56.98 28.5756 56.5785 28.2393C56.1769 27.9031 55.9185 27.4282 55.8554 26.9104Z" fill="#FF4F4F"/>
</svg>
