<svg width="60" height="51" viewBox="0 0 60 51" fill="none" xmlns="http://www.w3.org/2000/svg">
<path d="M8.26604 47.6329V35.1938H6.12827C4.46556 35.1938 3.02803 34.5496 1.81568 33.2612C0.605226 31.9707 0 30.4406 0 28.6708V21.9962C0 20.2264 0.605226 18.6963 1.81568 17.4058C3.02803 16.1174 4.46556 15.4732 6.12827 15.4732H16.1045L31.2114 5.76465V44.9024L16.1045 35.1938H14.6793V47.6329H8.26604ZM6.4133 22.2996V28.3674H17.8147L24.7981 32.7666V17.9004L17.8147 22.2996H6.4133Z" fill="#2D4C9F"/>
<path d="M47.886 28.6707V21.8443H60V28.6707H47.886ZM51.4489 50.6667L41.7577 43.0818L45.6057 37.4691L55.2969 45.2056L51.4489 50.6667ZM45.6057 13.1976L41.7577 7.58483L51.4489 0L55.2969 5.46108L45.6057 13.1976ZM36.9121 35.9521V14.7146C38.2898 16.0293 39.3948 17.5968 40.2271 19.4172C41.0575 21.2375 41.4727 23.2096 41.4727 25.3333C41.4727 27.4571 41.0575 29.4291 40.2271 31.2495C39.3948 33.0699 38.2898 34.6374 36.9121 35.9521Z" fill="#FF4F4F"/>
</svg>
