<svg width="54" height="60" viewBox="0 0 54 60" fill="none" xmlns="http://www.w3.org/2000/svg">
<path d="M20.2493 36.7141C20.2686 35.7426 20.0542 34.7812 19.6252 33.9156C19.1962 33.0499 18.566 32.3068 17.7905 31.7524C14.9037 29.7187 12.7266 26.7863 11.5784 23.3856C10.4303 19.985 10.3718 16.2951 11.4114 12.8577C12.451 9.42024 14.534 6.41627 17.3547 4.28668C20.1753 2.1571 23.5851 1.01406 27.0834 1.02535C30.5818 1.03664 33.9845 2.20166 36.7921 4.34941C39.5998 6.49716 41.6644 9.51452 42.683 12.9586C43.7017 16.4027 43.6206 20.0921 42.4518 23.4853C41.283 26.8785 39.088 29.7968 36.1889 31.8118C35.4251 32.3627 34.8036 33.0972 34.3784 33.9516C33.9532 34.806 33.7373 35.7543 33.7493 36.7141H20.2493ZM49.5425 33.2414C49.3735 33.2421 49.2073 33.1975 49.0602 33.112L44.8866 30.6319C44.664 30.5002 44.5012 30.283 44.4342 30.0279C44.3672 29.7728 44.4014 29.5007 44.5293 29.2716C44.6573 29.0424 44.8684 28.8749 45.1163 28.806C45.3642 28.737 45.6286 28.7723 45.8512 28.9039L50.0262 31.3855C50.2114 31.4937 50.3566 31.6619 50.4392 31.8639C50.5218 32.0659 50.537 32.2904 50.4826 32.5022C50.4283 32.7141 50.3073 32.9015 50.1385 33.0352C49.9698 33.1689 49.7628 33.2414 49.5499 33.2414H49.5425ZM3.51671 32.506C3.4615 32.2935 3.47644 32.0682 3.55918 31.8653C3.64192 31.6625 3.78779 31.4937 3.97386 31.3855L8.14888 28.9039C8.37155 28.7723 8.63592 28.737 8.88382 28.806C9.00657 28.8401 9.12158 28.8988 9.22229 28.9787C9.323 29.0586 9.40743 29.1581 9.47077 29.2716C9.53411 29.385 9.57511 29.5102 9.59143 29.64C9.60775 29.7697 9.59907 29.9015 9.5659 30.0279C9.53272 30.1542 9.47569 30.2725 9.39806 30.3762C9.32044 30.4798 9.22374 30.5667 9.11348 30.6319L4.93699 33.112C4.78983 33.1974 4.62363 33.242 4.45469 33.2414C4.24133 33.2428 4.03352 33.1714 3.8638 33.0383C3.69408 32.9053 3.57201 32.7181 3.51671 32.506ZM48.2139 19.8453C48.0813 19.856 47.9479 19.8384 47.8223 19.7935C47.6966 19.7486 47.5813 19.6775 47.4836 19.5845C47.3859 19.4916 47.308 19.3789 47.2547 19.2534C47.2013 19.128 47.1738 18.9926 47.1738 18.8557C47.1738 18.7188 47.2013 18.5833 47.2547 18.4579C47.308 18.3325 47.3859 18.2198 47.4836 18.1268C47.5813 18.0339 47.6966 17.9627 47.8223 17.9179C47.9479 17.873 48.0813 17.8554 48.2139 17.8661H53.0355C53.1681 17.8554 53.3014 17.873 53.4271 17.9179C53.5528 17.9627 53.6681 18.0339 53.7658 18.1268C53.8635 18.2198 53.9414 18.3325 53.9947 18.4579C54.048 18.5833 54.0756 18.7188 54.0756 18.8557C54.0756 18.9926 54.048 19.128 53.9947 19.2534C53.9414 19.3789 53.8635 19.4916 53.7658 19.5845C53.6681 19.6775 53.5528 19.7486 53.4271 19.7935C53.3014 19.8384 53.1681 19.856 53.0355 19.8453H48.2139ZM0.964659 19.8453C0.832032 19.856 0.698684 19.8384 0.572998 19.7935C0.447312 19.7486 0.332004 19.6775 0.234322 19.5845C0.136639 19.4916 0.058695 19.3789 0.00538716 19.2534C-0.0479207 19.128 -0.0754395 18.9926 -0.0754395 18.8557C-0.0754395 18.7188 -0.0479207 18.5833 0.00538716 18.4579C0.058695 18.3325 0.136639 18.2198 0.234322 18.1268C0.332004 18.0339 0.447312 17.9627 0.572998 17.9179C0.698684 17.873 0.832032 17.8554 0.964659 17.8661H5.78471C5.91734 17.8554 6.05069 17.873 6.17637 17.9179C6.30206 17.9627 6.41737 18.0339 6.51505 18.1268C6.61273 18.2198 6.69068 18.3325 6.74399 18.4579C6.79729 18.5833 6.82481 18.7188 6.82481 18.8557C6.82481 18.9926 6.79729 19.128 6.74399 19.2534C6.69068 19.3789 6.61273 19.4916 6.51505 19.5845C6.41737 19.6775 6.30206 19.7486 6.17637 19.7935C6.05069 19.8384 5.91734 19.856 5.78471 19.8453H0.964659ZM44.431 8.19391C44.376 7.98141 44.3911 7.75615 44.4738 7.5534C44.5565 7.35064 44.7022 7.18183 44.8881 7.07338L49.0631 4.59178C49.2856 4.46015 49.5498 4.42485 49.7975 4.49366C50.0453 4.56247 50.2564 4.72975 50.3843 4.95869C50.5122 5.18764 50.5465 5.45949 50.4796 5.71446C50.4128 5.96942 50.2502 6.18661 50.0277 6.31825L45.8512 8.79985C45.7042 8.88552 45.5379 8.93013 45.3689 8.92926C45.1556 8.93044 44.948 8.85895 44.7783 8.72593C44.6086 8.59291 44.4865 8.40584 44.431 8.19391ZM8.19622 8.80289L3.97238 6.31977C3.86223 6.25459 3.76562 6.16772 3.68808 6.06412C3.61055 5.96053 3.5536 5.84223 3.52049 5.71598C3.48738 5.58974 3.47876 5.45801 3.49512 5.32834C3.51148 5.19867 3.5525 5.07358 3.61584 4.96021C3.67917 4.84685 3.76359 4.74744 3.86426 4.66765C3.96493 4.58786 4.07989 4.52926 4.20257 4.49519C4.32525 4.46112 4.45325 4.45224 4.57926 4.46908C4.70527 4.48591 4.82683 4.52812 4.93699 4.5933L9.112 7.07491C9.29444 7.18103 9.43833 7.34541 9.52191 7.54318C9.60548 7.74094 9.6242 7.96134 9.57522 8.17103C9.52624 8.38072 9.41224 8.56829 9.25045 8.70536C9.08867 8.84244 8.8879 8.92157 8.67852 8.93078C8.50943 8.93105 8.34318 8.88592 8.19622 8.79985V8.80289Z" fill="#FF4F4F"/>
<path d="M27.1257 60C26.8741 59.9997 26.6324 59.8993 26.4511 59.7199L19.6678 53.0302C19.4978 52.9014 19.3748 52.7174 19.3186 52.508C19.2866 52.3891 19.2776 52.265 19.292 52.1426V46.4182C18.4986 46.3122 17.7691 45.9149 17.2377 45.2995C16.7063 44.6841 16.4087 43.892 16.3997 43.0687C16.3995 42.6163 16.4887 42.1685 16.6619 41.7526C16.8351 41.3367 17.0887 40.9615 17.4072 40.6496C17.0876 40.3382 16.8329 39.9631 16.6587 39.5472C16.4845 39.1313 16.3943 38.6833 16.3938 38.2304C16.4013 37.4209 16.6882 36.6405 17.203 36.0284C17.7179 35.4163 18.4273 35.0123 19.2047 34.8886C19.0923 34.2696 18.8619 33.6797 18.5267 33.1529C18.1915 32.6261 17.7582 32.1728 17.2518 31.8193C14.7613 30.1712 12.7432 27.8691 11.4057 25.1506C10.0682 22.432 9.45968 19.3955 9.64302 16.3542C9.66087 16.0952 9.77735 15.854 9.96713 15.6829C10.1569 15.5119 10.4046 15.4248 10.6564 15.4407C10.7815 15.4454 10.9045 15.4755 11.0182 15.5292C11.132 15.5829 11.2344 15.6592 11.3194 15.7536C11.4045 15.8481 11.4706 15.9589 11.514 16.0798C11.5574 16.2006 11.5772 16.329 11.5722 16.4577C11.4072 19.1582 11.9458 21.8551 13.1323 24.2697C14.3188 26.6844 16.1102 28.7293 18.3215 30.1933C19.0874 30.7151 19.7359 31.3997 20.2233 32.2009C20.7107 33.0021 21.0257 33.9014 21.1472 34.8383H24.1061C23.9857 29.9741 22.0091 25.3542 18.6041 21.9782C18.5148 21.8893 18.4437 21.7828 18.3952 21.6651C18.3467 21.5474 18.3217 21.4209 18.3217 21.2931C18.3217 21.1652 18.3467 21.0387 18.3952 20.921C18.4437 20.8033 18.5148 20.6968 18.6041 20.608L22.4595 16.7318C22.6444 16.5518 22.8892 16.4515 23.1438 16.4515C23.3983 16.4515 23.6431 16.5518 23.828 16.7318L27.0014 19.9289L30.1837 16.7318C30.367 16.5486 30.6125 16.4462 30.868 16.4462C31.1235 16.4462 31.3689 16.5486 31.5522 16.7318L35.4092 20.6034C35.4986 20.6921 35.5698 20.7986 35.6184 20.9163C35.6671 21.034 35.6921 21.1606 35.6921 21.2885C35.6921 21.4164 35.6671 21.543 35.6184 21.6607C35.5698 21.7784 35.4986 21.8848 35.4092 21.9736C34.2653 23.1227 33.2761 24.4243 32.468 25.8437C32.3362 26.0684 32.1245 26.2314 31.8779 26.2982C31.6313 26.365 31.3691 26.3303 31.1469 26.2015C31.0374 26.14 30.941 26.0565 30.8635 25.956C30.786 25.8554 30.7289 25.7398 30.6956 25.6161C30.6623 25.4924 30.6536 25.3631 30.6699 25.2359C30.6861 25.1086 30.7271 24.986 30.7903 24.8754C31.5179 23.5852 32.3811 22.3813 33.3645 21.2854L30.8569 18.7795L27.6761 21.9766C27.4928 22.1564 27.2494 22.2566 26.9962 22.2566C26.7431 22.2566 26.4997 22.1564 26.3164 21.9766L23.143 18.7932L20.6353 21.29C24.0062 24.9608 25.93 29.7905 26.0324 34.8399H27.9705C28.0244 32.6918 28.4063 30.5659 29.1022 28.5399C29.1911 28.294 29.3699 28.0935 29.6005 27.9814C29.831 27.8693 30.0951 27.8545 30.3361 27.9401C30.4546 27.9804 30.5641 28.0446 30.6582 28.1289C30.7523 28.2132 30.8292 28.316 30.8843 28.4312C30.9394 28.5465 30.9716 28.6718 30.9791 28.8C30.9866 28.9282 30.9692 29.0567 30.9279 29.1779C30.293 30.9967 29.9435 32.908 29.8923 34.8399H32.8512C32.9539 34.0828 33.1821 33.3495 33.5258 32.6719C34.0298 31.6815 34.77 30.8392 35.6769 30.2238C38.5162 28.3245 40.6391 25.4832 41.6931 22.1714C42.7472 18.8597 42.6692 15.2766 41.4719 12.0167C40.3175 9.03874 38.3217 6.48545 35.7425 4.68674C33.1634 2.88802 30.1193 1.92656 27.0036 1.92656C23.888 1.92656 20.8439 2.88802 18.2648 4.68674C15.6856 6.48545 13.6898 9.03874 12.5353 12.0167C12.4417 12.2605 12.2591 12.4567 12.0265 12.5635C11.7939 12.6702 11.5299 12.6789 11.2911 12.5877C11.1733 12.5453 11.0649 12.4792 10.9722 12.3931C10.8795 12.3071 10.8044 12.2029 10.7514 12.0866C10.6983 11.9704 10.6684 11.8444 10.6632 11.716C10.6581 11.5877 10.6779 11.4596 10.7215 11.3392C11.769 8.66436 13.4223 6.28568 15.5436 4.40124C17.665 2.51679 20.1932 1.1811 22.9176 0.505363C25.642 -0.17037 28.4839 -0.166591 31.2066 0.516384C33.9293 1.19936 36.4541 2.54177 38.5707 4.43185C40.5322 6.17338 42.0725 8.36127 43.0692 10.822C44.066 13.2827 44.4919 15.9486 44.3131 18.6082C44.1343 21.2678 43.3559 23.848 42.0394 26.1441C40.7229 28.4402 38.9046 30.389 36.7288 31.8361C36.1034 32.2697 35.5946 32.8589 35.2494 33.5488C35.0397 33.9728 34.8903 34.4255 34.8055 34.8932C35.5828 35.0166 36.2922 35.4202 36.8071 36.0321C37.322 36.6439 37.6089 37.4241 37.6165 38.2334C37.6159 38.6863 37.5258 39.1344 37.3516 39.5503C37.1773 39.9662 36.9227 40.3412 36.6031 40.6526C36.9227 40.964 37.1773 41.339 37.3516 41.7549C37.5258 42.1708 37.6159 42.6189 37.6165 43.0718C37.6075 43.895 37.3099 44.6872 36.7784 45.3026C36.247 45.918 35.5175 46.3152 34.7242 46.4212V52.1045C34.7605 52.3255 34.7196 52.5526 34.6088 52.7455C34.5406 52.8657 34.4483 52.9695 34.338 53.05L30.5536 56.9201C30.5286 56.9539 30.5014 56.9859 30.4722 57.016L27.8048 59.7107C27.6249 59.8937 27.383 59.9974 27.1301 60H27.1257Z" fill="#2D4C9F"/>
</svg>
