<svg width="60" height="50" viewBox="0 0 60 50" fill="none" xmlns="http://www.w3.org/2000/svg">
<path d="M6.04114 29.2794C5.15889 28.345 4.49473 27.2509 4.09053 26.0663C3.68633 24.8817 3.55086 23.6321 3.69265 22.3965C3.80376 20.6935 4.56814 19.0837 5.84736 17.8588C7.12657 16.6339 8.83602 15.8749 10.666 15.7192C13.8952 15.5147 17.4901 16.4686 19.1793 19.1941C20.5873 21.9992 20.7456 25.207 19.6197 28.1199C23.8776 29.9596 24.6102 30.3684 24.9785 31.3223C26.8132 29.9596 29.0883 27.643 30.4094 26.5528C31.7304 25.4626 32.8313 25.9396 33.2716 26.5528C33.712 27.166 34.5927 27.8474 32.4643 29.8915C30.336 31.9355 27.6205 34.3885 26.6703 35.138C25.7201 35.8875 24.6888 35.2742 23.8081 34.251C22.9274 33.2277 23.0742 31.73 19.9184 31.5937C16.7626 31.4574 11.6974 31.3893 8.76174 31.5937C5.82612 31.7981 3.64759 34.2354 3.636 35.4691C3.62441 36.7027 2.96389 42.9055 3.03728 44.4033C3.05339 45.0622 3.33269 45.692 3.82093 46.1705C4.30917 46.649 4.97152 46.9419 5.67934 46.9924C6.85359 46.9243 8.76174 46.3792 8.83513 44.5396C8.92678 43.4061 8.95127 42.2687 8.90852 41.1327C8.83513 40.0426 11.7708 39.6337 11.9909 40.9283C12.3643 42.7865 12.2638 44.6999 11.6974 46.5155C11.2625 47.5551 10.4944 48.4457 9.49697 49.0671C8.49952 49.6885 7.3207 50.0108 6.11968 49.9905C3.11067 49.8542 0.468611 48.1508 0.175049 46.4474C-0.0459797 42.8845 -0.0459797 39.3128 0.175049 35.75C0.387644 34.2648 1.05264 32.8668 2.09183 31.7206C3.13102 30.5743 4.50118 29.7274 6.04114 29.2794Z" fill="#2D4C9F"/>
<path d="M54.7018 31.8267C55.4756 31.0072 56.0582 30.0477 56.4128 29.0087C56.7673 27.9698 56.8862 26.8739 56.7618 25.7901C56.664 24.2965 55.9936 22.8848 54.8717 21.8104C53.7499 20.736 52.2509 20.07 50.646 19.9328C47.8133 19.7535 44.6601 20.5902 43.1781 22.981C41.9434 25.4413 41.8046 28.2547 42.7919 30.8095C35.7992 32.8416 32.4914 37.5908 34.6983 38.681C37.2374 39.9373 38.1902 36.9429 39.1224 36.1875C40.157 35.1493 41.5066 34.427 42.9927 34.1159C45.6425 33.364 49.7434 33.6772 52.3185 33.8577C54.8936 34.0382 56.8031 36.1743 56.8134 37.2573C56.8237 38.3403 57.403 43.7781 57.3387 45.093C57.3251 45.6711 57.0803 46.2239 56.6519 46.6438C56.2235 47.0636 55.6422 47.3204 55.0211 47.3642C53.991 47.3044 52.3172 46.8275 52.2528 45.2125C52.1725 44.2182 52.151 43.2206 52.1884 42.2241C52.2528 41.2678 49.679 40.9092 49.4846 42.0448C49.1569 43.6747 49.2451 45.3532 49.7421 46.9458C50.1241 47.8573 50.7979 48.6381 51.6728 49.183C52.5477 49.7278 53.5815 50.0104 54.6348 49.9928C57.273 49.8733 59.5906 48.3791 59.8481 46.8848C60.0417 43.7599 60.0417 40.6273 59.8481 37.5024C59.6618 36.1995 59.0784 34.9731 58.1667 33.9676C57.255 32.9621 56.0528 32.2193 54.7018 31.8267Z" fill="#2D4C9F"/>
<path d="M24.0516 13.2197V6.06535C24.0516 1.77277 26.4734 0.00122878 30.0696 0.00122878H37.7756C38.5612 -0.00581925 39.3402 0.134915 40.0656 0.414947C40.7911 0.694978 41.4479 1.10851 41.9965 1.6306C42.5452 2.15269 42.9742 2.77252 43.2579 3.45273C43.5415 4.13294 43.6738 4.85943 43.6468 5.5884C43.6468 9.26775 43.7202 12.2669 40.9314 13.4934C38.1425 14.7198 36.8215 14.311 33.8498 14.2429C31.7783 15.7817 29.5831 17.1712 27.2833 18.3992C26.9619 18.5616 26.6019 18.6466 26.236 18.6464C25.8701 18.6462 25.5101 18.5609 25.1889 18.3983C24.8677 18.2356 24.5955 18.0008 24.3973 17.7153C24.1991 17.4298 24.0811 17.1027 24.0541 16.7639C23.9795 15.7407 24.0516 13.2197 24.0516 13.2197Z" fill="#FF4F4F"/>
</svg>
