<svg width="60" height="60" viewBox="0 0 60 60" fill="none" xmlns="http://www.w3.org/2000/svg">
<path d="M25.6188 53.3204H47.227L57.547 59.7587C57.795 59.9114 58.0763 59.992 58.3627 59.9924C58.6491 59.9929 58.9306 59.9132 59.1791 59.7613C59.4276 59.6094 59.6343 59.3906 59.7786 59.1269C59.9229 58.8631 59.9998 58.5635 60.0015 58.2581V24.344C60.0015 23.8813 59.8291 23.4375 59.5222 23.1103C59.2153 22.7831 58.7991 22.5992 58.3651 22.5992H25.6188C25.1848 22.5992 24.7686 22.7831 24.4617 23.1103C24.1548 23.4375 23.9824 23.8813 23.9824 24.344V51.5858C23.9849 52.0468 24.1585 52.488 24.4651 52.813C24.7717 53.138 25.1864 53.3204 25.6188 53.3204Z" fill="#FF4F4F"/>
<path d="M38.7504 34.6223H14.3972L2.77219 41.8777C2.49295 42.052 2.17551 42.1446 1.85195 42.1462C1.52838 42.1477 1.21016 42.0582 0.929442 41.8867C0.648722 41.7151 0.415448 41.4676 0.253193 41.1691C0.0909375 40.8706 0.00545095 40.5317 0.00537109 40.1867V1.95716C0.00537109 1.43734 0.199035 0.938818 0.543761 0.571252C0.888487 0.203687 1.35604 -0.00280762 1.84355 -0.00280762H38.7504C39.2379 -0.00280762 39.7054 0.203687 40.0502 0.571252C40.3949 0.938818 40.5885 1.43734 40.5885 1.95716V32.6623C40.5885 33.1822 40.3949 33.6807 40.0502 34.0483C39.7054 34.4158 39.2379 34.6223 38.7504 34.6223Z" fill="#2D4C9F"/>
<path d="M14.4832 16.7499H14.4818C13.3401 16.7499 12.4146 17.7367 12.4146 18.9541V18.9556C12.4146 20.1729 13.3401 21.1598 14.4818 21.1598H14.4832C15.6249 21.1598 16.5505 20.1729 16.5505 18.9556V18.9541C16.5505 17.7367 15.6249 16.7499 14.4832 16.7499Z" fill="white"/>
<path d="M21.9505 16.7499H21.9491C20.8074 16.7499 19.8818 17.7367 19.8818 18.9541V18.9556C19.8818 20.1729 20.8074 21.1598 21.9491 21.1598H21.9505C23.0922 21.1598 24.0177 20.1729 24.0177 18.9556V18.9541C24.0177 17.7367 23.0922 16.7499 21.9505 16.7499Z" fill="white"/>
<path d="M29.4163 16.7499H29.4149C28.2732 16.7499 27.3477 17.7367 27.3477 18.9541V18.9556C27.3477 20.1729 28.2732 21.1598 29.4149 21.1598H29.4163C30.558 21.1598 31.4836 20.1729 31.4836 18.9556V18.9541C31.4836 17.7367 30.558 16.7499 29.4163 16.7499Z" fill="white"/>
</svg>
