<svg width="50" height="60" viewBox="0 0 50 60" fill="none" xmlns="http://www.w3.org/2000/svg">
<path d="M29.9284 17.2803L48.6473 24.5839C49.0471 24.74 49.3909 25.0153 49.6334 25.3737C49.8759 25.7321 50.0057 26.1566 50.0058 26.5914V57.8486C50.0058 58.4188 49.7826 58.9657 49.3854 59.3688C48.9882 59.772 48.4495 59.9985 47.8878 59.9985H29.1688C28.6069 59.9985 28.0681 59.772 27.6706 59.3689C27.2732 58.9658 27.0497 58.419 27.0493 57.8486V19.2848C27.0496 18.936 27.1335 18.5925 27.2938 18.284C27.454 17.9754 27.6859 17.711 27.9693 17.5137C28.2527 17.3164 28.5791 17.192 28.9204 17.1514C29.2617 17.1107 29.6077 17.155 29.9284 17.2803Z" fill="#2D4C9F"/>
<path d="M28.0952 0.20464L1.90039 10.4349C1.34113 10.6535 0.860277 11.039 0.52127 11.5406C0.182263 12.0422 0.00102717 12.6363 0.00146564 13.2446V56.9962C0.00146564 57.7944 0.313875 58.56 0.869964 59.1244C1.42605 59.6889 2.18027 60.006 2.9667 60.006H29.1616C29.948 60.006 30.7022 59.6889 31.2583 59.1244C31.8144 58.56 32.1268 57.7944 32.1268 56.9962V3.01279C32.1268 2.52418 32.0095 2.04292 31.7852 1.6106C31.5609 1.17828 31.2363 0.80789 30.8393 0.531425C30.4424 0.254961 29.9852 0.0807347 29.5071 0.0237995C29.029 -0.0331356 28.5444 0.0289335 28.0952 0.20464ZM21.7455 41.1377C21.7452 41.6696 21.5368 42.1797 21.1663 42.5558C20.7957 42.9319 20.2932 43.1434 19.7692 43.1438H11.8609C11.6014 43.1438 11.3444 43.0919 11.1046 42.9911C10.8649 42.8903 10.647 42.7425 10.4635 42.5562C10.2799 42.3699 10.1344 42.1488 10.0351 41.9054C9.93574 41.662 9.88461 41.4012 9.88461 41.1377V40.3015C9.88461 40.0381 9.93574 39.7772 10.0351 39.5338C10.1344 39.2905 10.2799 39.0693 10.4635 38.883C10.647 38.6968 10.8649 38.549 11.1046 38.4482C11.3444 38.3474 11.6014 38.2955 11.8609 38.2955H19.7692C20.0287 38.2955 20.2857 38.3474 20.5255 38.4482C20.7653 38.549 20.9832 38.6968 21.1667 38.883C21.3502 39.0693 21.4958 39.2905 21.5951 39.5338C21.6944 39.7772 21.7455 40.0381 21.7455 40.3015V41.1377ZM21.7455 30.4196C21.7455 30.9517 21.5373 31.4619 21.1667 31.8381C20.7961 32.2143 20.2934 32.4257 19.7692 32.4257H11.8609C11.3368 32.4257 10.8341 32.2143 10.4635 31.8381C10.0928 31.4619 9.88461 30.9517 9.88461 30.4196V29.5834C9.88461 29.0514 10.0928 28.5412 10.4635 28.1649C10.8341 27.7887 11.3368 27.5774 11.8609 27.5774H19.7692C20.2934 27.5774 20.7961 27.7887 21.1667 28.1649C21.5373 28.5412 21.7455 29.0514 21.7455 29.5834V30.4196ZM21.7455 19.7015C21.7455 20.2336 21.5373 20.7438 21.1667 21.12C20.7961 21.4962 20.2934 21.7076 19.7692 21.7076H11.8609C11.3368 21.7076 10.8341 21.4962 10.4635 21.12C10.0928 20.7438 9.88461 20.2336 9.88461 19.7015V18.8653C9.88461 18.3333 10.0928 17.823 10.4635 17.4468C10.8341 17.0706 11.3368 16.8593 11.8609 16.8593H19.7692C20.2934 16.8593 20.7961 17.0706 21.1667 17.4468C21.5373 17.823 21.7455 18.3333 21.7455 18.8653V19.7015Z" fill="#FF4F4F"/>
</svg>
