<svg width="140" height="170" viewBox="0 0 140 170" fill="none" xmlns="http://www.w3.org/2000/svg">
<path d="M2.5 5C3.88071 5 5 3.88071 5 2.5C5 1.11929 3.88071 0 2.5 0C1.11929 0 0 1.11929 0 2.5C0 3.88071 1.11929 5 2.5 5Z" fill="#FF4F4F"/>
<path d="M17.5 5C18.8807 5 20 3.88071 20 2.5C20 1.11929 18.8807 0 17.5 0C16.1193 0 15 1.11929 15 2.5C15 3.88071 16.1193 5 17.5 5Z" fill="#FF4F4F"/>
<path d="M32.5 5C33.8807 5 35 3.88071 35 2.5C35 1.11929 33.8807 0 32.5 0C31.1193 0 30 1.11929 30 2.5C30 3.88071 31.1193 5 32.5 5Z" fill="#FF4F4F"/>
<path d="M47.5 5C48.8807 5 50 3.88071 50 2.5C50 1.11929 48.8807 0 47.5 0C46.1193 0 45 1.11929 45 2.5C45 3.88071 46.1193 5 47.5 5Z" fill="#FF4F4F"/>
<path d="M62.5 5C63.8807 5 65 3.88071 65 2.5C65 1.11929 63.8807 0 62.5 0C61.1193 0 60 1.11929 60 2.5C60 3.88071 61.1193 5 62.5 5Z" fill="#FF4F4F"/>
<path d="M77.5 5C78.8807 5 80 3.88071 80 2.5C80 1.11929 78.8807 0 77.5 0C76.1193 0 75 1.11929 75 2.5C75 3.88071 76.1193 5 77.5 5Z" fill="#FF4F4F"/>
<path d="M92.5 5C93.8807 5 95 3.88071 95 2.5C95 1.11929 93.8807 0 92.5 0C91.1193 0 90 1.11929 90 2.5C90 3.88071 91.1193 5 92.5 5Z" fill="#FF4F4F"/>
<path d="M107.5 5C108.881 5 110 3.88071 110 2.5C110 1.11929 108.881 0 107.5 0C106.119 0 105 1.11929 105 2.5C105 3.88071 106.119 5 107.5 5Z" fill="#FF4F4F"/>
<path d="M122.5 5C123.881 5 125 3.88071 125 2.5C125 1.11929 123.881 0 122.5 0C121.119 0 120 1.11929 120 2.5C120 3.88071 121.119 5 122.5 5Z" fill="#FF4F4F"/>
<path d="M137.5 5C138.881 5 140 3.88071 140 2.5C140 1.11929 138.881 0 137.5 0C136.119 0 135 1.11929 135 2.5C135 3.88071 136.119 5 137.5 5Z" fill="#FF4F4F"/>
<path d="M2.5 20C3.88071 20 5 18.8807 5 17.5C5 16.1193 3.88071 15 2.5 15C1.11929 15 0 16.1193 0 17.5C0 18.8807 1.11929 20 2.5 20Z" fill="#FF4F4F"/>
<path d="M17.5 20C18.8807 20 20 18.8807 20 17.5C20 16.1193 18.8807 15 17.5 15C16.1193 15 15 16.1193 15 17.5C15 18.8807 16.1193 20 17.5 20Z" fill="#FF4F4F"/>
<path d="M32.5 20C33.8807 20 35 18.8807 35 17.5C35 16.1193 33.8807 15 32.5 15C31.1193 15 30 16.1193 30 17.5C30 18.8807 31.1193 20 32.5 20Z" fill="#FF4F4F"/>
<path d="M47.5 20C48.8807 20 50 18.8807 50 17.5C50 16.1193 48.8807 15 47.5 15C46.1193 15 45 16.1193 45 17.5C45 18.8807 46.1193 20 47.5 20Z" fill="#FF4F4F"/>
<path d="M62.5 20C63.8807 20 65 18.8807 65 17.5C65 16.1193 63.8807 15 62.5 15C61.1193 15 60 16.1193 60 17.5C60 18.8807 61.1193 20 62.5 20Z" fill="#FF4F4F"/>
<path d="M77.5 20C78.8807 20 80 18.8807 80 17.5C80 16.1193 78.8807 15 77.5 15C76.1193 15 75 16.1193 75 17.5C75 18.8807 76.1193 20 77.5 20Z" fill="#FF4F4F"/>
<path d="M92.5 20C93.8807 20 95 18.8807 95 17.5C95 16.1193 93.8807 15 92.5 15C91.1193 15 90 16.1193 90 17.5C90 18.8807 91.1193 20 92.5 20Z" fill="#FF4F4F"/>
<path d="M107.5 20C108.881 20 110 18.8807 110 17.5C110 16.1193 108.881 15 107.5 15C106.119 15 105 16.1193 105 17.5C105 18.8807 106.119 20 107.5 20Z" fill="#FF4F4F"/>
<path d="M122.5 20C123.881 20 125 18.8807 125 17.5C125 16.1193 123.881 15 122.5 15C121.119 15 120 16.1193 120 17.5C120 18.8807 121.119 20 122.5 20Z" fill="#FF4F4F"/>
<path d="M137.5 20C138.881 20 140 18.8807 140 17.5C140 16.1193 138.881 15 137.5 15C136.119 15 135 16.1193 135 17.5C135 18.8807 136.119 20 137.5 20Z" fill="#FF4F4F"/>
<path d="M2.5 35C3.88071 35 5 33.8807 5 32.5C5 31.1193 3.88071 30 2.5 30C1.11929 30 0 31.1193 0 32.5C0 33.8807 1.11929 35 2.5 35Z" fill="#FF4F4F"/>
<path d="M17.5 35C18.8807 35 20 33.8807 20 32.5C20 31.1193 18.8807 30 17.5 30C16.1193 30 15 31.1193 15 32.5C15 33.8807 16.1193 35 17.5 35Z" fill="#FF4F4F"/>
<path d="M32.5 35C33.8807 35 35 33.8807 35 32.5C35 31.1193 33.8807 30 32.5 30C31.1193 30 30 31.1193 30 32.5C30 33.8807 31.1193 35 32.5 35Z" fill="#FF4F4F"/>
<path d="M47.5 35C48.8807 35 50 33.8807 50 32.5C50 31.1193 48.8807 30 47.5 30C46.1193 30 45 31.1193 45 32.5C45 33.8807 46.1193 35 47.5 35Z" fill="#FF4F4F"/>
<path d="M62.5 35C63.8807 35 65 33.8807 65 32.5C65 31.1193 63.8807 30 62.5 30C61.1193 30 60 31.1193 60 32.5C60 33.8807 61.1193 35 62.5 35Z" fill="#FF4F4F"/>
<path d="M77.5 35C78.8807 35 80 33.8807 80 32.5C80 31.1193 78.8807 30 77.5 30C76.1193 30 75 31.1193 75 32.5C75 33.8807 76.1193 35 77.5 35Z" fill="#FF4F4F"/>
<path d="M92.5 35C93.8807 35 95 33.8807 95 32.5C95 31.1193 93.8807 30 92.5 30C91.1193 30 90 31.1193 90 32.5C90 33.8807 91.1193 35 92.5 35Z" fill="#FF4F4F"/>
<path d="M107.5 35C108.881 35 110 33.8807 110 32.5C110 31.1193 108.881 30 107.5 30C106.119 30 105 31.1193 105 32.5C105 33.8807 106.119 35 107.5 35Z" fill="#FF4F4F"/>
<path d="M122.5 35C123.881 35 125 33.8807 125 32.5C125 31.1193 123.881 30 122.5 30C121.119 30 120 31.1193 120 32.5C120 33.8807 121.119 35 122.5 35Z" fill="#FF4F4F"/>
<path d="M137.5 35C138.881 35 140 33.8807 140 32.5C140 31.1193 138.881 30 137.5 30C136.119 30 135 31.1193 135 32.5C135 33.8807 136.119 35 137.5 35Z" fill="#FF4F4F"/>
<path d="M2.5 50C3.88071 50 5 48.8807 5 47.5C5 46.1193 3.88071 45 2.5 45C1.11929 45 0 46.1193 0 47.5C0 48.8807 1.11929 50 2.5 50Z" fill="#FF4F4F"/>
<path d="M17.5 50C18.8807 50 20 48.8807 20 47.5C20 46.1193 18.8807 45 17.5 45C16.1193 45 15 46.1193 15 47.5C15 48.8807 16.1193 50 17.5 50Z" fill="#FF4F4F"/>
<path d="M32.5 50C33.8807 50 35 48.8807 35 47.5C35 46.1193 33.8807 45 32.5 45C31.1193 45 30 46.1193 30 47.5C30 48.8807 31.1193 50 32.5 50Z" fill="#FF4F4F"/>
<path d="M47.5 50C48.8807 50 50 48.8807 50 47.5C50 46.1193 48.8807 45 47.5 45C46.1193 45 45 46.1193 45 47.5C45 48.8807 46.1193 50 47.5 50Z" fill="#FF4F4F"/>
<path d="M62.5 50C63.8807 50 65 48.8807 65 47.5C65 46.1193 63.8807 45 62.5 45C61.1193 45 60 46.1193 60 47.5C60 48.8807 61.1193 50 62.5 50Z" fill="#FF4F4F"/>
<path d="M77.5 50C78.8807 50 80 48.8807 80 47.5C80 46.1193 78.8807 45 77.5 45C76.1193 45 75 46.1193 75 47.5C75 48.8807 76.1193 50 77.5 50Z" fill="#FF4F4F"/>
<path d="M92.5 50C93.8807 50 95 48.8807 95 47.5C95 46.1193 93.8807 45 92.5 45C91.1193 45 90 46.1193 90 47.5C90 48.8807 91.1193 50 92.5 50Z" fill="#FF4F4F"/>
<path d="M107.5 50C108.881 50 110 48.8807 110 47.5C110 46.1193 108.881 45 107.5 45C106.119 45 105 46.1193 105 47.5C105 48.8807 106.119 50 107.5 50Z" fill="#FF4F4F"/>
<path d="M122.5 50C123.881 50 125 48.8807 125 47.5C125 46.1193 123.881 45 122.5 45C121.119 45 120 46.1193 120 47.5C120 48.8807 121.119 50 122.5 50Z" fill="#FF4F4F"/>
<path d="M137.5 50C138.881 50 140 48.8807 140 47.5C140 46.1193 138.881 45 137.5 45C136.119 45 135 46.1193 135 47.5C135 48.8807 136.119 50 137.5 50Z" fill="#FF4F4F"/>
<path d="M2.5 65C3.88071 65 5 63.8807 5 62.5C5 61.1193 3.88071 60 2.5 60C1.11929 60 0 61.1193 0 62.5C0 63.8807 1.11929 65 2.5 65Z" fill="#FF4F4F"/>
<path d="M17.5 65C18.8807 65 20 63.8807 20 62.5C20 61.1193 18.8807 60 17.5 60C16.1193 60 15 61.1193 15 62.5C15 63.8807 16.1193 65 17.5 65Z" fill="#FF4F4F"/>
<path d="M32.5 65C33.8807 65 35 63.8807 35 62.5C35 61.1193 33.8807 60 32.5 60C31.1193 60 30 61.1193 30 62.5C30 63.8807 31.1193 65 32.5 65Z" fill="#FF4F4F"/>
<path d="M47.5 65C48.8807 65 50 63.8807 50 62.5C50 61.1193 48.8807 60 47.5 60C46.1193 60 45 61.1193 45 62.5C45 63.8807 46.1193 65 47.5 65Z" fill="#FF4F4F"/>
<path d="M62.5 65C63.8807 65 65 63.8807 65 62.5C65 61.1193 63.8807 60 62.5 60C61.1193 60 60 61.1193 60 62.5C60 63.8807 61.1193 65 62.5 65Z" fill="#FF4F4F"/>
<path d="M77.5 65C78.8807 65 80 63.8807 80 62.5C80 61.1193 78.8807 60 77.5 60C76.1193 60 75 61.1193 75 62.5C75 63.8807 76.1193 65 77.5 65Z" fill="#FF4F4F"/>
<path d="M92.5 65C93.8807 65 95 63.8807 95 62.5C95 61.1193 93.8807 60 92.5 60C91.1193 60 90 61.1193 90 62.5C90 63.8807 91.1193 65 92.5 65Z" fill="#FF4F4F"/>
<path d="M107.5 65C108.881 65 110 63.8807 110 62.5C110 61.1193 108.881 60 107.5 60C106.119 60 105 61.1193 105 62.5C105 63.8807 106.119 65 107.5 65Z" fill="#FF4F4F"/>
<path d="M122.5 65C123.881 65 125 63.8807 125 62.5C125 61.1193 123.881 60 122.5 60C121.119 60 120 61.1193 120 62.5C120 63.8807 121.119 65 122.5 65Z" fill="#FF4F4F"/>
<path d="M137.5 65C138.881 65 140 63.8807 140 62.5C140 61.1193 138.881 60 137.5 60C136.119 60 135 61.1193 135 62.5C135 63.8807 136.119 65 137.5 65Z" fill="#FF4F4F"/>
<path d="M2.5 80C3.88071 80 5 78.8807 5 77.5C5 76.1193 3.88071 75 2.5 75C1.11929 75 0 76.1193 0 77.5C0 78.8807 1.11929 80 2.5 80Z" fill="#FF4F4F"/>
<path d="M17.5 80C18.8807 80 20 78.8807 20 77.5C20 76.1193 18.8807 75 17.5 75C16.1193 75 15 76.1193 15 77.5C15 78.8807 16.1193 80 17.5 80Z" fill="#FF4F4F"/>
<path d="M32.5 80C33.8807 80 35 78.8807 35 77.5C35 76.1193 33.8807 75 32.5 75C31.1193 75 30 76.1193 30 77.5C30 78.8807 31.1193 80 32.5 80Z" fill="#FF4F4F"/>
<path d="M47.5 80C48.8807 80 50 78.8807 50 77.5C50 76.1193 48.8807 75 47.5 75C46.1193 75 45 76.1193 45 77.5C45 78.8807 46.1193 80 47.5 80Z" fill="#FF4F4F"/>
<path d="M62.5 80C63.8807 80 65 78.8807 65 77.5C65 76.1193 63.8807 75 62.5 75C61.1193 75 60 76.1193 60 77.5C60 78.8807 61.1193 80 62.5 80Z" fill="#FF4F4F"/>
<path d="M77.5 80C78.8807 80 80 78.8807 80 77.5C80 76.1193 78.8807 75 77.5 75C76.1193 75 75 76.1193 75 77.5C75 78.8807 76.1193 80 77.5 80Z" fill="#FF4F4F"/>
<path d="M92.5 80C93.8807 80 95 78.8807 95 77.5C95 76.1193 93.8807 75 92.5 75C91.1193 75 90 76.1193 90 77.5C90 78.8807 91.1193 80 92.5 80Z" fill="#FF4F4F"/>
<path d="M107.5 80C108.881 80 110 78.8807 110 77.5C110 76.1193 108.881 75 107.5 75C106.119 75 105 76.1193 105 77.5C105 78.8807 106.119 80 107.5 80Z" fill="#FF4F4F"/>
<path d="M122.5 80C123.881 80 125 78.8807 125 77.5C125 76.1193 123.881 75 122.5 75C121.119 75 120 76.1193 120 77.5C120 78.8807 121.119 80 122.5 80Z" fill="#FF4F4F"/>
<path d="M137.5 80C138.881 80 140 78.8807 140 77.5C140 76.1193 138.881 75 137.5 75C136.119 75 135 76.1193 135 77.5C135 78.8807 136.119 80 137.5 80Z" fill="#FF4F4F"/>
<path d="M2.5 95C3.88071 95 5 93.8807 5 92.5C5 91.1193 3.88071 90 2.5 90C1.11929 90 0 91.1193 0 92.5C0 93.8807 1.11929 95 2.5 95Z" fill="#FF4F4F"/>
<path d="M17.5 95C18.8807 95 20 93.8807 20 92.5C20 91.1193 18.8807 90 17.5 90C16.1193 90 15 91.1193 15 92.5C15 93.8807 16.1193 95 17.5 95Z" fill="#FF4F4F"/>
<path d="M32.5 95C33.8807 95 35 93.8807 35 92.5C35 91.1193 33.8807 90 32.5 90C31.1193 90 30 91.1193 30 92.5C30 93.8807 31.1193 95 32.5 95Z" fill="#FF4F4F"/>
<path d="M47.5 95C48.8807 95 50 93.8807 50 92.5C50 91.1193 48.8807 90 47.5 90C46.1193 90 45 91.1193 45 92.5C45 93.8807 46.1193 95 47.5 95Z" fill="#FF4F4F"/>
<path d="M62.5 95C63.8807 95 65 93.8807 65 92.5C65 91.1193 63.8807 90 62.5 90C61.1193 90 60 91.1193 60 92.5C60 93.8807 61.1193 95 62.5 95Z" fill="#FF4F4F"/>
<path d="M77.5 95C78.8807 95 80 93.8807 80 92.5C80 91.1193 78.8807 90 77.5 90C76.1193 90 75 91.1193 75 92.5C75 93.8807 76.1193 95 77.5 95Z" fill="#FF4F4F"/>
<path d="M92.5 95C93.8807 95 95 93.8807 95 92.5C95 91.1193 93.8807 90 92.5 90C91.1193 90 90 91.1193 90 92.5C90 93.8807 91.1193 95 92.5 95Z" fill="#FF4F4F"/>
<path d="M107.5 95C108.881 95 110 93.8807 110 92.5C110 91.1193 108.881 90 107.5 90C106.119 90 105 91.1193 105 92.5C105 93.8807 106.119 95 107.5 95Z" fill="#FF4F4F"/>
<path d="M122.5 95C123.881 95 125 93.8807 125 92.5C125 91.1193 123.881 90 122.5 90C121.119 90 120 91.1193 120 92.5C120 93.8807 121.119 95 122.5 95Z" fill="#FF4F4F"/>
<path d="M137.5 95C138.881 95 140 93.8807 140 92.5C140 91.1193 138.881 90 137.5 90C136.119 90 135 91.1193 135 92.5C135 93.8807 136.119 95 137.5 95Z" fill="#FF4F4F"/>
<path d="M2.5 110C3.88071 110 5 108.881 5 107.5C5 106.119 3.88071 105 2.5 105C1.11929 105 0 106.119 0 107.5C0 108.881 1.11929 110 2.5 110Z" fill="#FF4F4F"/>
<path d="M17.5 110C18.8807 110 20 108.881 20 107.5C20 106.119 18.8807 105 17.5 105C16.1193 105 15 106.119 15 107.5C15 108.881 16.1193 110 17.5 110Z" fill="#FF4F4F"/>
<path d="M32.5 110C33.8807 110 35 108.881 35 107.5C35 106.119 33.8807 105 32.5 105C31.1193 105 30 106.119 30 107.5C30 108.881 31.1193 110 32.5 110Z" fill="#FF4F4F"/>
<path d="M47.5 110C48.8807 110 50 108.881 50 107.5C50 106.119 48.8807 105 47.5 105C46.1193 105 45 106.119 45 107.5C45 108.881 46.1193 110 47.5 110Z" fill="#FF4F4F"/>
<path d="M62.5 110C63.8807 110 65 108.881 65 107.5C65 106.119 63.8807 105 62.5 105C61.1193 105 60 106.119 60 107.5C60 108.881 61.1193 110 62.5 110Z" fill="#FF4F4F"/>
<path d="M77.5 110C78.8807 110 80 108.881 80 107.5C80 106.119 78.8807 105 77.5 105C76.1193 105 75 106.119 75 107.5C75 108.881 76.1193 110 77.5 110Z" fill="#FF4F4F"/>
<path d="M92.5 110C93.8807 110 95 108.881 95 107.5C95 106.119 93.8807 105 92.5 105C91.1193 105 90 106.119 90 107.5C90 108.881 91.1193 110 92.5 110Z" fill="#FF4F4F"/>
<path d="M107.5 110C108.881 110 110 108.881 110 107.5C110 106.119 108.881 105 107.5 105C106.119 105 105 106.119 105 107.5C105 108.881 106.119 110 107.5 110Z" fill="#FF4F4F"/>
<path d="M122.5 110C123.881 110 125 108.881 125 107.5C125 106.119 123.881 105 122.5 105C121.119 105 120 106.119 120 107.5C120 108.881 121.119 110 122.5 110Z" fill="#FF4F4F"/>
<path d="M137.5 110C138.881 110 140 108.881 140 107.5C140 106.119 138.881 105 137.5 105C136.119 105 135 106.119 135 107.5C135 108.881 136.119 110 137.5 110Z" fill="#FF4F4F"/>
<path d="M2.5 125C3.88071 125 5 123.881 5 122.5C5 121.119 3.88071 120 2.5 120C1.11929 120 0 121.119 0 122.5C0 123.881 1.11929 125 2.5 125Z" fill="#FF4F4F"/>
<path d="M17.5 125C18.8807 125 20 123.881 20 122.5C20 121.119 18.8807 120 17.5 120C16.1193 120 15 121.119 15 122.5C15 123.881 16.1193 125 17.5 125Z" fill="#FF4F4F"/>
<path d="M32.5 125C33.8807 125 35 123.881 35 122.5C35 121.119 33.8807 120 32.5 120C31.1193 120 30 121.119 30 122.5C30 123.881 31.1193 125 32.5 125Z" fill="#FF4F4F"/>
<path d="M47.5 125C48.8807 125 50 123.881 50 122.5C50 121.119 48.8807 120 47.5 120C46.1193 120 45 121.119 45 122.5C45 123.881 46.1193 125 47.5 125Z" fill="#FF4F4F"/>
<path d="M62.5 125C63.8807 125 65 123.881 65 122.5C65 121.119 63.8807 120 62.5 120C61.1193 120 60 121.119 60 122.5C60 123.881 61.1193 125 62.5 125Z" fill="#FF4F4F"/>
<path d="M77.5 125C78.8807 125 80 123.881 80 122.5C80 121.119 78.8807 120 77.5 120C76.1193 120 75 121.119 75 122.5C75 123.881 76.1193 125 77.5 125Z" fill="#FF4F4F"/>
<path d="M92.5 125C93.8807 125 95 123.881 95 122.5C95 121.119 93.8807 120 92.5 120C91.1193 120 90 121.119 90 122.5C90 123.881 91.1193 125 92.5 125Z" fill="#FF4F4F"/>
<path d="M107.5 125C108.881 125 110 123.881 110 122.5C110 121.119 108.881 120 107.5 120C106.119 120 105 121.119 105 122.5C105 123.881 106.119 125 107.5 125Z" fill="#FF4F4F"/>
<path d="M122.5 125C123.881 125 125 123.881 125 122.5C125 121.119 123.881 120 122.5 120C121.119 120 120 121.119 120 122.5C120 123.881 121.119 125 122.5 125Z" fill="#FF4F4F"/>
<path d="M137.5 125C138.881 125 140 123.881 140 122.5C140 121.119 138.881 120 137.5 120C136.119 120 135 121.119 135 122.5C135 123.881 136.119 125 137.5 125Z" fill="#FF4F4F"/>
<path d="M2.5 140C3.88071 140 5 138.881 5 137.5C5 136.119 3.88071 135 2.5 135C1.11929 135 0 136.119 0 137.5C0 138.881 1.11929 140 2.5 140Z" fill="#FF4F4F"/>
<path d="M17.5 140C18.8807 140 20 138.881 20 137.5C20 136.119 18.8807 135 17.5 135C16.1193 135 15 136.119 15 137.5C15 138.881 16.1193 140 17.5 140Z" fill="#FF4F4F"/>
<path d="M32.5 140C33.8807 140 35 138.881 35 137.5C35 136.119 33.8807 135 32.5 135C31.1193 135 30 136.119 30 137.5C30 138.881 31.1193 140 32.5 140Z" fill="#FF4F4F"/>
<path d="M47.5 140C48.8807 140 50 138.881 50 137.5C50 136.119 48.8807 135 47.5 135C46.1193 135 45 136.119 45 137.5C45 138.881 46.1193 140 47.5 140Z" fill="#FF4F4F"/>
<path d="M62.5 140C63.8807 140 65 138.881 65 137.5C65 136.119 63.8807 135 62.5 135C61.1193 135 60 136.119 60 137.5C60 138.881 61.1193 140 62.5 140Z" fill="#FF4F4F"/>
<path d="M77.5 140C78.8807 140 80 138.881 80 137.5C80 136.119 78.8807 135 77.5 135C76.1193 135 75 136.119 75 137.5C75 138.881 76.1193 140 77.5 140Z" fill="#FF4F4F"/>
<path d="M92.5 140C93.8807 140 95 138.881 95 137.5C95 136.119 93.8807 135 92.5 135C91.1193 135 90 136.119 90 137.5C90 138.881 91.1193 140 92.5 140Z" fill="#FF4F4F"/>
<path d="M107.5 140C108.881 140 110 138.881 110 137.5C110 136.119 108.881 135 107.5 135C106.119 135 105 136.119 105 137.5C105 138.881 106.119 140 107.5 140Z" fill="#FF4F4F"/>
<path d="M122.5 140C123.881 140 125 138.881 125 137.5C125 136.119 123.881 135 122.5 135C121.119 135 120 136.119 120 137.5C120 138.881 121.119 140 122.5 140Z" fill="#FF4F4F"/>
<path d="M137.5 140C138.881 140 140 138.881 140 137.5C140 136.119 138.881 135 137.5 135C136.119 135 135 136.119 135 137.5C135 138.881 136.119 140 137.5 140Z" fill="#FF4F4F"/>
<path d="M2.5 155C3.88071 155 5 153.881 5 152.5C5 151.119 3.88071 150 2.5 150C1.11929 150 0 151.119 0 152.5C0 153.881 1.11929 155 2.5 155Z" fill="#FF4F4F"/>
<path d="M17.5 155C18.8807 155 20 153.881 20 152.5C20 151.119 18.8807 150 17.5 150C16.1193 150 15 151.119 15 152.5C15 153.881 16.1193 155 17.5 155Z" fill="#FF4F4F"/>
<path d="M32.5 155C33.8807 155 35 153.881 35 152.5C35 151.119 33.8807 150 32.5 150C31.1193 150 30 151.119 30 152.5C30 153.881 31.1193 155 32.5 155Z" fill="#FF4F4F"/>
<path d="M47.5 155C48.8807 155 50 153.881 50 152.5C50 151.119 48.8807 150 47.5 150C46.1193 150 45 151.119 45 152.5C45 153.881 46.1193 155 47.5 155Z" fill="#FF4F4F"/>
<path d="M62.5 155C63.8807 155 65 153.881 65 152.5C65 151.119 63.8807 150 62.5 150C61.1193 150 60 151.119 60 152.5C60 153.881 61.1193 155 62.5 155Z" fill="#FF4F4F"/>
<path d="M77.5 155C78.8807 155 80 153.881 80 152.5C80 151.119 78.8807 150 77.5 150C76.1193 150 75 151.119 75 152.5C75 153.881 76.1193 155 77.5 155Z" fill="#FF4F4F"/>
<path d="M92.5 155C93.8807 155 95 153.881 95 152.5C95 151.119 93.8807 150 92.5 150C91.1193 150 90 151.119 90 152.5C90 153.881 91.1193 155 92.5 155Z" fill="#FF4F4F"/>
<path d="M107.5 155C108.881 155 110 153.881 110 152.5C110 151.119 108.881 150 107.5 150C106.119 150 105 151.119 105 152.5C105 153.881 106.119 155 107.5 155Z" fill="#FF4F4F"/>
<path d="M122.5 155C123.881 155 125 153.881 125 152.5C125 151.119 123.881 150 122.5 150C121.119 150 120 151.119 120 152.5C120 153.881 121.119 155 122.5 155Z" fill="#FF4F4F"/>
<path d="M137.5 155C138.881 155 140 153.881 140 152.5C140 151.119 138.881 150 137.5 150C136.119 150 135 151.119 135 152.5C135 153.881 136.119 155 137.5 155Z" fill="#FF4F4F"/>
<path d="M2.5 170C3.88071 170 5 168.881 5 167.5C5 166.119 3.88071 165 2.5 165C1.11929 165 0 166.119 0 167.5C0 168.881 1.11929 170 2.5 170Z" fill="#FF4F4F"/>
<path d="M17.5 170C18.8807 170 20 168.881 20 167.5C20 166.119 18.8807 165 17.5 165C16.1193 165 15 166.119 15 167.5C15 168.881 16.1193 170 17.5 170Z" fill="#FF4F4F"/>
<path d="M32.5 170C33.8807 170 35 168.881 35 167.5C35 166.119 33.8807 165 32.5 165C31.1193 165 30 166.119 30 167.5C30 168.881 31.1193 170 32.5 170Z" fill="#FF4F4F"/>
<path d="M47.5 170C48.8807 170 50 168.881 50 167.5C50 166.119 48.8807 165 47.5 165C46.1193 165 45 166.119 45 167.5C45 168.881 46.1193 170 47.5 170Z" fill="#FF4F4F"/>
<path d="M62.5 170C63.8807 170 65 168.881 65 167.5C65 166.119 63.8807 165 62.5 165C61.1193 165 60 166.119 60 167.5C60 168.881 61.1193 170 62.5 170Z" fill="#FF4F4F"/>
<path d="M77.5 170C78.8807 170 80 168.881 80 167.5C80 166.119 78.8807 165 77.5 165C76.1193 165 75 166.119 75 167.5C75 168.881 76.1193 170 77.5 170Z" fill="#FF4F4F"/>
<path d="M92.5 170C93.8807 170 95 168.881 95 167.5C95 166.119 93.8807 165 92.5 165C91.1193 165 90 166.119 90 167.5C90 168.881 91.1193 170 92.5 170Z" fill="#FF4F4F"/>
<path d="M107.5 170C108.881 170 110 168.881 110 167.5C110 166.119 108.881 165 107.5 165C106.119 165 105 166.119 105 167.5C105 168.881 106.119 170 107.5 170Z" fill="#FF4F4F"/>
<path d="M122.5 170C123.881 170 125 168.881 125 167.5C125 166.119 123.881 165 122.5 165C121.119 165 120 166.119 120 167.5C120 168.881 121.119 170 122.5 170Z" fill="#FF4F4F"/>
<path d="M137.5 170C138.881 170 140 168.881 140 167.5C140 166.119 138.881 165 137.5 165C136.119 165 135 166.119 135 167.5C135 168.881 136.119 170 137.5 170Z" fill="#FF4F4F"/>
</svg>
